999
FreeCAD v1.1 20260928 (Git shallow)
  0
SECTION
  2
HEADER
  9
$ACADVER
  1
AC1014
  9
$ACADMAINTVER
 70
     9
  9
$DWGCODEPAGE
  3
ANSI_1252
  9
$TEXTSTYLE
  7
STANDARD
  9
$DIMSTYLE
  2
STANDARD
  9
$DIMTXSTY
  7
STANDARD
  9
$CMLSTYLE
  2
STANDARD
  9
$LUNITS
 70
2
  9
$INSUNITS
 70
4
  9
$PEXTMAX
 10
50
 20
50
 30
50
  9
$PEXTMIN
 10
0
 20
0
 30
0
  9
$HANDSEED
  5
FFFF
  0
ENDSEC
  0
SECTION
  2
CLASSES
  0
CLASS
  1
ACDBDICTIONARYWDFLT
  2
AcDbDictionaryWithDefault
  3
ObjectDBX Classes
 90
        0
280
     0
281
     0
  0
CLASS
  1
XRECORD
  2
AcDbXrecord
  3
ObjectDBX Classes
 90
        0
280
     0
281
     0
  0
CLASS
  1
LWPOLYLINE
  2
AcDbPolyline
  3
ObjectDBX Classes
 90
        0
280
     0
281
     1
  0
ENDSEC
  0
SECTION
  2
TABLES
  0
TABLE
  2
VPORT
  5
20
330
0
100
AcDbSymbolTable
 70
     1
  0
VPORT
  5
21
330
20
100
AcDbSymbolTableRecord
100
AcDbViewportTableRecord
  2
*ACTIVE
 70
     0
  0
ENDTAB
  0
TABLE
  2
LTYPE
  5
22
330
0
100
AcDbSymbolTable
 70
     1
  0
LTYPE
  5
23
330
21
100
AcDbSymbolTableRecord
100
AcDbLinetypeTableRecord
  2
BYBLOCK
 70
     0
  3

 72
    65
 73
     0
 40
0.0
  0
LTYPE
  5
24
330
21
100
AcDbSymbolTableRecord
100
AcDbLinetypeTableRecord
  2
BYLAYER
 70
     0
  3

 72
    65
 73
     0
 40
0.0
  0
LTYPE
  5
25
330
21
100
AcDbSymbolTableRecord
100
AcDbLinetypeTableRecord
  2
CONTINUOUS
 70
     0
  3
Solid line
 72
    65
 73
     0
 40
0.0
  0
ENDTAB
  0
TABLE
  2
LAYER
  5
A6E
330
0
100
AcDbSymbolTable
 70
3
  0
LAYER
  5
A6F
330
A6E
100
AcDbSymbolTableRecord
100
AcDbLayerTableRecord
  2
0
 70
   0
 62
   7
  6
CONTINUOUS
  0
LAYER
  5
A70
330
A6E
100
AcDbSymbolTableRecord
100
AcDbLayerTableRecord
  2
none
 70
    0
 62
    7
  6
CONTINUOUS
  0
LAYER
  5
A71
330
A6E
100
AcDbSymbolTableRecord
100
AcDbLayerTableRecord
  2
f
 70
    0
 62
    7
  6
CONTINUOUS
  0
ENDTAB
  0
TABLE
  2
STYLE
  5
70
330
0
100
AcDbSymbolTable
 70
     2
  0
STYLE
  5
71
330
70
100
AcDbSymbolTableRecord
100
AcDbTextStyleTableRecord
  2
STANDARD
 70
     0
 40
0.0
 41
1.0
 50
0.0
 71
     0
 42
2.5
  3
arial.ttf
  4

  0
STYLE
  5
72
330
70
100
AcDbSymbolTableRecord
100
AcDbTextStyleTableRecord
  2
ANNOTATIVE
 70
     0
 40
0.0
 41
1.0
 50
0.0
 71
     0
 42
2.5
  3
arial.ttf
  4

  0
ENDTAB
  0
TABLE
  2
VIEW
  5
73
330
0
100
AcDbSymbolTable
 70
     0
  0
ENDTAB
  0
TABLE
  2
UCS
  5
74
330
0
100
AcDbSymbolTable
 70
     0
  0
ENDTAB
  0
TABLE
  2
APPID
  5
75
330
0
100
AcDbSymbolTable
 70
     2
  0
APPID
  5
76
330
75
100
AcDbSymbolTableRecord
100
AcDbRegAppTableRecord
  2
ACAD
 70
     0
  0
APPID
  5
77
330
75
100
AcDbSymbolTableRecord
100
AcDbRegAppTableRecord
  2
ACADANNOTATIVE
 70
     0
  0
ENDTAB
  0
TABLE
  2
DIMSTYLE
  5
78
330
0
100
AcDbSymbolTable
 70
     2
  0
DIMSTYLE
105
79
330
78
100
AcDbSymbolTableRecord
100
AcDbDimStyleTableRecord
  2
STANDARD
 70
     0
  3

  4

  5

  6

  7

 40
0.0
 41
2.5
 42
0.625
 43
3.75
 44
1.25
 45
0.0
 46
0.0
 47
0.0
 48
0.0
140
2.5
141
2.5
142
0.0
143
0.03937007874016
144
1.0
145
0.0
146
1.0
147
0.625
 71
     0
 72
     0
 73
     0
 74
     0
 75
     0
 76
     0
 77
     1
 78
     8
170
     0
171
     3
172
     1
173
     0
174
     0
175
     0
176
     0
177
     0
178
     0
270
     2
271
     2
272
     2
273
     2
274
     3
340
71
275
     0
280
     0
281
     0
282
     0
283
     0
284
     8
285
     0
286
     0
287
     3
288
     0
  0
ENDTAB
  0
TABLE
  2
BLOCK_RECORD
  5
A01
330
0
100
AcDbSymbolTable
  70
5
  0
BLOCK_RECORD
  5
A02
330
A01
100
AcDbSymbolTableRecord
100
AcDbBlockTableRecord
  2
*MODEL_SPACE
  0
BLOCK_RECORD
  5
A03
330
A01
100
AcDbSymbolTableRecord
100
AcDbBlockTableRecord
  2
*PAPER_SPACE
  0
ENDTAB
  0
ENDSEC
  0
SECTION
  2
BLOCKS
  0
BLOCK
  5
A04
330
A02
100
AcDbEntity
  8
0
100
AcDbBlockBegin
  2
*MODEL_SPACE
 70
   0
 10
0
 20
0
 30
0
  3
*MODEL_SPACE
  1
 
  0
ENDBLK
  5
A05
330
A02
100
AcDbEntity
  8
0
100
AcDbBlockEnd
  0
BLOCK
  5
A06
330
A03
100
AcDbEntity
 67
1
  8
0
100
AcDbBlockBegin
  2
*PAPER_SPACE
 70
   0
 10
0
 20
0
 30
0
  3
*PAPER_SPACE
  1
 
  0
ENDBLK
  5
A07
330
A03
100
AcDbEntity
 67
    1
  8
0
100
AcDbBlockEnd
  0
ENDSEC
  0
SECTION
  2
ENTITIES
  0
LINE
  5
A08
330
A02
100
AcDbEntity
  8
f
100
AcDbLine
 10
80.629638083
 20
339.279433702
 30
88.402136771
 11
447.763363568
 21
339.279390907
 31
88.402120723
  0
LINE
  5
A09
330
A02
100
AcDbEntity
  8
f
100
AcDbLine
 10
447.763363568
 20
339.279390907
 30
88.402120723
 11
447.953837375
 21
339.279390885
 31
88.402120715
  0
LINE
  5
A0A
330
A02
100
AcDbEntity
  8
f
100
AcDbLine
 10
447.953837375
 20
339.279390885
 30
88.402120715
 11
448.088522680
 21
339.144705549
 31
88.402120709
  0
LINE
  5
A0B
330
A02
100
AcDbEntity
  8
f
100
AcDbLine
 10
448.088522680
 20
339.144705549
 30
88.402120709
 11
496.061787134
 21
291.171429911
 31
88.402118612
  0
LINE
  5
A0C
330
A02
100
AcDbEntity
  8
f
100
AcDbLine
 10
496.061787134
 20
291.171429911
 30
88.402118612
 11
496.196472439
 21
291.036744575
 31
88.402118606
  0
LINE
  5
A0D
330
A02
100
AcDbEntity
  8
f
100
AcDbLine
 10
496.196472439
 20
291.036744575
 30
88.402118606
 11
496.196472417
 21
290.846270768
 31
88.402118606
  0
LINE
  5
A0E
330
A02
100
AcDbEntity
  8
f
100
AcDbLine
 10
496.196472417
 20
290.846270768
 30
88.402118606
 11
496.196429622
 21
-76.287545772
 31
88.402118606
  0
LINE
  5
A0F
330
A02
100
AcDbEntity
  8
f
100
AcDbLine
 10
496.196429622
 20
-76.287545772
 30
88.402118606
 11
496.196429600
 21
-76.478019578
 31
88.402118606
  0
LINE
  5
A10
330
A02
100
AcDbEntity
  8
f
100
AcDbLine
 10
496.196429600
 20
-76.478019578
 30
88.402118606
 11
496.061744264
 21
-76.612704883
 31
88.402118612
  0
LINE
  5
A11
330
A02
100
AcDbEntity
  8
f
100
AcDbLine
 10
496.061744264
 20
-76.612704883
 30
88.402118612
 11
448.088468626
 21
-124.585969337
 31
88.402120709
  0
LINE
  5
A12
330
A02
100
AcDbEntity
  8
f
100
AcDbLine
 10
448.088468626
 20
-124.585969337
 30
88.402120709
 11
447.953783290
 21
-124.720654642
 31
88.402120715
  0
LINE
  5
A13
330
A02
100
AcDbEntity
  8
f
100
AcDbLine
 10
447.953783290
 20
-124.720654642
 30
88.402120715
 11
447.763309483
 21
-124.720654620
 31
88.402120723
  0
LINE
  5
A14
330
A02
100
AcDbEntity
  8
f
100
AcDbLine
 10
447.763309483
 20
-124.720654620
 30
88.402120723
 11
80.629583998
 21
-124.720611825
 31
88.402136771
  0
LINE
  5
A15
330
A02
100
AcDbEntity
  8
f
100
AcDbLine
 10
80.629583998
 20
-124.720611825
 30
88.402136771
 11
80.439110191
 21
-124.720611803
 31
88.402136779
  0
LINE
  5
A16
330
A02
100
AcDbEntity
  8
f
100
AcDbLine
 10
80.439110191
 20
-124.720611803
 30
88.402136779
 11
80.304424886
 21
-124.585926467
 31
88.402136785
  0
LINE
  5
A17
330
A02
100
AcDbEntity
  8
f
100
AcDbLine
 10
80.304424886
 20
-124.585926467
 30
88.402136785
 11
32.331160432
 21
-76.612650829
 31
88.402138882
  0
LINE
  5
A18
330
A02
100
AcDbEntity
  8
f
100
AcDbLine
 10
32.331160432
 20
-76.612650829
 30
88.402138882
 11
32.196475127
 21
-76.477965493
 31
88.402138888
  0
LINE
  5
A19
330
A02
100
AcDbEntity
  8
f
100
AcDbLine
 10
32.196475127
 20
-76.477965493
 30
88.402138888
 11
32.196475149
 21
-76.287491686
 31
88.402138888
  0
LINE
  5
A1A
330
A02
100
AcDbEntity
  8
f
100
AcDbLine
 10
32.196475149
 20
-76.287491686
 30
88.402138888
 11
32.196517944
 21
290.846324854
 31
88.402138888
  0
LINE
  5
A1B
330
A02
100
AcDbEntity
  8
f
100
AcDbLine
 10
32.196517944
 20
290.846324854
 30
88.402138888
 11
32.196517966
 21
291.036798660
 31
88.402138888
  0
LINE
  5
A1C
330
A02
100
AcDbEntity
  8
f
100
AcDbLine
 10
32.196517966
 20
291.036798660
 30
88.402138888
 11
32.331203302
 21
291.171483965
 31
88.402138882
  0
LINE
  5
A1D
330
A02
100
AcDbEntity
  8
f
100
AcDbLine
 10
32.331203302
 20
291.171483965
 30
88.402138882
 11
80.304478941
 21
339.144748419
 31
88.402136785
  0
LINE
  5
A1E
330
A02
100
AcDbEntity
  8
f
100
AcDbLine
 10
80.304478941
 20
339.144748419
 30
88.402136785
 11
80.439164277
 21
339.279433724
 31
88.402136779
  0
LINE
  5
A1F
330
A02
100
AcDbEntity
  8
f
100
AcDbLine
 10
80.439164277
 20
339.279433724
 30
88.402136779
 11
80.629638083
 21
339.279433702
 31
88.402136771
  0
CIRCLE
  5
A20
330
A02
100
AcDbEntity
  8
f
100
AcDbCircle
 10
172.356834544
 20
38.641594711
 30
88.402132761
 40
2.250000000
  0
CIRCLE
  5
A21
330
A02
100
AcDbEntity
  8
f
100
AcDbCircle
 10
195.177455908
 20
198.737805237
 30
88.402131764
 40
2.250000000
  0
CIRCLE
  5
A22
330
A02
100
AcDbEntity
  8
f
100
AcDbCircle
 10
332.453045070
 20
15.820973348
 30
88.402125763
 40
2.250000000
  0
CIRCLE
  5
A23
330
A02
100
AcDbEntity
  8
f
100
AcDbCircle
 10
355.273666434
 20
175.917183874
 30
88.402124766
 40
2.250000000
  0
CIRCLE
  5
A24
330
A02
100
AcDbEntity
  8
f
100
AcDbCircle
 10
119.196474090
 20
-37.720610784
 30
88.402135085
 40
55.000000000
  0
CIRCLE
  5
A25
330
A02
100
AcDbEntity
  8
f
100
AcDbCircle
 10
179.195803959
 20
107.279366777
 30
88.402132462
 40
2.250000000
  0
CIRCLE
  5
A26
330
A02
100
AcDbEntity
  8
f
100
AcDbCircle
 10
119.196474527
 20
252.279389216
 30
88.402135085
 40
55.000000000
  0
CIRCLE
  5
A27
330
A02
100
AcDbEntity
  8
f
100
AcDbCircle
 10
409.196473869
 20
-37.720610459
 30
88.402122409
 40
55.000000000
  0
LINE
  5
A28
330
A02
100
AcDbEntity
  8
f
100
AcDbLine
 10
287.196474957
 20
182.279389541
 30
88.402127742
 11
241.196474957
 21
182.279389541
 31
88.402129752
  0
LINE
  5
A29
330
A02
100
AcDbEntity
  8
f
100
AcDbLine
 10
239.196474957
 20
180.279389541
 30
88.402129840
 11
241.196474957
 21
182.279389541
 31
88.402129752
  0
LINE
  5
A2A
330
A02
100
AcDbEntity
  8
f
100
AcDbLine
 10
239.196474957
 20
180.279389541
 30
88.402129840
 11
239.196474957
 21
174.279389541
 31
88.402129840
  0
LINE
  5
A2B
330
A02
100
AcDbEntity
  8
f
100
AcDbLine
 10
241.196474957
 20
172.279389541
 30
88.402129752
 11
239.196474957
 21
174.279389541
 31
88.402129840
  0
LINE
  5
A2C
330
A02
100
AcDbEntity
  8
f
100
AcDbLine
 10
241.196474957
 20
172.279389541
 30
88.402129752
 11
287.196474957
 21
172.279389541
 31
88.402127742
  0
LINE
  5
A2D
330
A02
100
AcDbEntity
  8
f
100
AcDbLine
 10
289.196474957
 20
174.279389541
 30
88.402127654
 11
287.196474957
 21
172.279389541
 31
88.402127742
  0
LINE
  5
A2E
330
A02
100
AcDbEntity
  8
f
100
AcDbLine
 10
289.196474957
 20
174.279389541
 30
88.402127654
 11
289.196474957
 21
180.279389541
 31
88.402127654
  0
LINE
  5
A2F
330
A02
100
AcDbEntity
  8
f
100
AcDbLine
 10
287.196474957
 20
182.279389541
 30
88.402127742
 11
289.196474957
 21
180.279389541
 31
88.402127654
  0
LINE
  5
A30
330
A02
100
AcDbEntity
  8
f
100
AcDbLine
 10
337.196474957
 20
132.279389541
 30
88.402125556
 11
331.196474957
 21
132.279389541
 31
88.402125818
  0
LINE
  5
A31
330
A02
100
AcDbEntity
  8
f
100
AcDbLine
 10
329.196474957
 20
130.279389541
 30
88.402125906
 11
331.196474957
 21
132.279389541
 31
88.402125818
  0
LINE
  5
A32
330
A02
100
AcDbEntity
  8
f
100
AcDbLine
 10
329.196474957
 20
130.279389541
 30
88.402126124
 11
329.196474957
 21
84.279389541
 31
88.402126124
  0
LINE
  5
A33
330
A02
100
AcDbEntity
  8
f
100
AcDbLine
 10
331.196474957
 20
82.279389541
 30
88.402125818
 11
329.196474957
 21
84.279389541
 31
88.402125906
  0
LINE
  5
A34
330
A02
100
AcDbEntity
  8
f
100
AcDbLine
 10
331.196474957
 20
82.279389541
 30
88.402125818
 11
337.196474957
 21
82.279389541
 31
88.402125556
  0
LINE
  5
A35
330
A02
100
AcDbEntity
  8
f
100
AcDbLine
 10
339.196474957
 20
84.279389541
 30
88.402125469
 11
337.196474957
 21
82.279389541
 31
88.402125556
  0
LINE
  5
A36
330
A02
100
AcDbEntity
  8
f
100
AcDbLine
 10
339.196474957
 20
84.279389541
 30
88.402125469
 11
339.196474957
 21
130.279389541
 31
88.402125469
  0
LINE
  5
A37
330
A02
100
AcDbEntity
  8
f
100
AcDbLine
 10
337.196474957
 20
132.279389541
 30
88.402125556
 11
339.196474957
 21
130.279389541
 31
88.402125469
  0
LINE
  5
A38
330
A02
100
AcDbEntity
  8
f
100
AcDbLine
 10
241.196474957
 20
32.279389541
 30
88.402129752
 11
287.196474957
 21
32.279389541
 31
88.402127742
  0
LINE
  5
A39
330
A02
100
AcDbEntity
  8
f
100
AcDbLine
 10
289.196474957
 20
34.279389541
 30
88.402127654
 11
287.196474957
 21
32.279389541
 31
88.402127742
  0
LINE
  5
A3A
330
A02
100
AcDbEntity
  8
f
100
AcDbLine
 10
289.196474957
 20
34.279389541
 30
88.402127654
 11
289.196474957
 21
40.279389541
 31
88.402127654
  0
LINE
  5
A3B
330
A02
100
AcDbEntity
  8
f
100
AcDbLine
 10
287.196474957
 20
42.279389541
 30
88.402127742
 11
289.196474957
 21
40.279389541
 31
88.402127654
  0
LINE
  5
A3C
330
A02
100
AcDbEntity
  8
f
100
AcDbLine
 10
287.196474957
 20
42.279389541
 30
88.402127742
 11
241.196474957
 21
42.279389541
 31
88.402129752
  0
LINE
  5
A3D
330
A02
100
AcDbEntity
  8
f
100
AcDbLine
 10
239.196474957
 20
40.279389541
 30
88.402129840
 11
241.196474957
 21
42.279389541
 31
88.402129752
  0
LINE
  5
A3E
330
A02
100
AcDbEntity
  8
f
100
AcDbLine
 10
239.196474957
 20
40.279389541
 30
88.402129840
 11
239.196474957
 21
34.279389541
 31
88.402129840
  0
LINE
  5
A3F
330
A02
100
AcDbEntity
  8
f
100
AcDbLine
 10
241.196474957
 20
32.279389541
 30
88.402129752
 11
239.196474957
 21
34.279389541
 31
88.402129840
  0
CIRCLE
  5
A40
330
A02
100
AcDbEntity
  8
f
100
AcDbCircle
 10
195.558679202
 20
15.820973815
 30
88.402131747
 40
2.250000000
  0
CIRCLE
  5
A41
330
A02
100
AcDbEntity
  8
f
100
AcDbCircle
 10
172.738058057
 20
175.917184122
 30
88.402132745
 40
2.250000000
  0
CIRCLE
  5
A42
330
A02
100
AcDbEntity
  8
f
100
AcDbCircle
 10
332.834268364
 20
198.737805267
 30
88.402125747
 40
2.250000000
  0
CIRCLE
  5
A43
330
A02
100
AcDbEntity
  8
f
100
AcDbCircle
 10
355.654889509
 20
38.641594960
 30
88.402124749
 40
2.250000000
  0
CIRCLE
  5
A44
330
A02
100
AcDbEntity
  8
f
100
AcDbCircle
 10
66.696473869
 20
14.779389541
 30
88.402137161
 40
2.250000000
  0
CIRCLE
  5
A45
330
A02
100
AcDbEntity
  8
f
100
AcDbCircle
 10
171.696473869
 20
-90.220610459
 30
88.402132572
 40
2.250000000
  0
CIRCLE
  5
A46
330
A02
100
AcDbEntity
  8
f
100
AcDbCircle
 10
66.696473869
 20
-90.220610459
 30
88.402137161
 40
2.250000000
  0
CIRCLE
  5
A47
330
A02
100
AcDbEntity
  8
f
100
AcDbCircle
 10
171.696473869
 20
14.779389541
 30
88.402132572
 40
2.250000000
  0
CIRCLE
  5
A48
330
A02
100
AcDbEntity
  8
f
100
AcDbCircle
 10
211.696473869
 20
-10.220610459
 30
88.402131042
 40
2.250000000
  0
CIRCLE
  5
A49
330
A02
100
AcDbEntity
  8
f
100
AcDbCircle
 10
264.196474957
 20
-62.720610459
 30
88.402128747
 40
55.000000000
  0
CIRCLE
  5
A4A
330
A02
100
AcDbEntity
  8
f
100
AcDbCircle
 10
316.696473869
 20
-115.220610459
 30
88.402126452
 40
2.250000000
  0
CIRCLE
  5
A4B
330
A02
100
AcDbEntity
  8
f
100
AcDbCircle
 10
211.696473869
 20
-115.220610459
 30
88.402131042
 40
2.250000000
  0
CIRCLE
  5
A4C
330
A02
100
AcDbEntity
  8
f
100
AcDbCircle
 10
316.696473869
 20
-10.220610459
 30
88.402126452
 40
2.250000000
  0
CIRCLE
  5
A4D
330
A02
100
AcDbEntity
  8
f
100
AcDbCircle
 10
356.696473869
 20
14.779389541
 30
88.402124922
 40
2.250000000
  0
CIRCLE
  5
A4E
330
A02
100
AcDbEntity
  8
f
100
AcDbCircle
 10
461.696473869
 20
-90.220610459
 30
88.402120332
 40
2.250000000
  0
CIRCLE
  5
A4F
330
A02
100
AcDbEntity
  8
f
100
AcDbCircle
 10
356.696473869
 20
-90.220610459
 30
88.402124922
 40
2.250000000
  0
CIRCLE
  5
A50
330
A02
100
AcDbEntity
  8
f
100
AcDbCircle
 10
461.696473869
 20
14.779389541
 30
88.402120332
 40
2.250000000
  0
CIRCLE
  5
A51
330
A02
100
AcDbEntity
  8
f
100
AcDbCircle
 10
41.696473869
 20
159.779389541
 30
88.402138254
 40
2.250000000
  0
CIRCLE
  5
A52
330
A02
100
AcDbEntity
  8
f
100
AcDbCircle
 10
94.196474957
 20
107.279389541
 30
88.402134867
 40
55.000000000
  0
CIRCLE
  5
A53
330
A02
100
AcDbEntity
  8
f
100
AcDbCircle
 10
146.696473869
 20
54.779389541
 30
88.402133664
 40
2.250000000
  0
CIRCLE
  5
A54
330
A02
100
AcDbEntity
  8
f
100
AcDbCircle
 10
41.696473869
 20
54.779389541
 30
88.402138254
 40
2.250000000
  0
CIRCLE
  5
A55
330
A02
100
AcDbEntity
  8
f
100
AcDbCircle
 10
146.696473869
 20
159.779389541
 30
88.402133664
 40
2.250000000
  0
CIRCLE
  5
A56
330
A02
100
AcDbEntity
  8
f
100
AcDbCircle
 10
381.696473869
 20
159.779389541
 30
88.402123829
 40
2.250000000
  0
CIRCLE
  5
A57
330
A02
100
AcDbEntity
  8
f
100
AcDbCircle
 10
434.196474957
 20
107.279389541
 30
88.402122627
 40
55.000000000
  0
CIRCLE
  5
A58
330
A02
100
AcDbEntity
  8
f
100
AcDbCircle
 10
486.696473869
 20
54.779389541
 30
88.402119240
 40
2.250000000
  0
CIRCLE
  5
A59
330
A02
100
AcDbEntity
  8
f
100
AcDbCircle
 10
381.696473869
 20
54.779389541
 30
88.402123829
 40
2.250000000
  0
CIRCLE
  5
A5A
330
A02
100
AcDbEntity
  8
f
100
AcDbCircle
 10
486.696473869
 20
159.779389541
 30
88.402119240
 40
2.250000000
  0
CIRCLE
  5
A5B
330
A02
100
AcDbEntity
  8
f
100
AcDbCircle
 10
66.696473869
 20
304.779389541
 30
88.402137161
 40
2.250000000
  0
CIRCLE
  5
A5C
330
A02
100
AcDbEntity
  8
f
100
AcDbCircle
 10
171.696473869
 20
199.779389541
 30
88.402132572
 40
2.250000000
  0
CIRCLE
  5
A5D
330
A02
100
AcDbEntity
  8
f
100
AcDbCircle
 10
66.696473869
 20
199.779389541
 30
88.402137161
 40
2.250000000
  0
CIRCLE
  5
A5E
330
A02
100
AcDbEntity
  8
f
100
AcDbCircle
 10
171.696473869
 20
304.779389541
 30
88.402132572
 40
2.250000000
  0
CIRCLE
  5
A5F
330
A02
100
AcDbEntity
  8
f
100
AcDbCircle
 10
211.696473869
 20
329.779389541
 30
88.402131042
 40
2.250000000
  0
CIRCLE
  5
A60
330
A02
100
AcDbEntity
  8
f
100
AcDbCircle
 10
264.196474957
 20
277.279389541
 30
88.402128747
 40
55.000000000
  0
CIRCLE
  5
A61
330
A02
100
AcDbEntity
  8
f
100
AcDbCircle
 10
316.696473869
 20
224.779389541
 30
88.402126452
 40
2.250000000
  0
CIRCLE
  5
A62
330
A02
100
AcDbEntity
  8
f
100
AcDbCircle
 10
211.696473869
 20
224.779389541
 30
88.402131042
 40
2.250000000
  0
CIRCLE
  5
A63
330
A02
100
AcDbEntity
  8
f
100
AcDbCircle
 10
316.696473869
 20
329.779389541
 30
88.402126452
 40
2.250000000
  0
CIRCLE
  5
A64
330
A02
100
AcDbEntity
  8
f
100
AcDbCircle
 10
356.696473869
 20
304.779389541
 30
88.402124922
 40
2.250000000
  0
CIRCLE
  5
A65
330
A02
100
AcDbEntity
  8
f
100
AcDbCircle
 10
409.180474957
 20
252.279389541
 30
88.402122627
 40
55.000000000
  0
CIRCLE
  5
A66
330
A02
100
AcDbEntity
  8
f
100
AcDbCircle
 10
461.696473869
 20
199.779389541
 30
88.402120332
 40
2.250000000
  0
CIRCLE
  5
A67
330
A02
100
AcDbEntity
  8
f
100
AcDbCircle
 10
356.696473869
 20
199.779389541
 30
88.402124922
 40
2.250000000
  0
CIRCLE
  5
A68
330
A02
100
AcDbEntity
  8
f
100
AcDbCircle
 10
461.696473869
 20
304.779389541
 30
88.402120332
 40
2.250000000
  0
CIRCLE
  5
A69
330
A02
100
AcDbEntity
  8
f
100
AcDbCircle
 10
211.696473869
 20
159.779389541
 30
88.402131042
 40
2.250000000
  0
CIRCLE
  5
A6A
330
A02
100
AcDbEntity
  8
f
100
AcDbCircle
 10
264.196474957
 20
107.280389541
 30
88.402128747
 40
55.000000000
  0
CIRCLE
  5
A6B
330
A02
100
AcDbEntity
  8
f
100
AcDbCircle
 10
316.696473869
 20
54.779389541
 30
88.402126452
 40
2.250000000
  0
CIRCLE
  5
A6C
330
A02
100
AcDbEntity
  8
f
100
AcDbCircle
 10
211.696473869
 20
54.779389541
 30
88.402131042
 40
2.250000000
  0
CIRCLE
  5
A6D
330
A02
100
AcDbEntity
  8
f
100
AcDbCircle
 10
316.696473869
 20
159.779389541
 30
88.402126452
 40
2.250000000
  0
ENDSEC
  0
SECTION
  2
OBJECTS
  0
DICTIONARY
  5
F000
330
0
100
AcDbDictionary
  3
ACAD_GROUP
350
F001
  0
DICTIONARY
  5
F001
330
F000
100
AcDbDictionary
  0
ENDSEC
  0
EOF