999
FreeCAD v1.1 20260928 (Git shallow)
  0
SECTION
  2
HEADER
  9
$ACADVER
  1
AC1014
  9
$ACADMAINTVER
 70
     9
  9
$DWGCODEPAGE
  3
ANSI_1252
  9
$TEXTSTYLE
  7
STANDARD
  9
$DIMSTYLE
  2
STANDARD
  9
$DIMTXSTY
  7
STANDARD
  9
$CMLSTYLE
  2
STANDARD
  9
$LUNITS
 70
2
  9
$INSUNITS
 70
4
  9
$PEXTMAX
 10
50
 20
50
 30
50
  9
$PEXTMIN
 10
0
 20
0
 30
0
  9
$HANDSEED
  5
FFFF
  0
ENDSEC
  0
SECTION
  2
CLASSES
  0
CLASS
  1
ACDBDICTIONARYWDFLT
  2
AcDbDictionaryWithDefault
  3
ObjectDBX Classes
 90
        0
280
     0
281
     0
  0
CLASS
  1
XRECORD
  2
AcDbXrecord
  3
ObjectDBX Classes
 90
        0
280
     0
281
     0
  0
CLASS
  1
LWPOLYLINE
  2
AcDbPolyline
  3
ObjectDBX Classes
 90
        0
280
     0
281
     1
  0
ENDSEC
  0
SECTION
  2
TABLES
  0
TABLE
  2
VPORT
  5
20
330
0
100
AcDbSymbolTable
 70
     1
  0
VPORT
  5
21
330
20
100
AcDbSymbolTableRecord
100
AcDbViewportTableRecord
  2
*ACTIVE
 70
     0
  0
ENDTAB
  0
TABLE
  2
LTYPE
  5
22
330
0
100
AcDbSymbolTable
 70
     1
  0
LTYPE
  5
23
330
21
100
AcDbSymbolTableRecord
100
AcDbLinetypeTableRecord
  2
BYBLOCK
 70
     0
  3

 72
    65
 73
     0
 40
0.0
  0
LTYPE
  5
24
330
21
100
AcDbSymbolTableRecord
100
AcDbLinetypeTableRecord
  2
BYLAYER
 70
     0
  3

 72
    65
 73
     0
 40
0.0
  0
LTYPE
  5
25
330
21
100
AcDbSymbolTableRecord
100
AcDbLinetypeTableRecord
  2
CONTINUOUS
 70
     0
  3
Solid line
 72
    65
 73
     0
 40
0.0
  0
ENDTAB
  0
TABLE
  2
LAYER
  5
A94
330
0
100
AcDbSymbolTable
 70
3
  0
LAYER
  5
A95
330
A94
100
AcDbSymbolTableRecord
100
AcDbLayerTableRecord
  2
0
 70
   0
 62
   7
  6
CONTINUOUS
  0
LAYER
  5
A96
330
A94
100
AcDbSymbolTableRecord
100
AcDbLayerTableRecord
  2
none
 70
    0
 62
    7
  6
CONTINUOUS
  0
LAYER
  5
A97
330
A94
100
AcDbSymbolTableRecord
100
AcDbLayerTableRecord
  2
f
 70
    0
 62
    7
  6
CONTINUOUS
  0
ENDTAB
  0
TABLE
  2
STYLE
  5
70
330
0
100
AcDbSymbolTable
 70
     2
  0
STYLE
  5
71
330
70
100
AcDbSymbolTableRecord
100
AcDbTextStyleTableRecord
  2
STANDARD
 70
     0
 40
0.0
 41
1.0
 50
0.0
 71
     0
 42
2.5
  3
arial.ttf
  4

  0
STYLE
  5
72
330
70
100
AcDbSymbolTableRecord
100
AcDbTextStyleTableRecord
  2
ANNOTATIVE
 70
     0
 40
0.0
 41
1.0
 50
0.0
 71
     0
 42
2.5
  3
arial.ttf
  4

  0
ENDTAB
  0
TABLE
  2
VIEW
  5
73
330
0
100
AcDbSymbolTable
 70
     0
  0
ENDTAB
  0
TABLE
  2
UCS
  5
74
330
0
100
AcDbSymbolTable
 70
     0
  0
ENDTAB
  0
TABLE
  2
APPID
  5
75
330
0
100
AcDbSymbolTable
 70
     2
  0
APPID
  5
76
330
75
100
AcDbSymbolTableRecord
100
AcDbRegAppTableRecord
  2
ACAD
 70
     0
  0
APPID
  5
77
330
75
100
AcDbSymbolTableRecord
100
AcDbRegAppTableRecord
  2
ACADANNOTATIVE
 70
     0
  0
ENDTAB
  0
TABLE
  2
DIMSTYLE
  5
78
330
0
100
AcDbSymbolTable
 70
     2
  0
DIMSTYLE
105
79
330
78
100
AcDbSymbolTableRecord
100
AcDbDimStyleTableRecord
  2
STANDARD
 70
     0
  3

  4

  5

  6

  7

 40
0.0
 41
2.5
 42
0.625
 43
3.75
 44
1.25
 45
0.0
 46
0.0
 47
0.0
 48
0.0
140
2.5
141
2.5
142
0.0
143
0.03937007874016
144
1.0
145
0.0
146
1.0
147
0.625
 71
     0
 72
     0
 73
     0
 74
     0
 75
     0
 76
     0
 77
     1
 78
     8
170
     0
171
     3
172
     1
173
     0
174
     0
175
     0
176
     0
177
     0
178
     0
270
     2
271
     2
272
     2
273
     2
274
     3
340
71
275
     0
280
     0
281
     0
282
     0
283
     0
284
     8
285
     0
286
     0
287
     3
288
     0
  0
ENDTAB
  0
TABLE
  2
BLOCK_RECORD
  5
A01
330
0
100
AcDbSymbolTable
  70
5
  0
BLOCK_RECORD
  5
A02
330
A01
100
AcDbSymbolTableRecord
100
AcDbBlockTableRecord
  2
*MODEL_SPACE
  0
BLOCK_RECORD
  5
A03
330
A01
100
AcDbSymbolTableRecord
100
AcDbBlockTableRecord
  2
*PAPER_SPACE
  0
ENDTAB
  0
ENDSEC
  0
SECTION
  2
BLOCKS
  0
BLOCK
  5
A04
330
A02
100
AcDbEntity
  8
0
100
AcDbBlockBegin
  2
*MODEL_SPACE
 70
   0
 10
0
 20
0
 30
0
  3
*MODEL_SPACE
  1
 
  0
ENDBLK
  5
A05
330
A02
100
AcDbEntity
  8
0
100
AcDbBlockEnd
  0
BLOCK
  5
A06
330
A03
100
AcDbEntity
 67
1
  8
0
100
AcDbBlockBegin
  2
*PAPER_SPACE
 70
   0
 10
0
 20
0
 30
0
  3
*PAPER_SPACE
  1
 
  0
ENDBLK
  5
A07
330
A03
100
AcDbEntity
 67
    1
  8
0
100
AcDbBlockEnd
  0
ENDSEC
  0
SECTION
  2
ENTITIES
  0
LINE
  5
A08
330
A02
100
AcDbEntity
  8
f
100
AcDbLine
 10
203.741645529
 20
214.798381784
 30
87.383513410
 11
164.262065201
 21
254.277962113
 31
87.383512663
  0
LINE
  5
A09
330
A02
100
AcDbEntity
  8
f
100
AcDbLine
 10
157.190997389
 20
254.277962113
 30
87.383512757
 11
164.262065201
 21
254.277962113
 31
87.383512663
  0
LINE
  5
A0A
330
A02
100
AcDbEntity
  8
f
100
AcDbLine
 10
157.190997389
 20
254.277962113
 30
87.383512757
 11
149.412822796
 21
246.499787520
 31
87.383513113
  0
LINE
  5
A0B
330
A02
100
AcDbEntity
  8
f
100
AcDbLine
 10
149.412822796
 20
239.428719708
 30
87.383513341
 11
149.412822796
 21
246.499787520
 31
87.383513113
  0
LINE
  5
A0C
330
A02
100
AcDbEntity
  8
f
100
AcDbLine
 10
149.412822796
 20
239.428719708
 30
87.383513341
 11
156.102031939
 21
232.739510564
 31
87.383513468
  0
ARC
  5
A0D
330
A02
100
AcDbEntity
  8
f
100
AcDbCircle
 10
152.566498033
 20
229.203976659
 30
87.383513630
 40
5.000000000
100
AcDbArc
 50
0.184354665
 51
45.000000000
  0
LINE
  5
A0E
330
A02
100
AcDbEntity
  8
f
100
AcDbLine
 10
158.141921478
 20
50.376182965
 30
87.383519201
 11
157.566472151
 21
229.220064610
 31
87.383513427
  0
ARC
  5
A0F
330
A02
100
AcDbEntity
  8
f
100
AcDbCircle
 10
153.141947360
 20
50.360095013
 30
87.383519404
 40
5.000000000
100
AcDbArc
 50
-45.000000000
 51
0.184354665
  0
LINE
  5
A10
330
A02
100
AcDbEntity
  8
f
100
AcDbLine
 10
156.677481266
 20
46.824561107
 30
87.383519471
 11
117.197901164
 21
7.344981005
 31
87.383521276
  0
LINE
  5
A11
330
A02
100
AcDbEntity
  8
f
100
AcDbLine
 10
117.197901164
 20
0.273913193
 30
87.383521504
 11
117.197901164
 21
7.344981005
 31
87.383521276
  0
LINE
  5
A12
330
A02
100
AcDbEntity
  8
f
100
AcDbLine
 10
117.197901164
 20
0.273913193
 30
87.383521504
 11
124.976075757
 21
-7.504261400
 31
87.383521651
  0
LINE
  5
A13
330
A02
100
AcDbEntity
  8
f
100
AcDbLine
 10
132.047143569
 20
-7.504261400
 30
87.383521557
 11
124.976075757
 21
-7.504261400
 31
87.383521651
  0
LINE
  5
A14
330
A02
100
AcDbEntity
  8
f
100
AcDbLine
 10
132.047143569
 20
-7.504261400
 30
87.383521785
 11
138.736352943
 21
-0.815052026
 31
87.383521480
  0
ARC
  5
A15
330
A02
100
AcDbEntity
  8
f
100
AcDbCircle
 10
142.271886849
 20
-4.350585932
 30
87.383521318
 40
5.000000000
100
AcDbArc
 50
90.184354665
 51
135.000000000
  0
LINE
  5
A16
330
A02
100
AcDbEntity
  8
f
100
AcDbLine
 10
321.099680084
 20
1.224837511
 30
87.383518420
 11
142.255798897
 21
0.649388186
 31
87.383520834
  0
ARC
  5
A17
330
A02
100
AcDbEntity
  8
f
100
AcDbCircle
 10
321.115768036
 20
-3.775136607
 30
87.383518904
 40
5.000000000
100
AcDbArc
 50
45.000000000
 51
90.184354665
  0
LINE
  5
A18
330
A02
100
AcDbEntity
  8
f
100
AcDbLine
 10
324.651301942
 20
-0.239602701
 30
87.383518743
 11
364.130882272
 21
-39.719183031
 31
87.383519490
  0
LINE
  5
A19
330
A02
100
AcDbEntity
  8
f
100
AcDbLine
 10
371.201950084
 20
-39.719183031
 30
87.383519396
 11
364.130882272
 21
-39.719183031
 31
87.383519490
  0
LINE
  5
A1A
330
A02
100
AcDbEntity
  8
f
100
AcDbLine
 10
371.201950084
 20
-39.719183031
 30
87.383519396
 11
378.980124677
 21
-31.941008438
 31
87.383519040
  0
LINE
  5
A1B
330
A02
100
AcDbEntity
  8
f
100
AcDbLine
 10
378.980124677
 20
-24.869940626
 30
87.383518812
 11
378.980124677
 21
-31.941008438
 31
87.383519040
  0
LINE
  5
A1C
330
A02
100
AcDbEntity
  8
f
100
AcDbLine
 10
378.980124677
 20
-24.869940626
 30
87.383518812
 11
372.290915075
 21
-18.180731024
 31
87.383518685
  0
ARC
  5
A1D
330
A02
100
AcDbEntity
  8
f
100
AcDbCircle
 10
375.826448981
 20
-14.645197118
 30
87.383518523
 40
5.000000000
100
AcDbArc
 50
-179.815645335
 51
-135.000000000
  0
LINE
  5
A1E
330
A02
100
AcDbEntity
  8
f
100
AcDbLine
 10
370.251025539
 20
164.182595661
 30
87.383512952
 11
370.826474863
 21
-14.661285070
 31
87.383518726
  0
ARC
  5
A1F
330
A02
100
AcDbEntity
  8
f
100
AcDbCircle
 10
375.250999657
 20
164.198683613
 30
87.383512749
 40
5.000000000
100
AcDbArc
 50
135.000000000
 51
-179.815645335
  0
LINE
  5
A20
330
A02
100
AcDbEntity
  8
f
100
AcDbLine
 10
371.715465751
 20
167.734217519
 30
87.383512682
 11
411.195046308
 21
207.213798077
 31
87.383510878
  0
LINE
  5
A21
330
A02
100
AcDbEntity
  8
f
100
AcDbLine
 10
411.195046308
 20
214.284865888
 30
87.383510649
 11
411.195046308
 21
207.213798077
 31
87.383510878
  0
LINE
  5
A22
330
A02
100
AcDbEntity
  8
f
100
AcDbLine
 10
411.195046308
 20
214.284865888
 30
87.383510649
 11
403.416871715
 21
222.063040482
 31
87.383510502
  0
LINE
  5
A23
330
A02
100
AcDbEntity
  8
f
100
AcDbLine
 10
396.345803903
 20
222.063040482
 30
87.383510596
 11
403.416871715
 21
222.063040482
 31
87.383510502
  0
LINE
  5
A24
330
A02
100
AcDbEntity
  8
f
100
AcDbLine
 10
396.345803903
 20
222.063040482
 30
87.383510368
 11
389.656594531
 21
215.373831109
 31
87.383510674
  0
ARC
  5
A25
330
A02
100
AcDbEntity
  8
f
100
AcDbCircle
 10
386.121060625
 20
218.909365015
 30
87.383510835
 40
5.000000000
100
AcDbArc
 50
-89.815645335
 51
-45.000000000
  0
LINE
  5
A26
330
A02
100
AcDbEntity
  8
f
100
AcDbLine
 10
386.137148577
 20
213.909390898
 30
87.383518085
 11
207.293267387
 21
213.333941572
 31
87.383520498
  0
ARC
  5
A27
330
A02
100
AcDbEntity
  8
f
100
AcDbCircle
 10
207.277179435
 20
218.333915690
 30
87.383513249
 40
5.000000000
100
AcDbArc
 50
-135.000000000
 51
-89.815645335
  0
CIRCLE
  5
A28
330
A02
100
AcDbEntity
  8
f
100
AcDbCircle
 10
195.558679188
 20
15.820973782
 30
87.383519952
 40
1.750000000
  0
CIRCLE
  5
A29
330
A02
100
AcDbEntity
  8
f
100
AcDbCircle
 10
172.738058043
 20
175.917184089
 30
87.383515082
 40
1.750000000
  0
CIRCLE
  5
A2A
330
A02
100
AcDbEntity
  8
f
100
AcDbCircle
 10
332.834268351
 20
198.737805234
 30
87.383512201
 40
1.750000000
  0
CIRCLE
  5
A2B
330
A02
100
AcDbEntity
  8
f
100
AcDbCircle
 10
355.654889495
 20
38.641594927
 30
87.383517071
 40
1.750000000
  0
ARC
  5
A2C
330
A02
100
AcDbEntity
  8
f
100
AcDbCircle
 10
344.096450296
 20
99.179057493
 30
87.383515269
 40
2.000000000
100
AcDbArc
 50
89.999987331
 51
-90.000000000
  0
LINE
  5
A2D
330
A02
100
AcDbEntity
  8
f
100
AcDbLine
 10
344.096450739
 20
101.179057493
 30
87.383515204
 11
344.096452087
 21
113.379057493
 31
87.383514809
  0
ARC
  5
A2E
330
A02
100
AcDbEntity
  8
f
100
AcDbCircle
 10
344.096452530
 20
115.379057493
 30
87.383514745
 40
2.000000000
100
AcDbArc
 50
90.000000000
 51
-90.000012669
  0
LINE
  5
A2F
330
A02
100
AcDbEntity
  8
f
100
AcDbLine
 10
344.096452530
 20
117.379057493
 30
87.383514680
 11
349.296452530
 21
117.379056918
 31
87.383514611
  0
ARC
  5
A30
330
A02
100
AcDbEntity
  8
f
100
AcDbCircle
 10
349.296452530
 20
115.379056918
 30
87.383514675
 40
2.000000000
100
AcDbArc
 50
-90.000012669
 51
90.000000000
  0
LINE
  5
A31
330
A02
100
AcDbEntity
  8
f
100
AcDbLine
 10
349.296452087
 20
113.379056918
 30
87.383514740
 11
349.296450739
 21
101.179056918
 31
87.383515134
  0
ARC
  5
A32
330
A02
100
AcDbEntity
  8
f
100
AcDbCircle
 10
349.296450296
 20
99.179056918
 30
87.383515199
 40
2.000000000
100
AcDbArc
 50
-90.000000000
 51
89.999987331
  0
LINE
  5
A33
330
A02
100
AcDbEntity
  8
f
100
AcDbLine
 10
349.296450296
 20
97.179056918
 30
87.383515264
 11
344.096450296
 21
97.179057493
 31
87.383515333
  0
ARC
  5
A34
330
A02
100
AcDbEntity
  8
f
100
AcDbCircle
 10
326.422075842
 20
158.049420136
 30
87.383513602
 40
2.000000000
100
AcDbArc
 50
134.999987331
 51
-45.000000000
  0
LINE
  5
A35
330
A02
100
AcDbEntity
  8
f
100
AcDbLine
 10
325.007862593
 20
159.463634011
 30
87.383513575
 11
316.381160816
 21
168.090337695
 31
87.383513412
  0
ARC
  5
A36
330
A02
100
AcDbEntity
  8
f
100
AcDbCircle
 10
314.966947566
 20
169.504551570
 30
87.383513385
 40
2.000000000
100
AcDbArc
 50
135.000000000
 51
-45.000012669
  0
LINE
  5
A37
330
A02
100
AcDbEntity
  8
f
100
AcDbLine
 10
313.552734004
 20
170.918765132
 30
87.383513358
 11
317.229689672
 21
174.595719988
 31
87.383513190
  0
ARC
  5
A38
330
A02
100
AcDbEntity
  8
f
100
AcDbCircle
 10
318.643903235
 20
173.181506426
 30
87.383513217
 40
2.000000000
100
AcDbArc
 50
-45.000012669
 51
135.000000000
  0
LINE
  5
A39
330
A02
100
AcDbEntity
  8
f
100
AcDbLine
 10
320.058116485
 20
171.767292551
 30
87.383513244
 11
328.684818261
 21
163.140588866
 31
87.383513407
  0
ARC
  5
A3A
330
A02
100
AcDbEntity
  8
f
100
AcDbCircle
 10
330.099031511
 20
161.726374991
 30
87.383513434
 40
2.000000000
100
AcDbArc
 50
-45.000000000
 51
134.999987331
  0
LINE
  5
A3B
330
A02
100
AcDbEntity
  8
f
100
AcDbLine
 10
331.513245073
 20
160.312161429
 30
87.383513461
 11
327.836289405
 21
156.635206573
 31
87.383513629
  0
ARC
  5
A3C
330
A02
100
AcDbEntity
  8
f
100
AcDbCircle
 10
272.296773177
 20
187.179382742
 30
87.383513385
 40
2.000000000
100
AcDbArc
 50
179.999987331
 51
0.000000000
  0
LINE
  5
A3D
330
A02
100
AcDbEntity
  8
f
100
AcDbLine
 10
270.296773177
 20
187.179383184
 30
87.383513412
 11
258.096773177
 21
187.179384533
 31
87.383513575
  0
ARC
  5
A3E
330
A02
100
AcDbEntity
  8
f
100
AcDbCircle
 10
256.096773177
 20
187.179384975
 30
87.383513602
 40
2.000000000
100
AcDbArc
 50
180.000000000
 51
-0.000012669
  0
LINE
  5
A3F
330
A02
100
AcDbEntity
  8
f
100
AcDbLine
 10
254.096773177
 20
187.179384975
 30
87.383513629
 11
254.096773752
 21
192.379384975
 31
87.383513461
  0
ARC
  5
A40
330
A02
100
AcDbEntity
  8
f
100
AcDbCircle
 10
256.096773752
 20
192.379384975
 30
87.383513434
 40
2.000000000
100
AcDbArc
 50
-0.000012669
 51
180.000000000
  0
LINE
  5
A41
330
A02
100
AcDbEntity
  8
f
100
AcDbLine
 10
258.096773752
 20
192.379384533
 30
87.383513407
 11
270.296773752
 21
192.379383184
 31
87.383513244
  0
ARC
  5
A42
330
A02
100
AcDbEntity
  8
f
100
AcDbCircle
 10
272.296773752
 20
192.379382742
 30
87.383513217
 40
2.000000000
100
AcDbArc
 50
0.000000000
 51
179.999987331
  0
LINE
  5
A43
330
A02
100
AcDbEntity
  8
f
100
AcDbLine
 10
274.296773752
 20
192.379382742
 30
87.383513190
 11
274.296773177
 21
187.179382742
 31
87.383513358
  0
ARC
  5
A44
330
A02
100
AcDbEntity
  8
f
100
AcDbCircle
 10
314.966487690
 20
45.053754827
 30
87.383517408
 40
2.000000000
100
AcDbArc
 50
44.999987331
 51
-135.000000000
  0
LINE
  5
A45
330
A02
100
AcDbEntity
  8
f
100
AcDbLine
 10
316.380701566
 20
46.467968077
 30
87.383517344
 11
325.007405250
 21
55.094669854
 31
87.383516949
  0
ARC
  5
A46
330
A02
100
AcDbEntity
  8
f
100
AcDbCircle
 10
326.421619125
 20
56.508883103
 30
87.383516885
 40
2.000000000
100
AcDbArc
 50
45.000000000
 51
-135.000012669
  0
LINE
  5
A47
330
A02
100
AcDbEntity
  8
f
100
AcDbLine
 10
327.835832687
 20
57.923096666
 30
87.383516820
 11
331.512787543
 21
54.246140997
 31
87.383516890
  0
ARC
  5
A48
330
A02
100
AcDbEntity
  8
f
100
AcDbCircle
 10
330.098573980
 20
52.831927435
 30
87.383516954
 40
2.000000000
100
AcDbArc
 50
-135.000012669
 51
45.000000000
  0
LINE
  5
A49
330
A02
100
AcDbEntity
  8
f
100
AcDbLine
 10
328.684360105
 20
51.417714185
 30
87.383517019
 11
320.057656421
 21
42.791012408
 31
87.383517413
  0
ARC
  5
A4A
330
A02
100
AcDbEntity
  8
f
100
AcDbCircle
 10
318.643442546
 20
41.376799158
 30
87.383517478
 40
2.000000000
100
AcDbArc
 50
-135.000000000
 51
44.999987331
  0
LINE
  5
A4B
330
A02
100
AcDbEntity
  8
f
100
AcDbLine
 10
317.229228984
 20
39.962585596
 30
87.383517543
 11
313.552274128
 21
43.639541265
 31
87.383517473
  0
ARC
  5
A4C
330
A02
100
AcDbEntity
  8
f
100
AcDbCircle
 10
256.096125048
 20
27.379380373
 30
87.383518768
 40
2.000000000
100
AcDbArc
 50
-0.000012669
 51
180.000000000
  0
LINE
  5
A4D
330
A02
100
AcDbEntity
  8
f
100
AcDbLine
 10
258.096125048
 20
27.379379931
 30
87.383518741
 11
270.296125048
 21
27.379378582
 31
87.383518578
  0
ARC
  5
A4E
330
A02
100
AcDbEntity
  8
f
100
AcDbCircle
 10
272.296125048
 20
27.379378140
 30
87.383518551
 40
2.000000000
100
AcDbArc
 50
0.000000000
 51
179.999987331
  0
LINE
  5
A4F
330
A02
100
AcDbEntity
  8
f
100
AcDbLine
 10
274.296125048
 20
27.379378140
 30
87.383518524
 11
274.296124473
 21
22.179378140
 31
87.383518692
  0
ARC
  5
A50
330
A02
100
AcDbEntity
  8
f
100
AcDbCircle
 10
272.296124473
 20
22.179378140
 30
87.383518719
 40
2.000000000
100
AcDbArc
 50
179.999987331
 51
0.000000000
  0
LINE
  5
A51
330
A02
100
AcDbEntity
  8
f
100
AcDbLine
 10
270.296124473
 20
22.179378582
 30
87.383518746
 11
258.096124473
 21
22.179379931
 31
87.383518909
  0
ARC
  5
A52
330
A02
100
AcDbEntity
  8
f
100
AcDbCircle
 10
256.096124473
 20
22.179380373
 30
87.383518936
 40
2.000000000
100
AcDbArc
 50
180.000000000
 51
-0.000012669
  0
LINE
  5
A53
330
A02
100
AcDbEntity
  8
f
100
AcDbLine
 10
254.096124473
 20
22.179380373
 30
87.383518963
 11
254.096125048
 21
27.379380373
 31
87.383518795
  0
ARC
  5
A54
330
A02
100
AcDbEntity
  8
f
100
AcDbCircle
 10
201.970822382
 20
56.509342979
 30
87.383518551
 40
2.000000000
100
AcDbArc
 50
-45.000012669
 51
135.000000000
  0
LINE
  5
A55
330
A02
100
AcDbEntity
  8
f
100
AcDbLine
 10
203.385035632
 20
55.095129104
 30
87.383518578
 11
212.011737408
 21
46.468425420
 31
87.383518741
  0
ARC
  5
A56
330
A02
100
AcDbEntity
  8
f
100
AcDbCircle
 10
213.425950658
 20
45.054211545
 30
87.383518768
 40
2.000000000
100
AcDbArc
 50
-45.000000000
 51
134.999987331
  0
LINE
  5
A57
330
A02
100
AcDbEntity
  8
f
100
AcDbLine
 10
214.840164220
 20
43.639997982
 30
87.383518795
 11
211.163208552
 21
39.963043127
 31
87.383518963
  0
ARC
  5
A58
330
A02
100
AcDbEntity
  8
f
100
AcDbCircle
 10
209.748994989
 20
41.377256689
 30
87.383518936
 40
2.000000000
100
AcDbArc
 50
134.999987331
 51
-45.000000000
  0
LINE
  5
A59
330
A02
100
AcDbEntity
  8
f
100
AcDbLine
 10
208.334781740
 20
42.791470564
 30
87.383518909
 11
199.708079963
 21
51.418174248
 31
87.383518746
  0
ARC
  5
A5A
330
A02
100
AcDbEntity
  8
f
100
AcDbCircle
 10
198.293866713
 20
52.832388123
 30
87.383518719
 40
2.000000000
100
AcDbArc
 50
135.000000000
 51
-45.000012669
  0
LINE
  5
A5B
330
A02
100
AcDbEntity
  8
f
100
AcDbLine
 10
196.879653151
 20
54.246601686
 30
87.383518692
 11
200.556608820
 21
57.923556541
 31
87.383518524
  0
ARC
  5
A5C
330
A02
100
AcDbEntity
  8
f
100
AcDbCircle
 10
184.296447928
 20
115.379705622
 30
87.383516885
 40
2.000000000
100
AcDbArc
 50
-90.000012669
 51
90.000000000
  0
LINE
  5
A5D
330
A02
100
AcDbEntity
  8
f
100
AcDbLine
 10
184.296447486
 20
113.379705622
 30
87.383516949
 11
184.296446137
 21
101.179705622
 31
87.383517344
  0
ARC
  5
A5E
330
A02
100
AcDbEntity
  8
f
100
AcDbCircle
 10
184.296445695
 20
99.179705622
 30
87.383517408
 40
2.000000000
100
AcDbArc
 50
-90.000000000
 51
89.999987331
  0
LINE
  5
A5F
330
A02
100
AcDbEntity
  8
f
100
AcDbLine
 10
184.296445695
 20
97.179705622
 30
87.383517473
 11
179.096445695
 21
97.179706197
 31
87.383517543
  0
ARC
  5
A60
330
A02
100
AcDbEntity
  8
f
100
AcDbCircle
 10
179.096445695
 20
99.179706197
 30
87.383517478
 40
2.000000000
100
AcDbArc
 50
89.999987331
 51
-90.000000000
  0
LINE
  5
A61
330
A02
100
AcDbEntity
  8
f
100
AcDbLine
 10
179.096446137
 20
101.179706197
 30
87.383517413
 11
179.096447486
 21
113.379706197
 31
87.383517019
  0
ARC
  5
A62
330
A02
100
AcDbEntity
  8
f
100
AcDbCircle
 10
179.096447928
 20
115.379706197
 30
87.383516954
 40
2.000000000
100
AcDbArc
 50
90.000000000
 51
-90.000012669
  0
LINE
  5
A63
330
A02
100
AcDbEntity
  8
f
100
AcDbLine
 10
179.096447928
 20
117.379706197
 30
87.383516890
 11
184.296447928
 21
117.379705622
 31
87.383516820
  0
ARC
  5
A64
330
A02
100
AcDbEntity
  8
f
100
AcDbCircle
 10
213.426410534
 20
169.505008287
 30
87.383514745
 40
2.000000000
100
AcDbArc
 50
-135.000012669
 51
45.000000000
  0
LINE
  5
A65
330
A02
100
AcDbEntity
  8
f
100
AcDbLine
 10
212.012196659
 20
168.090795038
 30
87.383514809
 11
203.385492975
 21
159.464093261
 31
87.383515204
  0
ARC
  5
A66
330
A02
100
AcDbEntity
  8
f
100
AcDbCircle
 10
201.971279099
 20
158.049880011
 30
87.383515268
 40
2.000000000
100
AcDbArc
 50
-135.000000000
 51
44.999987331
  0
LINE
  5
A67
330
A02
100
AcDbEntity
  8
f
100
AcDbLine
 10
200.557065537
 20
156.635666449
 30
87.383515333
 11
196.880110681
 21
160.312622118
 31
87.383515264
  0
ARC
  5
A68
330
A02
100
AcDbEntity
  8
f
100
AcDbCircle
 10
198.294324244
 20
161.726835680
 30
87.383515199
 40
2.000000000
100
AcDbArc
 50
44.999987331
 51
-135.000000000
  0
LINE
  5
A69
330
A02
100
AcDbEntity
  8
f
100
AcDbLine
 10
199.708538119
 20
163.141048930
 30
87.383515134
 11
208.335241803
 21
171.767750706
 31
87.383514740
  0
ARC
  5
A6A
330
A02
100
AcDbEntity
  8
f
100
AcDbCircle
 10
209.749455678
 20
173.181963956
 30
87.383514675
 40
2.000000000
100
AcDbArc
 50
45.000000000
 51
-135.000012669
  0
LINE
  5
A6B
330
A02
100
AcDbEntity
  8
f
100
AcDbLine
 10
211.163669241
 20
174.596177518
 30
87.383514610
 11
214.840624096
 21
170.919221850
 31
87.383514680
  0
LINE
  5
A6C
330
A02
100
AcDbEntity
  8
f
100
AcDbLine
 10
402.709715687
 20
210.749316016
 30
87.383510877
 11
360.283308816
 21
168.322909145
 31
87.383512816
  0
ARC
  5
A6D
330
A02
100
AcDbEntity
  8
f
100
AcDbCircle
 10
358.869095254
 20
169.737122707
 30
87.383512790
 40
2.000000000
100
AcDbArc
 50
135.000000000
 51
-45.000000000
  0
LINE
  5
A6E
330
A02
100
AcDbEntity
  8
f
100
AcDbLine
 10
357.454881691
 20
171.151336269
 30
87.383512763
 11
399.881288563
 21
213.577743141
 31
87.383510823
  0
ARC
  5
A6F
330
A02
100
AcDbEntity
  8
f
100
AcDbCircle
 10
401.295502125
 20
212.163529578
 30
87.383510850
 40
2.000000000
100
AcDbArc
 50
-45.000000000
 51
135.000000000
  0
LINE
  5
A70
330
A02
100
AcDbEntity
  8
f
100
AcDbLine
 10
125.683182537
 20
3.809447099
 30
87.383521276
 11
168.109589408
 21
46.235853970
 31
87.383519337
  0
ARC
  5
A71
330
A02
100
AcDbEntity
  8
f
100
AcDbCircle
 10
169.523802970
 20
44.821640407
 30
87.383519363
 40
2.000000000
100
AcDbArc
 50
-45.000000000
 51
135.000000000
  0
LINE
  5
A72
330
A02
100
AcDbEntity
  8
f
100
AcDbLine
 10
170.938016533
 20
43.407426845
 30
87.383519390
 11
128.511609662
 21
0.981019974
 31
87.383521330
  0
ARC
  5
A73
330
A02
100
AcDbEntity
  8
f
100
AcDbCircle
 10
127.097396099
 20
2.395233536
 30
87.383521303
 40
2.000000000
100
AcDbArc
 50
135.000000000
 51
-45.000000000
  0
CIRCLE
  5
A74
330
A02
100
AcDbEntity
  8
f
100
AcDbCircle
 10
361.196411334
 20
107.279055117
 30
87.383514778
 40
1.750000000
  0
LINE
  5
A75
330
A02
100
AcDbEntity
  8
f
100
AcDbLine
 10
189.196683842
 20
80.355765157
 30
87.383517951
 11
189.196689795
 21
134.203528265
 31
87.383516210
  0
ARC
  5
A76
330
A02
100
AcDbEntity
  8
f
100
AcDbCircle
 10
199.196689795
 20
134.203527159
 30
87.383516077
 40
10.000000000
100
AcDbArc
 50
134.999993666
 51
179.999993666
  0
LINE
  5
A77
330
A02
100
AcDbEntity
  8
f
100
AcDbLine
 10
192.125622765
 20
141.274595753
 30
87.383515943
 11
230.201745420
 21
179.350709989
 31
87.383514202
  0
ARC
  5
A78
330
A02
100
AcDbEntity
  8
f
100
AcDbCircle
 10
237.272812450
 20
172.279641396
 30
87.383514336
 40
10.000000000
100
AcDbArc
 50
89.999993666
 51
134.999993666
  0
LINE
  5
A79
330
A02
100
AcDbEntity
  8
f
100
AcDbLine
 10
237.272813556
 20
182.279641396
 30
87.383514012
 11
291.120576664
 21
182.279635442
 31
87.383513291
  0
ARC
  5
A7A
330
A02
100
AcDbEntity
  8
f
100
AcDbCircle
 10
291.120575559
 20
172.279635442
 30
87.383513615
 40
10.000000000
100
AcDbArc
 50
44.999993666
 51
89.999993666
  0
LINE
  5
A7B
330
A02
100
AcDbEntity
  8
f
100
AcDbLine
 10
298.191644152
 20
179.350702473
 30
87.383513291
 11
336.267758389
 21
141.274579817
 31
87.383514012
  0
ARC
  5
A7C
330
A02
100
AcDbEntity
  8
f
100
AcDbCircle
 10
329.196689795
 20
134.203512787
 30
87.383514336
 40
10.000000000
100
AcDbArc
 50
-0.000006334
 51
44.999993666
  0
LINE
  5
A7D
330
A02
100
AcDbEntity
  8
f
100
AcDbLine
 10
339.196689795
 20
134.203511682
 30
87.383514202
 11
339.196683842
 21
80.355748573
 31
87.383515943
  0
ARC
  5
A7E
330
A02
100
AcDbEntity
  8
f
100
AcDbCircle
 10
329.196683842
 20
80.355749679
 30
87.383516077
 40
10.000000000
100
AcDbArc
 50
-45.000006334
 51
-0.000006334
  0
LINE
  5
A7F
330
A02
100
AcDbEntity
  8
f
100
AcDbLine
 10
336.267750872
 20
73.284681085
 30
87.383516210
 11
298.191628217
 21
35.208566849
 31
87.383517951
  0
ARC
  5
A80
330
A02
100
AcDbEntity
  8
f
100
AcDbCircle
 10
291.120561187
 20
42.279635442
 30
87.383517817
 40
10.000000000
100
AcDbArc
 50
-90.000006334
 51
-45.000006334
  0
LINE
  5
A81
330
A02
100
AcDbEntity
  8
f
100
AcDbLine
 10
291.120560081
 20
32.279635442
 30
87.383518141
 11
237.272796972
 21
32.279641396
 31
87.383518862
  0
ARC
  5
A82
330
A02
100
AcDbEntity
  8
f
100
AcDbCircle
 10
237.272798078
 20
42.279641396
 30
87.383518538
 40
10.000000000
100
AcDbArc
 50
-135.000006334
 51
-90.000006334
  0
LINE
  5
A83
330
A02
100
AcDbEntity
  8
f
100
AcDbLine
 10
230.201729484
 20
35.208574366
 30
87.383518862
 11
192.125615248
 21
73.284697021
 31
87.383518141
  0
ARC
  5
A84
330
A02
100
AcDbEntity
  8
f
100
AcDbCircle
 10
199.196683842
 20
80.355764051
 30
87.383517817
 40
10.000000000
100
AcDbArc
 50
179.999993666
 51
-135.000006334
  0
CIRCLE
  5
A85
330
A02
100
AcDbEntity
  8
f
100
AcDbCircle
 10
195.606914858
 20
38.690254468
 30
87.383519212
 40
1.750000000
  0
CIRCLE
  5
A86
330
A02
100
AcDbEntity
  8
f
100
AcDbCircle
 10
332.785586550
 20
38.689858782
 30
87.383517375
 40
1.750000000
  0
CIRCLE
  5
A87
330
A02
100
AcDbEntity
  8
f
100
AcDbCircle
 10
264.196176637
 20
10.279420687
 30
87.383519212
 40
1.750000000
  0
CIRCLE
  5
A88
330
A02
100
AcDbEntity
  8
f
100
AcDbCircle
 10
167.196488242
 20
107.279654032
 30
87.383517375
 40
1.750000000
  0
CIRCLE
  5
A89
330
A02
100
AcDbEntity
  8
f
100
AcDbCircle
 10
195.607311675
 20
175.868904332
 30
87.383514778
 40
1.750000000
  0
CIRCLE
  5
A8A
330
A02
100
AcDbEntity
  8
f
100
AcDbCircle
 10
264.196721587
 20
204.279342428
 30
87.383512941
 40
1.750000000
  0
CIRCLE
  5
A8B
330
A02
100
AcDbEntity
  8
f
100
AcDbCircle
 10
332.785971887
 20
175.868518995
 30
87.383512941
 40
1.750000000
  0
LINE
  5
A8C
330
A02
100
AcDbEntity
  8
f
100
AcDbLine
 10
160.726514654
 20
245.792648133
 30
87.383512984
 11
203.152921525
 21
203.366241261
 31
87.383513788
  0
ARC
  5
A8D
330
A02
100
AcDbEntity
  8
f
100
AcDbCircle
 10
201.738707962
 20
201.952027699
 30
87.383513852
 40
2.000000000
100
AcDbArc
 50
-135.000000000
 51
45.000000000
  0
LINE
  5
A8E
330
A02
100
AcDbEntity
  8
f
100
AcDbLine
 10
200.324494400
 20
200.537814137
 30
87.383513917
 11
157.898087529
 21
242.964221008
 31
87.383513114
  0
ARC
  5
A8F
330
A02
100
AcDbEntity
  8
f
100
AcDbCircle
 10
159.312301091
 20
244.378434570
 30
87.383513049
 40
2.000000000
100
AcDbArc
 50
45.000000000
 51
-135.000000000
  0
LINE
  5
A90
330
A02
100
AcDbEntity
  8
f
100
AcDbLine
 10
367.666383571
 20
-31.233885018
 30
87.383519169
 11
325.239976700
 21
11.192521853
 31
87.383518365
  0
ARC
  5
A91
330
A02
100
AcDbEntity
  8
f
100
AcDbCircle
 10
326.654190262
 20
12.606735416
 30
87.383518301
 40
2.000000000
100
AcDbArc
 50
45.000000000
 51
-135.000000000
  0
LINE
  5
A92
330
A02
100
AcDbEntity
  8
f
100
AcDbLine
 10
328.068403824
 20
14.020948978
 30
87.383518236
 11
370.494810696
 21
-28.405457893
 31
87.383519040
  0
ARC
  5
A93
330
A02
100
AcDbEntity
  8
f
100
AcDbCircle
 10
369.080597133
 20
-29.819671456
 30
87.383519104
 40
2.000000000
100
AcDbArc
 50
-135.000000000
 51
45.000000000
  0
ENDSEC
  0
SECTION
  2
OBJECTS
  0
DICTIONARY
  5
F000
330
0
100
AcDbDictionary
  3
ACAD_GROUP
350
F001
  0
DICTIONARY
  5
F001
330
F000
100
AcDbDictionary
  0
ENDSEC
  0
EOF