999
FreeCAD v1.1 20260928 (Git shallow)
  0
SECTION
  2
HEADER
  9
$ACADVER
  1
AC1014
  9
$ACADMAINTVER
 70
     9
  9
$DWGCODEPAGE
  3
ANSI_1252
  9
$TEXTSTYLE
  7
STANDARD
  9
$DIMSTYLE
  2
STANDARD
  9
$DIMTXSTY
  7
STANDARD
  9
$CMLSTYLE
  2
STANDARD
  9
$LUNITS
 70
2
  9
$INSUNITS
 70
4
  9
$PEXTMAX
 10
50
 20
50
 30
50
  9
$PEXTMIN
 10
0
 20
0
 30
0
  9
$HANDSEED
  5
FFFF
  0
ENDSEC
  0
SECTION
  2
CLASSES
  0
CLASS
  1
ACDBDICTIONARYWDFLT
  2
AcDbDictionaryWithDefault
  3
ObjectDBX Classes
 90
        0
280
     0
281
     0
  0
CLASS
  1
XRECORD
  2
AcDbXrecord
  3
ObjectDBX Classes
 90
        0
280
     0
281
     0
  0
CLASS
  1
LWPOLYLINE
  2
AcDbPolyline
  3
ObjectDBX Classes
 90
        0
280
     0
281
     1
  0
ENDSEC
  0
SECTION
  2
TABLES
  0
TABLE
  2
VPORT
  5
20
330
0
100
AcDbSymbolTable
 70
     1
  0
VPORT
  5
21
330
20
100
AcDbSymbolTableRecord
100
AcDbViewportTableRecord
  2
*ACTIVE
 70
     0
  0
ENDTAB
  0
TABLE
  2
LTYPE
  5
22
330
0
100
AcDbSymbolTable
 70
     1
  0
LTYPE
  5
23
330
21
100
AcDbSymbolTableRecord
100
AcDbLinetypeTableRecord
  2
BYBLOCK
 70
     0
  3

 72
    65
 73
     0
 40
0.0
  0
LTYPE
  5
24
330
21
100
AcDbSymbolTableRecord
100
AcDbLinetypeTableRecord
  2
BYLAYER
 70
     0
  3

 72
    65
 73
     0
 40
0.0
  0
LTYPE
  5
25
330
21
100
AcDbSymbolTableRecord
100
AcDbLinetypeTableRecord
  2
CONTINUOUS
 70
     0
  3
Solid line
 72
    65
 73
     0
 40
0.0
  0
ENDTAB
  0
TABLE
  2
LAYER
  5
ACE
330
0
100
AcDbSymbolTable
 70
3
  0
LAYER
  5
ACF
330
ACE
100
AcDbSymbolTableRecord
100
AcDbLayerTableRecord
  2
0
 70
   0
 62
   7
  6
CONTINUOUS
  0
LAYER
  5
AD0
330
ACE
100
AcDbSymbolTableRecord
100
AcDbLayerTableRecord
  2
none
 70
    0
 62
    7
  6
CONTINUOUS
  0
LAYER
  5
AD1
330
ACE
100
AcDbSymbolTableRecord
100
AcDbLayerTableRecord
  2
f
 70
    0
 62
    7
  6
CONTINUOUS
  0
ENDTAB
  0
TABLE
  2
STYLE
  5
70
330
0
100
AcDbSymbolTable
 70
     2
  0
STYLE
  5
71
330
70
100
AcDbSymbolTableRecord
100
AcDbTextStyleTableRecord
  2
STANDARD
 70
     0
 40
0.0
 41
1.0
 50
0.0
 71
     0
 42
2.5
  3
arial.ttf
  4

  0
STYLE
  5
72
330
70
100
AcDbSymbolTableRecord
100
AcDbTextStyleTableRecord
  2
ANNOTATIVE
 70
     0
 40
0.0
 41
1.0
 50
0.0
 71
     0
 42
2.5
  3
arial.ttf
  4

  0
ENDTAB
  0
TABLE
  2
VIEW
  5
73
330
0
100
AcDbSymbolTable
 70
     0
  0
ENDTAB
  0
TABLE
  2
UCS
  5
74
330
0
100
AcDbSymbolTable
 70
     0
  0
ENDTAB
  0
TABLE
  2
APPID
  5
75
330
0
100
AcDbSymbolTable
 70
     2
  0
APPID
  5
76
330
75
100
AcDbSymbolTableRecord
100
AcDbRegAppTableRecord
  2
ACAD
 70
     0
  0
APPID
  5
77
330
75
100
AcDbSymbolTableRecord
100
AcDbRegAppTableRecord
  2
ACADANNOTATIVE
 70
     0
  0
ENDTAB
  0
TABLE
  2
DIMSTYLE
  5
78
330
0
100
AcDbSymbolTable
 70
     2
  0
DIMSTYLE
105
79
330
78
100
AcDbSymbolTableRecord
100
AcDbDimStyleTableRecord
  2
STANDARD
 70
     0
  3

  4

  5

  6

  7

 40
0.0
 41
2.5
 42
0.625
 43
3.75
 44
1.25
 45
0.0
 46
0.0
 47
0.0
 48
0.0
140
2.5
141
2.5
142
0.0
143
0.03937007874016
144
1.0
145
0.0
146
1.0
147
0.625
 71
     0
 72
     0
 73
     0
 74
     0
 75
     0
 76
     0
 77
     1
 78
     8
170
     0
171
     3
172
     1
173
     0
174
     0
175
     0
176
     0
177
     0
178
     0
270
     2
271
     2
272
     2
273
     2
274
     3
340
71
275
     0
280
     0
281
     0
282
     0
283
     0
284
     8
285
     0
286
     0
287
     3
288
     0
  0
ENDTAB
  0
TABLE
  2
BLOCK_RECORD
  5
A01
330
0
100
AcDbSymbolTable
  70
5
  0
BLOCK_RECORD
  5
A02
330
A01
100
AcDbSymbolTableRecord
100
AcDbBlockTableRecord
  2
*MODEL_SPACE
  0
BLOCK_RECORD
  5
A03
330
A01
100
AcDbSymbolTableRecord
100
AcDbBlockTableRecord
  2
*PAPER_SPACE
  0
ENDTAB
  0
ENDSEC
  0
SECTION
  2
BLOCKS
  0
BLOCK
  5
A04
330
A02
100
AcDbEntity
  8
0
100
AcDbBlockBegin
  2
*MODEL_SPACE
 70
   0
 10
0
 20
0
 30
0
  3
*MODEL_SPACE
  1
 
  0
ENDBLK
  5
A05
330
A02
100
AcDbEntity
  8
0
100
AcDbBlockEnd
  0
BLOCK
  5
A06
330
A03
100
AcDbEntity
 67
1
  8
0
100
AcDbBlockBegin
  2
*PAPER_SPACE
 70
   0
 10
0
 20
0
 30
0
  3
*PAPER_SPACE
  1
 
  0
ENDBLK
  5
A07
330
A03
100
AcDbEntity
 67
    1
  8
0
100
AcDbBlockEnd
  0
ENDSEC
  0
SECTION
  2
ENTITIES
  0
LINE
  5
A08
330
A02
100
AcDbEntity
  8
f
100
AcDbLine
 10
513.196164833
 20
-89.220361920
 30
-282.597015985
 11
513.196206118
 21
303.779583766
 31
-282.597015985
  0
LINE
  5
A09
330
A02
100
AcDbEntity
  8
f
100
AcDbLine
 10
508.196651047
 20
-89.220361920
 30
-282.597015757
 11
513.196164833
 21
-89.220361920
 31
-282.597015985
  0
ARC
  5
A0A
330
A02
100
AcDbEntity
  8
f
100
AcDbCircle
 10
508.196651057
 20
-91.220361919
 30
-282.597015757
 40
2.000000000
100
AcDbArc
 50
90.000000298
 51
-90.000000707
  0
LINE
  5
A0B
330
A02
100
AcDbEntity
  8
f
100
AcDbLine
 10
508.196651047
 20
-136.720361446
 30
-282.597015757
 11
508.196651047
 21
-93.220361919
 31
-282.597015757
  0
LINE
  5
A0C
330
A02
100
AcDbEntity
  8
f
100
AcDbLine
 10
464.696651097
 20
-136.720361920
 30
-282.597013768
 11
508.196651047
 21
-136.720361920
 31
-282.597015757
  0
ARC
  5
A0D
330
A02
100
AcDbEntity
  8
f
100
AcDbCircle
 10
462.696651097
 20
-136.720361919
 30
-282.597013677
 40
2.000000000
100
AcDbArc
 50
0.000000000
 51
180.000000000
  0
LINE
  5
A0E
330
A02
100
AcDbEntity
  8
f
100
AcDbLine
 10
460.696651047
 20
-141.720359756
 30
-282.597013585
 11
460.696651047
 21
-136.720361920
 31
-282.597013585
  0
LINE
  5
A0F
330
A02
100
AcDbEntity
  8
f
100
AcDbLine
 10
67.696705361
 20
-141.720318471
 30
-282.596995617
 11
460.696651047
 21
-141.720359756
 31
-282.597013585
  0
LINE
  5
A10
330
A02
100
AcDbEntity
  8
f
100
AcDbLine
 10
67.696705361
 20
-136.720804685
 30
-282.596995618
 11
67.696705361
 21
-141.720318471
 31
-282.596995618
  0
ARC
  5
A11
330
A02
100
AcDbEntity
  8
f
100
AcDbCircle
 10
65.696705361
 20
-136.720804695
 30
-282.596995527
 40
2.000000000
100
AcDbArc
 50
0.000000298
 51
179.999999293
  0
LINE
  5
A12
330
A02
100
AcDbEntity
  8
f
100
AcDbLine
 10
20.196705834
 20
-136.720804685
 30
-282.596993447
 11
63.696705361
 21
-136.720804685
 31
-282.596995435
  0
LINE
  5
A13
330
A02
100
AcDbEntity
  8
f
100
AcDbLine
 10
20.196705361
 20
-93.220804735
 30
-282.596993447
 11
20.196705361
 21
-136.720804685
 31
-282.596993447
  0
ARC
  5
A14
330
A02
100
AcDbEntity
  8
f
100
AcDbCircle
 10
20.196705361
 20
-91.220804735
 30
-282.596993447
 40
2.000000000
100
AcDbArc
 50
-90.000000000
 51
90.000000000
  0
LINE
  5
A15
330
A02
100
AcDbEntity
  8
f
100
AcDbLine
 10
15.196707524
 20
-89.220804685
 30
-282.596993218
 11
20.196705361
 21
-89.220804685
 31
-282.596993447
  0
LINE
  5
A16
330
A02
100
AcDbEntity
  8
f
100
AcDbLine
 10
15.196748810
 20
303.779141001
 30
-282.596993217
 11
15.196707525
 21
-89.220804685
 31
-282.596993217
  0
LINE
  5
A17
330
A02
100
AcDbEntity
  8
f
100
AcDbLine
 10
20.196262596
 20
303.779141001
 30
-282.596993446
 11
15.196748810
 21
303.779141001
 31
-282.596993218
  0
ARC
  5
A18
330
A02
100
AcDbEntity
  8
f
100
AcDbCircle
 10
20.196262586
 20
305.779141001
 30
-282.596993446
 40
2.000000000
100
AcDbArc
 50
-89.999999702
 51
89.999999293
  0
LINE
  5
A19
330
A02
100
AcDbEntity
  8
f
100
AcDbLine
 10
20.196262596
 20
351.279140528
 30
-282.596993446
 11
20.196262596
 21
307.779141001
 31
-282.596993446
  0
LINE
  5
A1A
330
A02
100
AcDbEntity
  8
f
100
AcDbLine
 10
63.696262546
 20
351.279141001
 30
-282.596995435
 11
20.196262596
 21
351.279141001
 31
-282.596993446
  0
ARC
  5
A1B
330
A02
100
AcDbEntity
  8
f
100
AcDbCircle
 10
65.696262546
 20
351.279141001
 30
-282.596995527
 40
2.000000000
100
AcDbArc
 50
180.000000000
 51
0.000000000
  0
LINE
  5
A1C
330
A02
100
AcDbEntity
  8
f
100
AcDbLine
 10
67.696262596
 20
356.279138838
 30
-282.596995618
 11
67.696262596
 21
351.279141001
 31
-282.596995618
  0
LINE
  5
A1D
330
A02
100
AcDbEntity
  8
f
100
AcDbLine
 10
460.696208282
 20
356.279097553
 30
-282.597013585
 11
67.696262596
 21
356.279138838
 31
-282.596995617
  0
LINE
  5
A1E
330
A02
100
AcDbEntity
  8
f
100
AcDbLine
 10
460.696208282
 20
351.279583766
 30
-282.597013585
 11
460.696208282
 21
356.279097553
 31
-282.597013585
  0
ARC
  5
A1F
330
A02
100
AcDbEntity
  8
f
100
AcDbCircle
 10
462.696208282
 20
351.279583777
 30
-282.597013677
 40
2.000000000
100
AcDbArc
 50
-179.999999702
 51
-0.000000707
  0
LINE
  5
A20
330
A02
100
AcDbEntity
  8
f
100
AcDbLine
 10
508.196207809
 20
351.279583766
 30
-282.597015757
 11
464.696208282
 21
351.279583766
 31
-282.597013768
  0
LINE
  5
A21
330
A02
100
AcDbEntity
  8
f
100
AcDbLine
 10
508.196208282
 20
307.779583817
 30
-282.597015757
 11
508.196208282
 21
351.279583766
 31
-282.597015757
  0
ARC
  5
A22
330
A02
100
AcDbEntity
  8
f
100
AcDbCircle
 10
508.196208282
 20
305.779583817
 30
-282.597015757
 40
2.000000000
100
AcDbArc
 50
90.000000000
 51
-90.000000000
  0
LINE
  5
A23
330
A02
100
AcDbEntity
  8
f
100
AcDbLine
 10
513.196206119
 20
303.779583766
 30
-282.597015985
 11
508.196208282
 21
303.779583766
 31
-282.597015757
  0
CIRCLE
  5
A24
330
A02
100
AcDbEntity
  8
f
100
AcDbCircle
 10
387.513376813
 20
288.002310973
 30
-282.597010240
 40
1.750000000
  0
CIRCLE
  5
A25
330
A02
100
AcDbEntity
  8
f
100
AcDbCircle
 10
83.473535390
 20
230.596309533
 30
-282.596996339
 40
1.750000000
  0
CIRCLE
  5
A26
330
A02
100
AcDbEntity
  8
f
100
AcDbCircle
 10
140.879536830
 20
-73.443531891
 30
-282.596998964
 40
1.750000000
  0
CIRCLE
  5
A27
330
A02
100
AcDbEntity
  8
f
100
AcDbCircle
 10
444.919378253
 20
-16.037530451
 30
-282.597012864
 40
1.750000000
  0
LINE
  5
A28
330
A02
100
AcDbEntity
  8
f
100
AcDbLine
 10
264.186936465
 20
-101.720349313
 30
-282.597004601
 11
346.267776648
 21
-101.720358387
 31
-282.597008354
  0
ARC
  5
A29
330
A02
100
AcDbEntity
  8
f
100
AcDbCircle
 10
346.267777201
 20
-96.720358387
 30
-282.597008354
 40
5.000000000
100
AcDbArc
 50
-90.000006334
 51
45.000000000
  0
LINE
  5
A2A
330
A02
100
AcDbEntity
  8
f
100
AcDbLine
 10
349.803311107
 20
-93.184824482
 30
-282.597008515
 11
294.780741533
 21
-38.162254908
 31
-282.597006000
  0
ARC
  5
A2B
330
A02
100
AcDbEntity
  8
f
100
AcDbCircle
 10
291.245207627
 20
-41.697788814
 30
-282.597005838
 40
5.000000000
100
AcDbArc
 50
45.000000000
 51
135.000000000
  0
LINE
  5
A2C
330
A02
100
AcDbEntity
  8
f
100
AcDbLine
 10
260.651406204
 20
-65.220522426
 30
-282.597004440
 11
287.709673721
 21
-38.162254908
 31
-282.597005677
  0
ARC
  5
A2D
330
A02
100
AcDbEntity
  8
f
100
AcDbCircle
 10
264.186940110
 20
-68.756056331
 30
-282.597004601
 40
5.000000000
100
AcDbArc
 50
135.000000000
 51
179.999993666
  0
LINE
  5
A2E
330
A02
100
AcDbEntity
  8
f
100
AcDbLine
 10
259.186937018
 20
-96.720348760
 30
-282.597004373
 11
259.186940110
 21
-68.756055779
 31
-282.597004373
  0
ARC
  5
A2F
330
A02
100
AcDbEntity
  8
f
100
AcDbCircle
 10
264.186937018
 20
-96.720349313
 30
-282.597004601
 40
5.000000000
100
AcDbArc
 50
179.999993666
 51
-90.000006334
  0
ARC
  5
A30
330
A02
100
AcDbEntity
  8
f
100
AcDbCircle
 10
227.138424411
 20
-51.707539717
 30
-282.597002907
 40
5.000000000
100
AcDbArc
 50
45.000000000
 51
135.000000000
  0
LINE
  5
A31
330
A02
100
AcDbEntity
  8
f
100
AcDbLine
 10
223.602890505
 20
-48.172005811
 30
-282.597002746
 11
178.590089982
 21
-93.184806335
 31
-282.597000688
  0
ARC
  5
A32
330
A02
100
AcDbEntity
  8
f
100
AcDbCircle
 10
182.125623888
 20
-96.720340241
 30
-282.597000850
 40
5.000000000
100
AcDbArc
 50
135.000000000
 51
-90.000006334
  0
LINE
  5
A33
330
A02
100
AcDbEntity
  8
f
100
AcDbLine
 10
182.125623335
 20
-101.720340241
 30
-282.597000850
 11
244.186936465
 21
-101.720347102
 31
-282.597003687
  0
ARC
  5
A34
330
A02
100
AcDbEntity
  8
f
100
AcDbCircle
 10
244.186937018
 20
-96.720347102
 30
-282.597003687
 40
5.000000000
100
AcDbArc
 50
-90.000006334
 51
-0.000006334
  0
LINE
  5
A35
330
A02
100
AcDbEntity
  8
f
100
AcDbLine
 10
249.186940110
 20
-68.756055968
 30
-282.597003915
 11
249.186937018
 21
-96.720347655
 31
-282.597003915
  0
ARC
  5
A36
330
A02
100
AcDbEntity
  8
f
100
AcDbCircle
 10
244.186940110
 20
-68.756055416
 30
-282.597003687
 40
5.000000000
100
AcDbArc
 50
-0.000006334
 51
45.000000000
  0
LINE
  5
A37
330
A02
100
AcDbEntity
  8
f
100
AcDbLine
 10
230.673958317
 20
-48.172005811
 30
-282.597003069
 11
247.722474016
 21
-65.220521510
 31
-282.597003849
  0
ARC
  5
A38
330
A02
100
AcDbEntity
  8
f
100
AcDbCircle
 10
291.120575572
 20
172.279635475
 30
-282.597005833
 40
10.000000000
100
AcDbArc
 50
44.999993666
 51
89.999993666
  0
LINE
  5
A39
330
A02
100
AcDbEntity
  8
f
100
AcDbLine
 10
237.272813570
 20
182.279641429
 30
-282.597003371
 11
291.120576678
 21
182.279635475
 31
-282.597005833
  0
ARC
  5
A3A
330
A02
100
AcDbEntity
  8
f
100
AcDbCircle
 10
237.272812464
 20
172.279641429
 30
-282.597003371
 40
10.000000000
100
AcDbArc
 50
89.999993666
 51
134.999993666
  0
LINE
  5
A3B
330
A02
100
AcDbEntity
  8
f
100
AcDbLine
 10
192.125622779
 20
141.274595786
 30
-282.597001307
 11
230.201745434
 21
179.350710022
 31
-282.597003048
  0
ARC
  5
A3C
330
A02
100
AcDbEntity
  8
f
100
AcDbCircle
 10
199.196689809
 20
134.203527192
 30
-282.597001630
 40
10.000000000
100
AcDbArc
 50
134.999993666
 51
179.999993666
  0
LINE
  5
A3D
330
A02
100
AcDbEntity
  8
f
100
AcDbLine
 10
189.196683855
 20
80.355765189
 30
-282.597001173
 11
189.196689809
 21
134.203528298
 31
-282.597001173
  0
ARC
  5
A3E
330
A02
100
AcDbEntity
  8
f
100
AcDbCircle
 10
199.196683855
 20
80.355764084
 30
-282.597001630
 40
10.000000000
100
AcDbArc
 50
179.999993666
 51
-135.000006334
  0
LINE
  5
A3F
330
A02
100
AcDbEntity
  8
f
100
AcDbLine
 10
230.201729498
 20
35.208574398
 30
-282.597003048
 11
192.125615262
 21
73.284697054
 31
-282.597001307
  0
ARC
  5
A40
330
A02
100
AcDbEntity
  8
f
100
AcDbCircle
 10
237.272798092
 20
42.279641429
 30
-282.597003371
 40
10.000000000
100
AcDbArc
 50
-135.000006334
 51
-90.000006334
  0
LINE
  5
A41
330
A02
100
AcDbEntity
  8
f
100
AcDbLine
 10
291.120560095
 20
32.279635475
 30
-282.597005833
 11
237.272796986
 21
32.279641429
 31
-282.597003371
  0
ARC
  5
A42
330
A02
100
AcDbEntity
  8
f
100
AcDbCircle
 10
291.120561200
 20
42.279635475
 30
-282.597005833
 40
10.000000000
100
AcDbArc
 50
-90.000006334
 51
-45.000006334
  0
LINE
  5
A43
330
A02
100
AcDbEntity
  8
f
100
AcDbLine
 10
336.267750886
 20
73.284681118
 30
-282.597007897
 11
298.191628230
 21
35.208566882
 31
-282.597006156
  0
ARC
  5
A44
330
A02
100
AcDbEntity
  8
f
100
AcDbCircle
 10
329.196683855
 20
80.355749712
 30
-282.597007573
 40
10.000000000
100
AcDbArc
 50
-45.000006334
 51
-0.000006334
  0
LINE
  5
A45
330
A02
100
AcDbEntity
  8
f
100
AcDbLine
 10
339.196689809
 20
134.203511714
 30
-282.597008031
 11
339.196683855
 21
80.355748606
 31
-282.597008031
  0
ARC
  5
A46
330
A02
100
AcDbEntity
  8
f
100
AcDbCircle
 10
329.196689809
 20
134.203512820
 30
-282.597007573
 40
10.000000000
100
AcDbArc
 50
-0.000006334
 51
44.999993666
  0
LINE
  5
A47
330
A02
100
AcDbEntity
  8
f
100
AcDbLine
 10
298.191644166
 20
179.350702505
 30
-282.597006156
 11
336.267758402
 21
141.274579850
 31
-282.597007897
  0
CIRCLE
  5
A48
330
A02
100
AcDbEntity
  8
f
100
AcDbCircle
 10
361.196451152
 20
107.279055312
 30
-282.597009036
 40
1.750000000
  0
CIRCLE
  5
A49
330
A02
100
AcDbEntity
  8
f
100
AcDbCircle
 10
264.196775404
 20
204.279382738
 30
-282.597004602
 40
1.750000000
  0
CIRCLE
  5
A4A
330
A02
100
AcDbEntity
  8
f
100
AcDbCircle
 10
332.786038426
 20
175.868509463
 30
-282.597007737
 40
1.750000000
  0
CIRCLE
  5
A4B
330
A02
100
AcDbEntity
  8
f
100
AcDbCircle
 10
332.785576999
 20
38.689792290
 30
-282.597007737
 40
1.750000000
  0
CIRCLE
  5
A4C
330
A02
100
AcDbEntity
  8
f
100
AcDbCircle
 10
264.196122847
 20
10.279380443
 30
-282.597004602
 40
1.750000000
  0
CIRCLE
  5
A4D
330
A02
100
AcDbEntity
  8
f
100
AcDbCircle
 10
195.606859826
 20
38.690253717
 30
-282.597001466
 40
1.750000000
  0
CIRCLE
  5
A4E
330
A02
100
AcDbEntity
  8
f
100
AcDbCircle
 10
167.196447978
 20
107.279707869
 30
-282.597000167
 40
1.750000000
  0
CIRCLE
  5
A4F
330
A02
100
AcDbEntity
  8
f
100
AcDbCircle
 10
195.607321253
 20
175.868970890
 30
-282.597001466
 40
1.750000000
  0
ARC
  5
A50
330
A02
100
AcDbEntity
  8
f
100
AcDbCircle
 10
213.426410547
 20
169.505008320
 30
-282.597002281
 40
2.000000000
100
AcDbArc
 50
-135.000012669
 51
45.000000000
  0
LINE
  5
A51
330
A02
100
AcDbEntity
  8
f
100
AcDbLine
 10
214.840624110
 20
170.919221883
 30
-282.597002345
 11
211.163669254
 21
174.596177551
 31
-282.597002177
  0
ARC
  5
A52
330
A02
100
AcDbEntity
  8
f
100
AcDbCircle
 10
209.749455692
 20
173.181963989
 30
-282.597002112
 40
2.000000000
100
AcDbArc
 50
45.000000000
 51
-135.000012669
  0
LINE
  5
A53
330
A02
100
AcDbEntity
  8
f
100
AcDbLine
 10
208.335241817
 20
171.767750739
 30
-282.597002048
 11
199.708538133
 21
163.141048963
 31
-282.597001653
  0
ARC
  5
A54
330
A02
100
AcDbEntity
  8
f
100
AcDbCircle
 10
198.294324257
 20
161.726835713
 30
-282.597001589
 40
2.000000000
100
AcDbArc
 50
44.999987331
 51
-135.000000000
  0
LINE
  5
A55
330
A02
100
AcDbEntity
  8
f
100
AcDbLine
 10
196.880110695
 20
160.312622151
 30
-282.597001524
 11
200.557065551
 21
156.635666482
 31
-282.597001692
  0
ARC
  5
A56
330
A02
100
AcDbEntity
  8
f
100
AcDbCircle
 10
201.971279113
 20
158.049880044
 30
-282.597001757
 40
2.000000000
100
AcDbArc
 50
-135.000000000
 51
44.999987331
  0
LINE
  5
A57
330
A02
100
AcDbEntity
  8
f
100
AcDbLine
 10
203.385492988
 20
159.464093294
 30
-282.597001822
 11
212.012196672
 21
168.090795071
 31
-282.597002216
  0
ARC
  5
A58
330
A02
100
AcDbEntity
  8
f
100
AcDbCircle
 10
184.296447941
 20
115.379705655
 30
-282.597000949
 40
2.000000000
100
AcDbArc
 50
-90.000012669
 51
90.000000000
  0
LINE
  5
A59
330
A02
100
AcDbEntity
  8
f
100
AcDbLine
 10
184.296447941
 20
117.379705655
 30
-282.597000949
 11
179.096447941
 21
117.379706230
 31
-282.597000711
  0
ARC
  5
A5A
330
A02
100
AcDbEntity
  8
f
100
AcDbCircle
 10
179.096447941
 20
115.379706230
 30
-282.597000711
 40
2.000000000
100
AcDbArc
 50
90.000000000
 51
-90.000012669
  0
LINE
  5
A5B
330
A02
100
AcDbEntity
  8
f
100
AcDbLine
 10
179.096447499
 20
113.379706230
 30
-282.597000711
 11
179.096446150
 21
101.179706230
 31
-282.597000711
  0
ARC
  5
A5C
330
A02
100
AcDbEntity
  8
f
100
AcDbCircle
 10
179.096445708
 20
99.179706230
 30
-282.597000711
 40
2.000000000
100
AcDbArc
 50
89.999987331
 51
-90.000000000
  0
LINE
  5
A5D
330
A02
100
AcDbEntity
  8
f
100
AcDbLine
 10
179.096445708
 20
97.179706230
 30
-282.597000711
 11
184.296445708
 21
97.179705655
 31
-282.597000949
  0
ARC
  5
A5E
330
A02
100
AcDbEntity
  8
f
100
AcDbCircle
 10
184.296445708
 20
99.179705655
 30
-282.597000949
 40
2.000000000
100
AcDbArc
 50
-90.000000000
 51
89.999987331
  0
LINE
  5
A5F
330
A02
100
AcDbEntity
  8
f
100
AcDbLine
 10
184.296446150
 20
101.179705655
 30
-282.597000949
 11
184.296447499
 21
113.379705655
 31
-282.597000949
  0
ARC
  5
A60
330
A02
100
AcDbEntity
  8
f
100
AcDbCircle
 10
201.970822396
 20
56.509343012
 30
-282.597001757
 40
2.000000000
100
AcDbArc
 50
-45.000012669
 51
135.000000000
  0
LINE
  5
A61
330
A02
100
AcDbEntity
  8
f
100
AcDbLine
 10
200.556608833
 20
57.923556574
 30
-282.597001692
 11
196.879653165
 21
54.246601719
 31
-282.597001524
  0
ARC
  5
A62
330
A02
100
AcDbEntity
  8
f
100
AcDbCircle
 10
198.293866727
 20
52.832388156
 30
-282.597001589
 40
2.000000000
100
AcDbArc
 50
135.000000000
 51
-45.000012669
  0
LINE
  5
A63
330
A02
100
AcDbEntity
  8
f
100
AcDbLine
 10
199.708079977
 20
51.418174281
 30
-282.597001653
 11
208.334781753
 21
42.791470597
 31
-282.597002048
  0
ARC
  5
A64
330
A02
100
AcDbEntity
  8
f
100
AcDbCircle
 10
209.748995003
 20
41.377256722
 30
-282.597002112
 40
2.000000000
100
AcDbArc
 50
134.999987331
 51
-45.000000000
  0
LINE
  5
A65
330
A02
100
AcDbEntity
  8
f
100
AcDbLine
 10
211.163208565
 20
39.963043160
 30
-282.597002177
 11
214.840164234
 21
43.639998015
 31
-282.597002345
  0
ARC
  5
A66
330
A02
100
AcDbEntity
  8
f
100
AcDbCircle
 10
213.425950672
 20
45.054211578
 30
-282.597002281
 40
2.000000000
100
AcDbArc
 50
-45.000000000
 51
134.999987331
  0
LINE
  5
A67
330
A02
100
AcDbEntity
  8
f
100
AcDbLine
 10
212.011737422
 20
46.468425453
 30
-282.597002216
 11
203.385035645
 21
55.095129137
 31
-282.597001822
  0
ARC
  5
A68
330
A02
100
AcDbEntity
  8
f
100
AcDbCircle
 10
256.096125061
 20
27.379380406
 30
-282.597004231
 40
2.000000000
100
AcDbArc
 50
-0.000012669
 51
180.000000000
  0
LINE
  5
A69
330
A02
100
AcDbEntity
  8
f
100
AcDbLine
 10
254.096125061
 20
27.379380406
 30
-282.597004140
 11
254.096124486
 21
22.179380406
 31
-282.597004140
  0
ARC
  5
A6A
330
A02
100
AcDbEntity
  8
f
100
AcDbCircle
 10
256.096124486
 20
22.179380406
 30
-282.597004231
 40
2.000000000
100
AcDbArc
 50
180.000000000
 51
-0.000012669
  0
LINE
  5
A6B
330
A02
100
AcDbEntity
  8
f
100
AcDbLine
 10
258.096124486
 20
22.179379964
 30
-282.597004323
 11
270.296124486
 21
22.179378615
 31
-282.597004881
  0
ARC
  5
A6C
330
A02
100
AcDbEntity
  8
f
100
AcDbCircle
 10
272.296124486
 20
22.179378173
 30
-282.597004972
 40
2.000000000
100
AcDbArc
 50
179.999987331
 51
0.000000000
  0
LINE
  5
A6D
330
A02
100
AcDbEntity
  8
f
100
AcDbLine
 10
274.296124486
 20
22.179378173
 30
-282.597005063
 11
274.296125061
 21
27.379378173
 31
-282.597005063
  0
ARC
  5
A6E
330
A02
100
AcDbEntity
  8
f
100
AcDbCircle
 10
272.296125061
 20
27.379378173
 30
-282.597004972
 40
2.000000000
100
AcDbArc
 50
0.000000000
 51
179.999987331
  0
LINE
  5
A6F
330
A02
100
AcDbEntity
  8
f
100
AcDbLine
 10
270.296125061
 20
27.379378615
 30
-282.597004881
 11
258.096125061
 21
27.379379964
 31
-282.597004323
  0
ARC
  5
A70
330
A02
100
AcDbEntity
  8
f
100
AcDbCircle
 10
314.966487704
 20
45.053754860
 30
-282.597006923
 40
2.000000000
100
AcDbArc
 50
44.999987331
 51
-135.000000000
  0
LINE
  5
A71
330
A02
100
AcDbEntity
  8
f
100
AcDbLine
 10
313.552274142
 20
43.639541298
 30
-282.597006858
 11
317.229228997
 21
39.962585629
 31
-282.597007026
  0
ARC
  5
A72
330
A02
100
AcDbEntity
  8
f
100
AcDbCircle
 10
318.643442560
 20
41.376799191
 30
-282.597007091
 40
2.000000000
100
AcDbArc
 50
-135.000000000
 51
44.999987331
  0
LINE
  5
A73
330
A02
100
AcDbEntity
  8
f
100
AcDbLine
 10
320.057656435
 20
42.791012441
 30
-282.597007156
 11
328.684360119
 21
51.417714218
 31
-282.597007550
  0
ARC
  5
A74
330
A02
100
AcDbEntity
  8
f
100
AcDbCircle
 10
330.098573994
 20
52.831927468
 30
-282.597007615
 40
2.000000000
100
AcDbArc
 50
-135.000012669
 51
45.000000000
  0
LINE
  5
A75
330
A02
100
AcDbEntity
  8
f
100
AcDbLine
 10
331.512787556
 20
54.246141030
 30
-282.597007679
 11
327.835832701
 21
57.923096699
 31
-282.597007511
  0
ARC
  5
A76
330
A02
100
AcDbEntity
  8
f
100
AcDbCircle
 10
326.421619138
 20
56.508883136
 30
-282.597007447
 40
2.000000000
100
AcDbArc
 50
45.000000000
 51
-135.000012669
  0
LINE
  5
A77
330
A02
100
AcDbEntity
  8
f
100
AcDbLine
 10
325.007405263
 20
55.094669887
 30
-282.597007382
 11
316.380701579
 21
46.467968110
 31
-282.597006987
  0
ARC
  5
A78
330
A02
100
AcDbEntity
  8
f
100
AcDbCircle
 10
272.296773190
 20
187.179382775
 30
-282.597004972
 40
2.000000000
100
AcDbArc
 50
179.999987331
 51
0.000000000
  0
LINE
  5
A79
330
A02
100
AcDbEntity
  8
f
100
AcDbLine
 10
274.296773190
 20
187.179382775
 30
-282.597005063
 11
274.296773765
 21
192.379382775
 31
-282.597005063
  0
ARC
  5
A7A
330
A02
100
AcDbEntity
  8
f
100
AcDbCircle
 10
272.296773765
 20
192.379382775
 30
-282.597004972
 40
2.000000000
100
AcDbArc
 50
0.000000000
 51
179.999987331
  0
LINE
  5
A7B
330
A02
100
AcDbEntity
  8
f
100
AcDbLine
 10
270.296773765
 20
192.379383217
 30
-282.597004881
 11
258.096773765
 21
192.379384566
 31
-282.597004323
  0
ARC
  5
A7C
330
A02
100
AcDbEntity
  8
f
100
AcDbCircle
 10
256.096773765
 20
192.379385008
 30
-282.597004231
 40
2.000000000
100
AcDbArc
 50
-0.000012669
 51
180.000000000
  0
LINE
  5
A7D
330
A02
100
AcDbEntity
  8
f
100
AcDbLine
 10
254.096773765
 20
192.379385008
 30
-282.597004140
 11
254.096773190
 21
187.179385008
 31
-282.597004140
  0
ARC
  5
A7E
330
A02
100
AcDbEntity
  8
f
100
AcDbCircle
 10
256.096773190
 20
187.179385008
 30
-282.597004231
 40
2.000000000
100
AcDbArc
 50
180.000000000
 51
-0.000012669
  0
LINE
  5
A7F
330
A02
100
AcDbEntity
  8
f
100
AcDbLine
 10
258.096773190
 20
187.179384566
 30
-282.597004323
 11
270.296773190
 21
187.179383217
 31
-282.597004881
  0
ARC
  5
A80
330
A02
100
AcDbEntity
  8
f
100
AcDbCircle
 10
326.422075856
 20
158.049420169
 30
-282.597007447
 40
2.000000000
100
AcDbArc
 50
134.999987331
 51
-45.000000000
  0
LINE
  5
A81
330
A02
100
AcDbEntity
  8
f
100
AcDbLine
 10
327.836289418
 20
156.635206606
 30
-282.597007511
 11
331.513245087
 21
160.312161462
 31
-282.597007679
  0
ARC
  5
A82
330
A02
100
AcDbEntity
  8
f
100
AcDbCircle
 10
330.099031525
 20
161.726375024
 30
-282.597007615
 40
2.000000000
100
AcDbArc
 50
-45.000000000
 51
134.999987331
  0
LINE
  5
A83
330
A02
100
AcDbEntity
  8
f
100
AcDbLine
 10
328.684818275
 20
163.140588899
 30
-282.597007550
 11
320.058116498
 21
171.767292583
 31
-282.597007156
  0
ARC
  5
A84
330
A02
100
AcDbEntity
  8
f
100
AcDbCircle
 10
318.643903249
 20
173.181506459
 30
-282.597007091
 40
2.000000000
100
AcDbArc
 50
-45.000012669
 51
135.000000000
  0
LINE
  5
A85
330
A02
100
AcDbEntity
  8
f
100
AcDbLine
 10
317.229689686
 20
174.595720021
 30
-282.597007026
 11
313.552734017
 21
170.918765165
 31
-282.597006858
  0
ARC
  5
A86
330
A02
100
AcDbEntity
  8
f
100
AcDbCircle
 10
314.966947580
 20
169.504551603
 30
-282.597006923
 40
2.000000000
100
AcDbArc
 50
135.000000000
 51
-45.000012669
  0
LINE
  5
A87
330
A02
100
AcDbEntity
  8
f
100
AcDbLine
 10
316.381160829
 20
168.090337728
 30
-282.597006987
 11
325.007862606
 21
159.463634044
 31
-282.597007382
  0
ARC
  5
A88
330
A02
100
AcDbEntity
  8
f
100
AcDbCircle
 10
344.096450310
 20
99.179057526
 30
-282.597008255
 40
2.000000000
100
AcDbArc
 50
89.999987331
 51
-90.000000000
  0
LINE
  5
A89
330
A02
100
AcDbEntity
  8
f
100
AcDbLine
 10
344.096450310
 20
97.179057526
 30
-282.597008255
 11
349.296450310
 21
97.179056951
 31
-282.597008492
  0
ARC
  5
A8A
330
A02
100
AcDbEntity
  8
f
100
AcDbCircle
 10
349.296450310
 20
99.179056951
 30
-282.597008492
 40
2.000000000
100
AcDbArc
 50
-90.000000000
 51
89.999987331
  0
LINE
  5
A8B
330
A02
100
AcDbEntity
  8
f
100
AcDbLine
 10
349.296450752
 20
101.179056951
 30
-282.597008492
 11
349.296452101
 21
113.379056951
 31
-282.597008492
  0
ARC
  5
A8C
330
A02
100
AcDbEntity
  8
f
100
AcDbCircle
 10
349.296452543
 20
115.379056951
 30
-282.597008492
 40
2.000000000
100
AcDbArc
 50
-90.000012669
 51
90.000000000
  0
LINE
  5
A8D
330
A02
100
AcDbEntity
  8
f
100
AcDbLine
 10
349.296452543
 20
117.379056951
 30
-282.597008492
 11
344.096452543
 21
117.379057526
 31
-282.597008255
  0
ARC
  5
A8E
330
A02
100
AcDbEntity
  8
f
100
AcDbCircle
 10
344.096452543
 20
115.379057526
 30
-282.597008255
 40
2.000000000
100
AcDbArc
 50
90.000000000
 51
-90.000012669
  0
LINE
  5
A8F
330
A02
100
AcDbEntity
  8
f
100
AcDbLine
 10
344.096452101
 20
113.379057526
 30
-282.597008255
 11
344.096450752
 21
101.179057526
 31
-282.597008255
  0
CIRCLE
  5
A90
330
A02
100
AcDbEntity
  8
f
100
AcDbCircle
 10
254.186940568
 20
217.326080025
 30
-282.597004144
 40
1.750000000
  0
CIRCLE
  5
A91
330
A02
100
AcDbEntity
  8
f
100
AcDbCircle
 10
181.796940568
 20
92.866080025
 30
-282.597000835
 40
1.750000000
  0
CIRCLE
  5
A92
330
A02
100
AcDbEntity
  8
f
100
AcDbCircle
 10
49.716940568
 20
-64.613919975
 30
-282.596994796
 40
1.750000000
  0
CIRCLE
  5
A93
330
A02
100
AcDbEntity
  8
f
100
AcDbCircle
 10
26.856940568
 20
92.866080025
 30
-282.596993751
 40
1.750000000
  0
CIRCLE
  5
A94
330
A02
100
AcDbEntity
  8
f
100
AcDbCircle
 10
181.796940568
 20
217.326080025
 30
-282.597000835
 40
1.750000000
  0
CIRCLE
  5
A95
330
A02
100
AcDbEntity
  8
f
100
AcDbCircle
 10
181.796940568
 20
-64.613919975
 30
-282.597000835
 40
1.750000000
  0
CIRCLE
  5
A96
330
A02
100
AcDbEntity
  8
f
100
AcDbCircle
 10
26.856940568
 20
217.326080025
 30
-282.596993751
 40
1.750000000
  0
CIRCLE
  5
A97
330
A02
100
AcDbEntity
  8
f
100
AcDbCircle
 10
495.696895473
 20
-124.220665899
 30
-282.597015185
 40
2.250000000
  0
CIRCLE
  5
A98
330
A02
100
AcDbEntity
  8
f
100
AcDbCircle
 10
32.696401382
 20
-124.221049111
 30
-282.596994018
 40
2.250000000
  0
CIRCLE
  5
A99
330
A02
100
AcDbEntity
  8
f
100
AcDbCircle
 10
32.696018170
 20
338.779444980
 30
-282.596994018
 40
2.250000000
  0
CIRCLE
  5
A9A
330
A02
100
AcDbEntity
  8
f
100
AcDbCircle
 10
495.696512261
 20
338.779828193
 30
-282.597015185
 40
2.250000000
  0
LINE
  5
A9B
330
A02
100
AcDbEntity
  8
f
100
AcDbLine
 10
473.196186603
 20
25.208556055
 30
-282.597014157
 11
473.196204750
 21
189.350709367
 31
-282.597014157
  0
ARC
  5
A9C
330
A02
100
AcDbEntity
  8
f
100
AcDbCircle
 10
468.196204750
 20
189.350709920
 30
-282.597013928
 40
5.000000000
100
AcDbArc
 50
-0.000006334
 51
135.000000000
  0
LINE
  5
A9D
330
A02
100
AcDbEntity
  8
f
100
AcDbLine
 10
464.660670844
 20
192.886243826
 30
-282.597014090
 11
382.589585114
 21
110.815158096
 31
-282.597010338
  0
ARC
  5
A9E
330
A02
100
AcDbEntity
  8
f
100
AcDbCircle
 10
386.125119020
 20
107.279624190
 30
-282.597010176
 40
5.000000000
100
AcDbArc
 50
135.000000000
 51
-135.000000000
  0
LINE
  5
A9F
330
A02
100
AcDbEntity
  8
f
100
AcDbLine
 10
382.589585114
 20
103.744090284
 30
-282.597010338
 11
464.660652697
 21
21.673022701
 31
-282.597014090
  0
ARC
  5
AA0
330
A02
100
AcDbEntity
  8
f
100
AcDbCircle
 10
468.196186603
 20
25.208556607
 30
-282.597013928
 40
5.000000000
100
AcDbArc
 50
-135.000000000
 51
-0.000006334
  0
ARC
  5
AA1
330
A02
100
AcDbEntity
  8
f
100
AcDbCircle
 10
424.332234760
 20
162.457302679
 30
-282.597011923
 40
2.000000000
100
AcDbArc
 50
-45.000000000
 51
135.000000000
  0
LINE
  5
AA2
330
A02
100
AcDbEntity
  8
f
100
AcDbLine
 10
422.918021198
 20
163.871516241
 30
-282.597011858
 11
411.604312699
 21
152.557807742
 31
-282.597011341
  0
ARC
  5
AA3
330
A02
100
AcDbEntity
  8
f
100
AcDbCircle
 10
413.018526261
 20
151.143594180
 30
-282.597011406
 40
2.000000000
100
AcDbArc
 50
135.000000000
 51
-45.000000000
  0
LINE
  5
AA4
330
A02
100
AcDbEntity
  8
f
100
AcDbLine
 10
414.432739824
 20
149.729380618
 30
-282.597011470
 11
425.746448323
 21
161.043089117
 31
-282.597011987
  0
ARC
  5
AA5
330
A02
100
AcDbEntity
  8
f
100
AcDbCircle
 10
388.976895701
 20
127.101963620
 30
-282.597010306
 40
2.000000000
100
AcDbArc
 50
-45.000000000
 51
135.000000000
  0
LINE
  5
AA6
330
A02
100
AcDbEntity
  8
f
100
AcDbLine
 10
387.562682139
 20
128.516177182
 30
-282.597010242
 11
376.248973640
 21
117.202468683
 31
-282.597009725
  0
ARC
  5
AA7
330
A02
100
AcDbEntity
  8
f
100
AcDbCircle
 10
377.663187202
 20
115.788255121
 30
-282.597009789
 40
2.000000000
100
AcDbArc
 50
135.000000000
 51
-45.000000000
  0
LINE
  5
AA8
330
A02
100
AcDbEntity
  8
f
100
AcDbLine
 10
379.077400764
 20
114.374041558
 30
-282.597009854
 11
390.391109263
 21
125.687750057
 31
-282.597010371
  0
ARC
  5
AA9
330
A02
100
AcDbEntity
  8
f
100
AcDbCircle
 10
459.687573820
 20
197.812641738
 30
-282.597013539
 40
2.000000000
100
AcDbArc
 50
-45.000000000
 51
135.000000000
  0
LINE
  5
AAA
330
A02
100
AcDbEntity
  8
f
100
AcDbLine
 10
458.273360257
 20
199.226855301
 30
-282.597013475
 11
446.959651758
 21
187.913146802
 31
-282.597012957
  0
ARC
  5
AAB
330
A02
100
AcDbEntity
  8
f
100
AcDbCircle
 10
448.373865321
 20
186.498933239
 30
-282.597013022
 40
2.000000000
100
AcDbArc
 50
135.000000000
 51
-45.000000000
  0
LINE
  5
AAC
330
A02
100
AcDbEntity
  8
f
100
AcDbLine
 10
449.788078883
 20
185.084719677
 30
-282.597013087
 11
461.101787382
 21
196.398428176
 31
-282.597013604
  0
LINE
  5
AAD
330
A02
100
AcDbEntity
  8
f
100
AcDbLine
 10
390.391109263
 20
88.871498323
 30
-282.597010371
 11
379.077400764
 21
100.185206822
 31
-282.597009854
  0
ARC
  5
AAE
330
A02
100
AcDbEntity
  8
f
100
AcDbCircle
 10
377.663187202
 20
98.770993260
 30
-282.597009789
 40
2.000000000
100
AcDbArc
 50
45.000000000
 51
-135.000000000
  0
LINE
  5
AAF
330
A02
100
AcDbEntity
  8
f
100
AcDbLine
 10
376.248973640
 20
97.356779698
 30
-282.597009725
 11
387.562682139
 21
86.043071199
 31
-282.597010242
  0
ARC
  5
AB0
330
A02
100
AcDbEntity
  8
f
100
AcDbCircle
 10
388.976895701
 20
87.457284761
 30
-282.597010306
 40
2.000000000
100
AcDbArc
 50
-135.000000000
 51
45.000000000
  0
LINE
  5
AB1
330
A02
100
AcDbEntity
  8
f
100
AcDbLine
 10
461.101787382
 20
18.160820205
 30
-282.597013604
 11
449.788078883
 21
29.474528704
 31
-282.597013087
  0
ARC
  5
AB2
330
A02
100
AcDbEntity
  8
f
100
AcDbCircle
 10
448.373865321
 20
28.060315141
 30
-282.597013022
 40
2.000000000
100
AcDbArc
 50
45.000000000
 51
-135.000000000
  0
LINE
  5
AB3
330
A02
100
AcDbEntity
  8
f
100
AcDbLine
 10
446.959651758
 20
26.646101579
 30
-282.597012957
 11
458.273360257
 21
15.332393080
 31
-282.597013475
  0
ARC
  5
AB4
330
A02
100
AcDbEntity
  8
f
100
AcDbCircle
 10
459.687573820
 20
16.746606642
 30
-282.597013539
 40
2.000000000
100
AcDbArc
 50
-135.000000000
 51
45.000000000
  0
LINE
  5
AB5
330
A02
100
AcDbEntity
  8
f
100
AcDbLine
 10
425.746448323
 20
53.516159264
 30
-282.597011987
 11
414.432739824
 21
64.829867763
 31
-282.597011470
  0
ARC
  5
AB6
330
A02
100
AcDbEntity
  8
f
100
AcDbCircle
 10
413.018526261
 20
63.415654201
 30
-282.597011406
 40
2.000000000
100
AcDbArc
 50
45.000000000
 51
-135.000000000
  0
LINE
  5
AB7
330
A02
100
AcDbEntity
  8
f
100
AcDbLine
 10
411.604312699
 20
62.001440638
 30
-282.597011341
 11
422.918021198
 21
50.687732139
 31
-282.597011858
  0
ARC
  5
AB8
330
A02
100
AcDbEntity
  8
f
100
AcDbCircle
 10
424.332234760
 20
52.101945702
 30
-282.597011923
 40
2.000000000
100
AcDbArc
 50
-135.000000000
 51
45.000000000
  0
LINE
  5
AB9
330
A02
100
AcDbEntity
  8
f
100
AcDbLine
 10
145.803328529
 20
110.814688798
 30
-282.596999189
 11
63.732260946
 21
192.885756381
 31
-282.596995437
  0
ARC
  5
ABA
330
A02
100
AcDbEntity
  8
f
100
AcDbCircle
 10
60.196727040
 20
189.350222475
 30
-282.596995275
 40
5.000000000
100
AcDbArc
 50
45.000000000
 51
179.999993666
  0
LINE
  5
ABB
330
A02
100
AcDbEntity
  8
f
100
AcDbLine
 10
55.196727040
 20
189.350223027
 30
-282.596995047
 11
55.196708893
 21
25.208069715
 31
-282.596995047
  0
ARC
  5
ABC
330
A02
100
AcDbEntity
  8
f
100
AcDbCircle
 10
60.196708893
 20
25.208069162
 30
-282.596995275
 40
5.000000000
100
AcDbArc
 50
179.999993666
 51
-45.000000000
  0
LINE
  5
ABD
330
A02
100
AcDbEntity
  8
f
100
AcDbLine
 10
63.732242799
 20
21.672535256
 30
-282.596995437
 11
145.803328529
 21
103.743620986
 31
-282.596999189
  0
ARC
  5
ABE
330
A02
100
AcDbEntity
  8
f
100
AcDbCircle
 10
142.267794623
 20
107.279154892
 30
-282.596999027
 40
5.000000000
100
AcDbArc
 50
-45.000000000
 51
45.000000000
  0
LINE
  5
ABF
330
A02
100
AcDbEntity
  8
f
100
AcDbLine
 10
267.731756078
 20
225.672517834
 30
-282.597004763
 11
349.802823661
 21
307.743585417
 31
-282.597008515
  0
ARC
  5
AC0
330
A02
100
AcDbEntity
  8
f
100
AcDbCircle
 10
346.267289755
 20
311.279119322
 30
-282.597008354
 40
5.000000000
100
AcDbArc
 50
-45.000000000
 51
89.999993666
  0
LINE
  5
AC1
330
A02
100
AcDbEntity
  8
f
100
AcDbLine
 10
346.267290308
 20
316.279119322
 30
-282.597008354
 11
182.125136995
 21
316.279137469
 31
-282.597000850
  0
ARC
  5
AC2
330
A02
100
AcDbEntity
  8
f
100
AcDbCircle
 10
182.125136442
 20
311.279137469
 30
-282.597000850
 40
5.000000000
100
AcDbArc
 50
89.999993666
 51
-135.000000000
  0
LINE
  5
AC3
330
A02
100
AcDbEntity
  8
f
100
AcDbLine
 10
178.589602536
 20
307.743603563
 30
-282.597000688
 11
260.660688266
 21
225.672517834
 31
-282.597004440
  0
ARC
  5
AC4
330
A02
100
AcDbEntity
  8
f
100
AcDbCircle
 10
264.196222172
 20
229.208051740
 30
-282.597004602
 40
5.000000000
100
AcDbArc
 50
-135.000000000
 51
-45.000000000
  0
CIRCLE
  5
AC5
330
A02
100
AcDbEntity
  8
f
100
AcDbCircle
 10
254.186940568
 20
-64.613919975
 30
-282.597004144
 40
1.750000000
  0
ARC
  5
AC6
330
A02
100
AcDbEntity
  8
f
100
AcDbCircle
 10
277.103072003
 20
-27.555653190
 30
-282.597005192
 40
5.000000000
100
AcDbArc
 50
-45.000000000
 51
45.000000000
  0
LINE
  5
AC7
330
A02
100
AcDbEntity
  8
f
100
AcDbLine
 10
280.638605909
 20
-24.020119284
 30
-282.597005353
 11
267.732225377
 21
-11.113738752
 31
-282.597004763
  0
ARC
  5
AC8
330
A02
100
AcDbEntity
  8
f
100
AcDbCircle
 10
264.196691471
 20
-14.649272658
 30
-282.597004602
 40
5.000000000
100
AcDbArc
 50
45.000000000
 51
135.000000000
  0
LINE
  5
AC9
330
A02
100
AcDbEntity
  8
f
100
AcDbLine
 10
260.661157565
 20
-11.113738752
 30
-282.597004440
 11
237.745026129
 21
-34.029870188
 31
-282.597003392
  0
ARC
  5
ACA
330
A02
100
AcDbEntity
  8
f
100
AcDbCircle
 10
241.280560035
 20
-37.565404093
 30
-282.597003554
 40
5.000000000
100
AcDbArc
 50
135.000000000
 51
-135.000000000
  0
LINE
  5
ACB
330
A02
100
AcDbEntity
  8
f
100
AcDbLine
 10
250.651406662
 20
-54.007318532
 30
-282.597003982
 11
237.745026129
 21
-41.100937999
 31
-282.597003392
  0
ARC
  5
ACC
330
A02
100
AcDbEntity
  8
f
100
AcDbCircle
 10
254.186940568
 20
-50.471784626
 30
-282.597004144
 40
5.000000000
100
AcDbArc
 50
-135.000000000
 51
-45.000000000
  0
LINE
  5
ACD
330
A02
100
AcDbEntity
  8
f
100
AcDbLine
 10
280.638605909
 20
-31.091187096
 30
-282.597005353
 11
257.722474473
 21
-54.007318532
 31
-282.597004306
  0
ENDSEC
  0
SECTION
  2
OBJECTS
  0
DICTIONARY
  5
F000
330
0
100
AcDbDictionary
  3
ACAD_GROUP
350
F001
  0
DICTIONARY
  5
F001
330
F000
100
AcDbDictionary
  0
ENDSEC
  0
EOF