999
FreeCAD v1.1 20260928 (Git shallow)
  0
SECTION
  2
HEADER
  9
$ACADVER
  1
AC1014
  9
$ACADMAINTVER
 70
     9
  9
$DWGCODEPAGE
  3
ANSI_1252
  9
$TEXTSTYLE
  7
STANDARD
  9
$DIMSTYLE
  2
STANDARD
  9
$DIMTXSTY
  7
STANDARD
  9
$CMLSTYLE
  2
STANDARD
  9
$LUNITS
 70
2
  9
$INSUNITS
 70
4
  9
$PEXTMAX
 10
50
 20
50
 30
50
  9
$PEXTMIN
 10
0
 20
0
 30
0
  9
$HANDSEED
  5
FFFF
  0
ENDSEC
  0
SECTION
  2
CLASSES
  0
CLASS
  1
ACDBDICTIONARYWDFLT
  2
AcDbDictionaryWithDefault
  3
ObjectDBX Classes
 90
        0
280
     0
281
     0
  0
CLASS
  1
XRECORD
  2
AcDbXrecord
  3
ObjectDBX Classes
 90
        0
280
     0
281
     0
  0
CLASS
  1
LWPOLYLINE
  2
AcDbPolyline
  3
ObjectDBX Classes
 90
        0
280
     0
281
     1
  0
ENDSEC
  0
SECTION
  2
TABLES
  0
TABLE
  2
VPORT
  5
20
330
0
100
AcDbSymbolTable
 70
     1
  0
VPORT
  5
21
330
20
100
AcDbSymbolTableRecord
100
AcDbViewportTableRecord
  2
*ACTIVE
 70
     0
  0
ENDTAB
  0
TABLE
  2
LTYPE
  5
22
330
0
100
AcDbSymbolTable
 70
     1
  0
LTYPE
  5
23
330
21
100
AcDbSymbolTableRecord
100
AcDbLinetypeTableRecord
  2
BYBLOCK
 70
     0
  3

 72
    65
 73
     0
 40
0.0
  0
LTYPE
  5
24
330
21
100
AcDbSymbolTableRecord
100
AcDbLinetypeTableRecord
  2
BYLAYER
 70
     0
  3

 72
    65
 73
     0
 40
0.0
  0
LTYPE
  5
25
330
21
100
AcDbSymbolTableRecord
100
AcDbLinetypeTableRecord
  2
CONTINUOUS
 70
     0
  3
Solid line
 72
    65
 73
     0
 40
0.0
  0
ENDTAB
  0
TABLE
  2
LAYER
  5
B0D
330
0
100
AcDbSymbolTable
 70
3
  0
LAYER
  5
B0E
330
B0D
100
AcDbSymbolTableRecord
100
AcDbLayerTableRecord
  2
0
 70
   0
 62
   7
  6
CONTINUOUS
  0
LAYER
  5
B0F
330
B0D
100
AcDbSymbolTableRecord
100
AcDbLayerTableRecord
  2
none
 70
    0
 62
    7
  6
CONTINUOUS
  0
LAYER
  5
B10
330
B0D
100
AcDbSymbolTableRecord
100
AcDbLayerTableRecord
  2
f
 70
    0
 62
    7
  6
CONTINUOUS
  0
ENDTAB
  0
TABLE
  2
STYLE
  5
70
330
0
100
AcDbSymbolTable
 70
     2
  0
STYLE
  5
71
330
70
100
AcDbSymbolTableRecord
100
AcDbTextStyleTableRecord
  2
STANDARD
 70
     0
 40
0.0
 41
1.0
 50
0.0
 71
     0
 42
2.5
  3
arial.ttf
  4

  0
STYLE
  5
72
330
70
100
AcDbSymbolTableRecord
100
AcDbTextStyleTableRecord
  2
ANNOTATIVE
 70
     0
 40
0.0
 41
1.0
 50
0.0
 71
     0
 42
2.5
  3
arial.ttf
  4

  0
ENDTAB
  0
TABLE
  2
VIEW
  5
73
330
0
100
AcDbSymbolTable
 70
     0
  0
ENDTAB
  0
TABLE
  2
UCS
  5
74
330
0
100
AcDbSymbolTable
 70
     0
  0
ENDTAB
  0
TABLE
  2
APPID
  5
75
330
0
100
AcDbSymbolTable
 70
     2
  0
APPID
  5
76
330
75
100
AcDbSymbolTableRecord
100
AcDbRegAppTableRecord
  2
ACAD
 70
     0
  0
APPID
  5
77
330
75
100
AcDbSymbolTableRecord
100
AcDbRegAppTableRecord
  2
ACADANNOTATIVE
 70
     0
  0
ENDTAB
  0
TABLE
  2
DIMSTYLE
  5
78
330
0
100
AcDbSymbolTable
 70
     2
  0
DIMSTYLE
105
79
330
78
100
AcDbSymbolTableRecord
100
AcDbDimStyleTableRecord
  2
STANDARD
 70
     0
  3

  4

  5

  6

  7

 40
0.0
 41
2.5
 42
0.625
 43
3.75
 44
1.25
 45
0.0
 46
0.0
 47
0.0
 48
0.0
140
2.5
141
2.5
142
0.0
143
0.03937007874016
144
1.0
145
0.0
146
1.0
147
0.625
 71
     0
 72
     0
 73
     0
 74
     0
 75
     0
 76
     0
 77
     1
 78
     8
170
     0
171
     3
172
     1
173
     0
174
     0
175
     0
176
     0
177
     0
178
     0
270
     2
271
     2
272
     2
273
     2
274
     3
340
71
275
     0
280
     0
281
     0
282
     0
283
     0
284
     8
285
     0
286
     0
287
     3
288
     0
  0
ENDTAB
  0
TABLE
  2
BLOCK_RECORD
  5
A01
330
0
100
AcDbSymbolTable
  70
5
  0
BLOCK_RECORD
  5
A02
330
A01
100
AcDbSymbolTableRecord
100
AcDbBlockTableRecord
  2
*MODEL_SPACE
  0
BLOCK_RECORD
  5
A03
330
A01
100
AcDbSymbolTableRecord
100
AcDbBlockTableRecord
  2
*PAPER_SPACE
  0
ENDTAB
  0
ENDSEC
  0
SECTION
  2
BLOCKS
  0
BLOCK
  5
A04
330
A02
100
AcDbEntity
  8
0
100
AcDbBlockBegin
  2
*MODEL_SPACE
 70
   0
 10
0
 20
0
 30
0
  3
*MODEL_SPACE
  1
 
  0
ENDBLK
  5
A05
330
A02
100
AcDbEntity
  8
0
100
AcDbBlockEnd
  0
BLOCK
  5
A06
330
A03
100
AcDbEntity
 67
1
  8
0
100
AcDbBlockBegin
  2
*PAPER_SPACE
 70
   0
 10
0
 20
0
 30
0
  3
*PAPER_SPACE
  1
 
  0
ENDBLK
  5
A07
330
A03
100
AcDbEntity
 67
    1
  8
0
100
AcDbBlockEnd
  0
ENDSEC
  0
SECTION
  2
ENTITIES
  0
LINE
  5
A08
330
A02
100
AcDbEntity
  8
f
100
AcDbLine
 10
317.155741085
 20
-189.003969075
 30
-76.279387701
 11
317.155741085
 21
-189.003969075
 31
421.720557257
  0
LINE
  5
A09
330
A02
100
AcDbEntity
  8
f
100
AcDbLine
 10
317.155741085
 20
-189.003969075
 30
-76.279387701
 11
317.155741086
 21
417.496007947
 31
-76.279387701
  0
LINE
  5
A0A
330
A02
100
AcDbEntity
  8
f
100
AcDbLine
 10
317.155741085
 20
417.496007947
 30
-76.279387701
 11
317.155741085
 21
417.496007947
 31
421.720557257
  0
LINE
  5
A0B
330
A02
100
AcDbEntity
  8
f
100
AcDbLine
 10
317.155741086
 20
417.496007947
 30
421.720557257
 11
317.155741085
 21
-189.003969075
 31
421.720557257
  0
CIRCLE
  5
A0C
330
A02
100
AcDbEntity
  8
f
100
AcDbCircle
 10
317.155741085
 20
407.496007507
 30
384.221121534
 40
2.250000000
  0
CIRCLE
  5
A0D
330
A02
100
AcDbEntity
  8
f
100
AcDbCircle
 10
317.155741085
 20
-179.003996521
 30
-38.779136161
 40
2.250000000
  0
CIRCLE
  5
A0E
330
A02
100
AcDbEntity
  8
f
100
AcDbCircle
 10
317.155741085
 20
-179.003994811
 30
384.220311560
 40
2.250000000
  0
CIRCLE
  5
A0F
330
A02
100
AcDbEntity
  8
f
100
AcDbCircle
 10
317.155741085
 20
407.496007206
 30
-38.779426272
 40
2.250000000
  0
LINE
  5
A10
330
A02
100
AcDbEntity
  8
f
100
AcDbLine
 10
317.155741085
 20
-132.329620031
 30
-38.241231548
 11
317.155741085
 21
-137.129620031
 31
-38.241231548
  0
ARC
  5
A11
330
A02
100
AcDbEntity
  8
f
100
AcDbCircle
 10
317.155741085
 20
-137.129620031
 30
-34.241231548
 40
4.000000000
100
AcDbArc
 50
0.000000000
 51
-90.000000000
  0
LINE
  5
A12
330
A02
100
AcDbEntity
  8
f
100
AcDbLine
 10
317.155741085
 20
-141.129620031
 30
-34.241231548
 11
317.155741085
 21
-141.129620031
 31
2.758768452
  0
ARC
  5
A13
330
A02
100
AcDbEntity
  8
f
100
AcDbCircle
 10
317.155741085
 20
-137.129620031
 30
2.758768452
 40
0.000000000
100
AcDbArc
 50
0.000000000
 51
-90.000000000
  0
LINE
  5
A14
330
A02
100
AcDbEntity
  8
f
100
AcDbLine
 10
317.155741085
 20
-137.129620031
 30
6.758768452
 11
317.155741085
 21
-132.329620031
 31
6.758768452
  0
ARC
  5
A15
330
A02
100
AcDbEntity
  8
f
100
AcDbCircle
 10
317.155741085
 20
-132.329620031
 30
2.758768452
 40
4.000000000
100
AcDbArc
 50
0.000000000
 51
90.000000000
  0
LINE
  5
A16
330
A02
100
AcDbEntity
  8
f
100
AcDbLine
 10
317.155741085
 20
-128.329620031
 30
2.758768452
 11
317.155741085
 21
-128.329620031
 31
-34.241231548
  0
ARC
  5
A17
330
A02
100
AcDbEntity
  8
f
100
AcDbCircle
 10
317.155741085
 20
-132.329620031
 30
-34.241231548
 40
0.000000000
100
AcDbArc
 50
0.000000000
 51
90.000000000
  0
LINE
  5
A18
330
A02
100
AcDbEntity
  8
f
100
AcDbLine
 10
317.155741085
 20
-157.329620031
 30
-38.241231548
 11
317.155741085
 21
-162.129620031
 31
-38.241231548
  0
ARC
  5
A19
330
A02
100
AcDbEntity
  8
f
100
AcDbCircle
 10
317.155741085
 20
-162.129620031
 30
-34.241231548
 40
4.000000000
100
AcDbArc
 50
0.000000000
 51
-90.000000000
  0
LINE
  5
A1A
330
A02
100
AcDbEntity
  8
f
100
AcDbLine
 10
317.155741085
 20
-166.129620031
 30
-34.241231548
 11
317.155741085
 21
-166.129620031
 31
2.758768452
  0
ARC
  5
A1B
330
A02
100
AcDbEntity
  8
f
100
AcDbCircle
 10
317.155741085
 20
-162.129620031
 30
2.758768452
 40
0.000000000
100
AcDbArc
 50
0.000000000
 51
-90.000000000
  0
LINE
  5
A1C
330
A02
100
AcDbEntity
  8
f
100
AcDbLine
 10
317.155741085
 20
-162.129620031
 30
6.758768452
 11
317.155741085
 21
-157.329620031
 31
6.758768452
  0
ARC
  5
A1D
330
A02
100
AcDbEntity
  8
f
100
AcDbCircle
 10
317.155741085
 20
-157.329620031
 30
2.758768452
 40
4.000000000
100
AcDbArc
 50
0.000000000
 51
90.000000000
  0
LINE
  5
A1E
330
A02
100
AcDbEntity
  8
f
100
AcDbLine
 10
317.155741085
 20
-153.329620031
 30
2.758768452
 11
317.155741085
 21
-153.329620031
 31
-34.241231548
  0
ARC
  5
A1F
330
A02
100
AcDbEntity
  8
f
100
AcDbCircle
 10
317.155741085
 20
-157.329620031
 30
-34.241231548
 40
0.000000000
100
AcDbArc
 50
0.000000000
 51
90.000000000
  0
LINE
  5
A20
330
A02
100
AcDbEntity
  8
f
100
AcDbLine
 10
317.155741085
 20
-112.129620031
 30
6.758768452
 11
317.155741085
 21
-107.329620031
 31
6.758768452
  0
ARC
  5
A21
330
A02
100
AcDbEntity
  8
f
100
AcDbCircle
 10
317.155741085
 20
-107.329620031
 30
2.758768452
 40
4.000000000
100
AcDbArc
 50
0.000000000
 51
90.000000000
  0
LINE
  5
A22
330
A02
100
AcDbEntity
  8
f
100
AcDbLine
 10
317.155741085
 20
-103.329620031
 30
2.758768452
 11
317.155741085
 21
-103.329620031
 31
-34.241231548
  0
ARC
  5
A23
330
A02
100
AcDbEntity
  8
f
100
AcDbCircle
 10
317.155741085
 20
-107.329620031
 30
-34.241231548
 40
0.000000000
100
AcDbArc
 50
0.000000000
 51
90.000000000
  0
LINE
  5
A24
330
A02
100
AcDbEntity
  8
f
100
AcDbLine
 10
317.155741085
 20
-107.329620031
 30
-38.241231548
 11
317.155741085
 21
-112.129620031
 31
-38.241231548
  0
ARC
  5
A25
330
A02
100
AcDbEntity
  8
f
100
AcDbCircle
 10
317.155741085
 20
-112.129620031
 30
-34.241231548
 40
4.000000000
100
AcDbArc
 50
0.000000000
 51
-90.000000000
  0
LINE
  5
A26
330
A02
100
AcDbEntity
  8
f
100
AcDbLine
 10
317.155741085
 20
-116.129620031
 30
-34.241231548
 11
317.155741085
 21
-116.129620031
 31
2.758768452
  0
ARC
  5
A27
330
A02
100
AcDbEntity
  8
f
100
AcDbCircle
 10
317.155741085
 20
-112.129620031
 30
2.758768452
 40
0.000000000
100
AcDbArc
 50
0.000000000
 51
-90.000000000
  0
LINE
  5
A28
330
A02
100
AcDbEntity
  8
f
100
AcDbLine
 10
317.155741085
 20
-18.504000564
 30
194.963999825
 11
317.155741085
 21
-60.804000564
 31
194.963999825
  0
ARC
  5
A29
330
A02
100
AcDbEntity
  8
f
100
AcDbCircle
 10
317.155741085
 20
-60.804000564
 30
196.963999825
 40
2.000000000
100
AcDbArc
 50
-90.000000000
 51
0.000000000
  0
LINE
  5
A2A
330
A02
100
AcDbEntity
  8
f
100
AcDbLine
 10
317.155741085
 20
-62.804000564
 30
196.963999825
 11
317.155741085
 21
-62.804000564
 31
352.963999825
  0
ARC
  5
A2B
330
A02
100
AcDbEntity
  8
f
100
AcDbCircle
 10
317.155741085
 20
-60.804000564
 30
352.963999825
 40
0.000000000
100
AcDbArc
 50
-90.000000000
 51
0.000000000
  0
LINE
  5
A2C
330
A02
100
AcDbEntity
  8
f
100
AcDbLine
 10
317.155741085
 20
-60.804000564
 30
354.963999825
 11
317.155741085
 21
-18.504000564
 31
354.963999825
  0
ARC
  5
A2D
330
A02
100
AcDbEntity
  8
f
100
AcDbCircle
 10
317.155741085
 20
-18.504000564
 30
352.963999825
 40
2.000000000
100
AcDbArc
 50
90.000000000
 51
0.000000000
  0
LINE
  5
A2E
330
A02
100
AcDbEntity
  8
f
100
AcDbLine
 10
317.155741085
 20
-16.504000564
 30
352.963999825
 11
317.155741085
 21
-16.504000564
 31
196.963999825
  0
ARC
  5
A2F
330
A02
100
AcDbEntity
  8
f
100
AcDbCircle
 10
317.155741085
 20
-18.504000564
 30
196.963999825
 40
0.000000000
100
AcDbArc
 50
90.000000000
 51
0.000000000
  0
LINE
  5
A30
330
A02
100
AcDbEntity
  8
f
100
AcDbLine
 10
317.155741085
 20
-181.754312758
 30
326.220999825
 11
317.155741085
 21
-97.754312758
 31
326.220999825
  0
ARC
  5
A31
330
A02
100
AcDbEntity
  8
f
100
AcDbCircle
 10
317.155741085
 20
-97.754312758
 30
324.220999825
 40
2.000000000
100
AcDbArc
 50
90.000000000
 51
0.000000000
  0
LINE
  5
A32
330
A02
100
AcDbEntity
  8
f
100
AcDbLine
 10
317.155741085
 20
-95.754312758
 30
21.220999825
 11
317.155741085
 21
-95.754312758
 31
324.220999825
  0
ARC
  5
A33
330
A02
100
AcDbEntity
  8
f
100
AcDbCircle
 10
317.155741085
 20
-97.754312758
 30
21.220999825
 40
0.000000000
100
AcDbArc
 50
90.000000000
 51
0.000000000
  0
LINE
  5
A34
330
A02
100
AcDbEntity
  8
f
100
AcDbLine
 10
317.155741085
 20
-97.754312758
 30
19.220999825
 11
317.155741085
 21
-181.754312758
 31
19.220999825
  0
ARC
  5
A35
330
A02
100
AcDbEntity
  8
f
100
AcDbCircle
 10
317.155741085
 20
-181.754312758
 30
21.220999825
 40
0.000000000
100
AcDbArc
 50
0.000000000
 51
-90.000000000
  0
LINE
  5
A36
330
A02
100
AcDbEntity
  8
f
100
AcDbLine
 10
317.155741085
 20
-183.754312758
 30
21.220999825
 11
317.155741085
 21
-183.754312758
 31
324.220999825
  0
ARC
  5
A37
330
A02
100
AcDbEntity
  8
f
100
AcDbCircle
 10
317.155741085
 20
-181.754312758
 30
324.220999825
 40
2.000000000
100
AcDbArc
 50
0.000000000
 51
-90.000000000
  0
ARC
  5
A38
330
A02
100
AcDbEntity
  8
f
100
AcDbCircle
 10
317.155741085
 20
1.496008397
 30
80.720584778
 40
0.000000000
100
AcDbArc
 50
-90.000000000
 51
-90.000000000
  0
LINE
  5
A39
330
A02
100
AcDbEntity
  8
f
100
AcDbLine
 10
317.155741085
 20
-0.503991603
 30
80.720584778
 11
317.155741085
 21
-0.503991603
 31
84.720584778
  0
ARC
  5
A3A
330
A02
100
AcDbEntity
  8
f
100
AcDbCircle
 10
317.155741085
 20
1.496008397
 30
84.720584778
 40
2.000000000
100
AcDbArc
 50
-90.000000000
 51
-90.000000000
  0
LINE
  5
A3B
330
A02
100
AcDbEntity
  8
f
100
AcDbLine
 10
317.155741085
 20
1.496008397
 30
86.720584778
 11
317.155741085
 21
385.496008397
 31
86.720584778
  0
ARC
  5
A3C
330
A02
100
AcDbEntity
  8
f
100
AcDbCircle
 10
317.155741085
 20
385.496008397
 30
84.720584778
 40
2.000000000
100
AcDbArc
 50
90.000000000
 51
0.000000000
  0
LINE
  5
A3D
330
A02
100
AcDbEntity
  8
f
100
AcDbLine
 10
317.155741085
 20
387.496008397
 30
84.720584778
 11
317.155741085
 21
387.496008397
 31
80.720584778
  0
ARC
  5
A3E
330
A02
100
AcDbEntity
  8
f
100
AcDbCircle
 10
317.155741085
 20
385.496008397
 30
80.720584778
 40
0.000000000
100
AcDbArc
 50
90.000000000
 51
0.000000000
  0
LINE
  5
A3F
330
A02
100
AcDbEntity
  8
f
100
AcDbLine
 10
317.155741085
 20
385.496008397
 30
78.720584778
 11
317.155741085
 21
1.496008397
 31
78.720584778
  0
LINE
  5
A40
330
A02
100
AcDbEntity
  8
f
100
AcDbLine
 10
317.155741085
 20
1.496008397
 30
392.720584778
 11
317.155741085
 21
385.496008397
 31
392.720584778
  0
ARC
  5
A41
330
A02
100
AcDbEntity
  8
f
100
AcDbCircle
 10
317.155741085
 20
385.496008397
 30
390.720584778
 40
2.000000000
100
AcDbArc
 50
90.000000000
 51
0.000000000
  0
LINE
  5
A42
330
A02
100
AcDbEntity
  8
f
100
AcDbLine
 10
317.155741085
 20
387.496008397
 30
390.720584778
 11
317.155741085
 21
387.496008397
 31
386.720584778
  0
ARC
  5
A43
330
A02
100
AcDbEntity
  8
f
100
AcDbCircle
 10
317.155741085
 20
385.496008397
 30
386.720584778
 40
0.000000000
100
AcDbArc
 50
90.000000000
 51
0.000000000
  0
LINE
  5
A44
330
A02
100
AcDbEntity
  8
f
100
AcDbLine
 10
317.155741085
 20
385.496008397
 30
384.720584778
 11
317.155741085
 21
1.496008397
 31
384.720584778
  0
ARC
  5
A45
330
A02
100
AcDbEntity
  8
f
100
AcDbCircle
 10
317.155741085
 20
1.496008397
 30
386.720584778
 40
0.000000000
100
AcDbArc
 50
-90.000000000
 51
-90.000000000
  0
LINE
  5
A46
330
A02
100
AcDbEntity
  8
f
100
AcDbLine
 10
317.155741085
 20
-0.503991603
 30
386.720584778
 11
317.155741085
 21
-0.503991603
 31
390.720584778
  0
ARC
  5
A47
330
A02
100
AcDbEntity
  8
f
100
AcDbCircle
 10
317.155741085
 20
1.496008397
 30
390.720584778
 40
2.000000000
100
AcDbArc
 50
-90.000000000
 51
-90.000000000
  0
LINE
  5
A48
330
A02
100
AcDbEntity
  8
f
100
AcDbLine
 10
317.155741085
 20
1.496008397
 30
374.720584778
 11
317.155741085
 21
385.496008397
 31
374.720584778
  0
ARC
  5
A49
330
A02
100
AcDbEntity
  8
f
100
AcDbCircle
 10
317.155741085
 20
385.496008397
 30
372.720584778
 40
2.000000000
100
AcDbArc
 50
90.000000000
 51
0.000000000
  0
LINE
  5
A4A
330
A02
100
AcDbEntity
  8
f
100
AcDbLine
 10
317.155741085
 20
387.496008397
 30
372.720584778
 11
317.155741085
 21
387.496008397
 31
368.720584778
  0
ARC
  5
A4B
330
A02
100
AcDbEntity
  8
f
100
AcDbCircle
 10
317.155741085
 20
385.496008397
 30
368.720584778
 40
0.000000000
100
AcDbArc
 50
90.000000000
 51
0.000000000
  0
LINE
  5
A4C
330
A02
100
AcDbEntity
  8
f
100
AcDbLine
 10
317.155741085
 20
385.496008397
 30
366.720584778
 11
317.155741085
 21
1.496008397
 31
366.720584778
  0
ARC
  5
A4D
330
A02
100
AcDbEntity
  8
f
100
AcDbCircle
 10
317.155741085
 20
1.496008397
 30
368.720584778
 40
0.000000000
100
AcDbArc
 50
-90.000000000
 51
-90.000000000
  0
LINE
  5
A4E
330
A02
100
AcDbEntity
  8
f
100
AcDbLine
 10
317.155741085
 20
-0.503991603
 30
368.720584778
 11
317.155741085
 21
-0.503991603
 31
372.720584778
  0
ARC
  5
A4F
330
A02
100
AcDbEntity
  8
f
100
AcDbCircle
 10
317.155741085
 20
1.496008397
 30
372.720584778
 40
2.000000000
100
AcDbArc
 50
-90.000000000
 51
-90.000000000
  0
LINE
  5
A50
330
A02
100
AcDbEntity
  8
f
100
AcDbLine
 10
317.155741085
 20
1.496008397
 30
356.720584778
 11
317.155741085
 21
385.496008397
 31
356.720584778
  0
ARC
  5
A51
330
A02
100
AcDbEntity
  8
f
100
AcDbCircle
 10
317.155741085
 20
385.496008397
 30
354.720584778
 40
2.000000000
100
AcDbArc
 50
90.000000000
 51
0.000000000
  0
LINE
  5
A52
330
A02
100
AcDbEntity
  8
f
100
AcDbLine
 10
317.155741085
 20
387.496008397
 30
354.720584778
 11
317.155741085
 21
387.496008397
 31
350.720584778
  0
ARC
  5
A53
330
A02
100
AcDbEntity
  8
f
100
AcDbCircle
 10
317.155741085
 20
385.496008397
 30
350.720584778
 40
0.000000000
100
AcDbArc
 50
90.000000000
 51
0.000000000
  0
LINE
  5
A54
330
A02
100
AcDbEntity
  8
f
100
AcDbLine
 10
317.155741085
 20
385.496008397
 30
348.720584778
 11
317.155741085
 21
1.496008397
 31
348.720584778
  0
ARC
  5
A55
330
A02
100
AcDbEntity
  8
f
100
AcDbCircle
 10
317.155741085
 20
1.496008397
 30
350.720584778
 40
0.000000000
100
AcDbArc
 50
-90.000000000
 51
-90.000000000
  0
LINE
  5
A56
330
A02
100
AcDbEntity
  8
f
100
AcDbLine
 10
317.155741085
 20
-0.503991603
 30
350.720584778
 11
317.155741085
 21
-0.503991603
 31
354.720584778
  0
ARC
  5
A57
330
A02
100
AcDbEntity
  8
f
100
AcDbCircle
 10
317.155741085
 20
1.496008397
 30
354.720584778
 40
2.000000000
100
AcDbArc
 50
-90.000000000
 51
-90.000000000
  0
LINE
  5
A58
330
A02
100
AcDbEntity
  8
f
100
AcDbLine
 10
317.155741085
 20
1.496008397
 30
338.720584778
 11
317.155741085
 21
385.496008397
 31
338.720584778
  0
ARC
  5
A59
330
A02
100
AcDbEntity
  8
f
100
AcDbCircle
 10
317.155741085
 20
385.496008397
 30
336.720584778
 40
2.000000000
100
AcDbArc
 50
90.000000000
 51
0.000000000
  0
LINE
  5
A5A
330
A02
100
AcDbEntity
  8
f
100
AcDbLine
 10
317.155741085
 20
387.496008397
 30
336.720584778
 11
317.155741085
 21
387.496008397
 31
332.720584778
  0
ARC
  5
A5B
330
A02
100
AcDbEntity
  8
f
100
AcDbCircle
 10
317.155741085
 20
385.496008397
 30
332.720584778
 40
0.000000000
100
AcDbArc
 50
90.000000000
 51
0.000000000
  0
LINE
  5
A5C
330
A02
100
AcDbEntity
  8
f
100
AcDbLine
 10
317.155741085
 20
385.496008397
 30
330.720584778
 11
317.155741085
 21
1.496008397
 31
330.720584778
  0
ARC
  5
A5D
330
A02
100
AcDbEntity
  8
f
100
AcDbCircle
 10
317.155741085
 20
1.496008397
 30
332.720584778
 40
0.000000000
100
AcDbArc
 50
-90.000000000
 51
-90.000000000
  0
LINE
  5
A5E
330
A02
100
AcDbEntity
  8
f
100
AcDbLine
 10
317.155741085
 20
-0.503991603
 30
332.720584778
 11
317.155741085
 21
-0.503991603
 31
336.720584778
  0
ARC
  5
A5F
330
A02
100
AcDbEntity
  8
f
100
AcDbCircle
 10
317.155741085
 20
1.496008397
 30
336.720584778
 40
2.000000000
100
AcDbArc
 50
-90.000000000
 51
-90.000000000
  0
LINE
  5
A60
330
A02
100
AcDbEntity
  8
f
100
AcDbLine
 10
317.155741085
 20
1.496008397
 30
320.720584778
 11
317.155741085
 21
385.496008397
 31
320.720584778
  0
ARC
  5
A61
330
A02
100
AcDbEntity
  8
f
100
AcDbCircle
 10
317.155741085
 20
385.496008397
 30
318.720584778
 40
2.000000000
100
AcDbArc
 50
90.000000000
 51
0.000000000
  0
LINE
  5
A62
330
A02
100
AcDbEntity
  8
f
100
AcDbLine
 10
317.155741085
 20
387.496008397
 30
318.720584778
 11
317.155741085
 21
387.496008397
 31
314.720584778
  0
ARC
  5
A63
330
A02
100
AcDbEntity
  8
f
100
AcDbCircle
 10
317.155741085
 20
385.496008397
 30
314.720584778
 40
0.000000000
100
AcDbArc
 50
90.000000000
 51
0.000000000
  0
LINE
  5
A64
330
A02
100
AcDbEntity
  8
f
100
AcDbLine
 10
317.155741085
 20
385.496008397
 30
312.720584778
 11
317.155741085
 21
1.496008397
 31
312.720584778
  0
ARC
  5
A65
330
A02
100
AcDbEntity
  8
f
100
AcDbCircle
 10
317.155741085
 20
1.496008397
 30
314.720584778
 40
0.000000000
100
AcDbArc
 50
-90.000000000
 51
-90.000000000
  0
LINE
  5
A66
330
A02
100
AcDbEntity
  8
f
100
AcDbLine
 10
317.155741085
 20
-0.503991603
 30
314.720584778
 11
317.155741085
 21
-0.503991603
 31
318.720584778
  0
ARC
  5
A67
330
A02
100
AcDbEntity
  8
f
100
AcDbCircle
 10
317.155741085
 20
1.496008397
 30
318.720584778
 40
2.000000000
100
AcDbArc
 50
-90.000000000
 51
-90.000000000
  0
LINE
  5
A68
330
A02
100
AcDbEntity
  8
f
100
AcDbLine
 10
317.155741085
 20
1.496008397
 30
302.720584778
 11
317.155741085
 21
385.496008397
 31
302.720584778
  0
ARC
  5
A69
330
A02
100
AcDbEntity
  8
f
100
AcDbCircle
 10
317.155741085
 20
385.496008397
 30
300.720584778
 40
2.000000000
100
AcDbArc
 50
90.000000000
 51
0.000000000
  0
LINE
  5
A6A
330
A02
100
AcDbEntity
  8
f
100
AcDbLine
 10
317.155741085
 20
387.496008397
 30
300.720584778
 11
317.155741085
 21
387.496008397
 31
296.720584778
  0
ARC
  5
A6B
330
A02
100
AcDbEntity
  8
f
100
AcDbCircle
 10
317.155741085
 20
385.496008397
 30
296.720584778
 40
0.000000000
100
AcDbArc
 50
90.000000000
 51
0.000000000
  0
LINE
  5
A6C
330
A02
100
AcDbEntity
  8
f
100
AcDbLine
 10
317.155741085
 20
385.496008397
 30
294.720584778
 11
317.155741085
 21
1.496008397
 31
294.720584778
  0
ARC
  5
A6D
330
A02
100
AcDbEntity
  8
f
100
AcDbCircle
 10
317.155741085
 20
1.496008397
 30
296.720584778
 40
0.000000000
100
AcDbArc
 50
-90.000000000
 51
-90.000000000
  0
LINE
  5
A6E
330
A02
100
AcDbEntity
  8
f
100
AcDbLine
 10
317.155741085
 20
-0.503991603
 30
296.720584778
 11
317.155741085
 21
-0.503991603
 31
300.720584778
  0
ARC
  5
A6F
330
A02
100
AcDbEntity
  8
f
100
AcDbCircle
 10
317.155741085
 20
1.496008397
 30
300.720584778
 40
2.000000000
100
AcDbArc
 50
-90.000000000
 51
-90.000000000
  0
LINE
  5
A70
330
A02
100
AcDbEntity
  8
f
100
AcDbLine
 10
317.155741085
 20
1.496008397
 30
284.720584778
 11
317.155741085
 21
385.496008397
 31
284.720584778
  0
ARC
  5
A71
330
A02
100
AcDbEntity
  8
f
100
AcDbCircle
 10
317.155741085
 20
385.496008397
 30
282.720584778
 40
2.000000000
100
AcDbArc
 50
90.000000000
 51
0.000000000
  0
LINE
  5
A72
330
A02
100
AcDbEntity
  8
f
100
AcDbLine
 10
317.155741085
 20
387.496008397
 30
282.720584778
 11
317.155741085
 21
387.496008397
 31
278.720584778
  0
ARC
  5
A73
330
A02
100
AcDbEntity
  8
f
100
AcDbCircle
 10
317.155741085
 20
385.496008397
 30
278.720584778
 40
0.000000000
100
AcDbArc
 50
90.000000000
 51
0.000000000
  0
LINE
  5
A74
330
A02
100
AcDbEntity
  8
f
100
AcDbLine
 10
317.155741085
 20
385.496008397
 30
276.720584778
 11
317.155741085
 21
1.496008397
 31
276.720584778
  0
ARC
  5
A75
330
A02
100
AcDbEntity
  8
f
100
AcDbCircle
 10
317.155741085
 20
1.496008397
 30
278.720584778
 40
0.000000000
100
AcDbArc
 50
-90.000000000
 51
-90.000000000
  0
LINE
  5
A76
330
A02
100
AcDbEntity
  8
f
100
AcDbLine
 10
317.155741085
 20
-0.503991603
 30
278.720584778
 11
317.155741085
 21
-0.503991603
 31
282.720584778
  0
ARC
  5
A77
330
A02
100
AcDbEntity
  8
f
100
AcDbCircle
 10
317.155741085
 20
1.496008397
 30
282.720584778
 40
2.000000000
100
AcDbArc
 50
-90.000000000
 51
-90.000000000
  0
LINE
  5
A78
330
A02
100
AcDbEntity
  8
f
100
AcDbLine
 10
317.155741085
 20
1.496008397
 30
266.720584778
 11
317.155741085
 21
385.496008397
 31
266.720584778
  0
ARC
  5
A79
330
A02
100
AcDbEntity
  8
f
100
AcDbCircle
 10
317.155741085
 20
385.496008397
 30
264.720584778
 40
2.000000000
100
AcDbArc
 50
90.000000000
 51
0.000000000
  0
LINE
  5
A7A
330
A02
100
AcDbEntity
  8
f
100
AcDbLine
 10
317.155741085
 20
387.496008397
 30
264.720584778
 11
317.155741085
 21
387.496008397
 31
260.720584778
  0
ARC
  5
A7B
330
A02
100
AcDbEntity
  8
f
100
AcDbCircle
 10
317.155741085
 20
385.496008397
 30
260.720584778
 40
0.000000000
100
AcDbArc
 50
90.000000000
 51
0.000000000
  0
LINE
  5
A7C
330
A02
100
AcDbEntity
  8
f
100
AcDbLine
 10
317.155741085
 20
385.496008397
 30
258.720584778
 11
317.155741085
 21
1.496008397
 31
258.720584778
  0
ARC
  5
A7D
330
A02
100
AcDbEntity
  8
f
100
AcDbCircle
 10
317.155741085
 20
1.496008397
 30
260.720584778
 40
0.000000000
100
AcDbArc
 50
-90.000000000
 51
-90.000000000
  0
LINE
  5
A7E
330
A02
100
AcDbEntity
  8
f
100
AcDbLine
 10
317.155741085
 20
-0.503991603
 30
260.720584778
 11
317.155741085
 21
-0.503991603
 31
264.720584778
  0
ARC
  5
A7F
330
A02
100
AcDbEntity
  8
f
100
AcDbCircle
 10
317.155741085
 20
1.496008397
 30
264.720584778
 40
2.000000000
100
AcDbArc
 50
-90.000000000
 51
-90.000000000
  0
LINE
  5
A80
330
A02
100
AcDbEntity
  8
f
100
AcDbLine
 10
317.155741085
 20
1.496008397
 30
248.720584778
 11
317.155741085
 21
385.496008397
 31
248.720584778
  0
ARC
  5
A81
330
A02
100
AcDbEntity
  8
f
100
AcDbCircle
 10
317.155741085
 20
385.496008397
 30
246.720584778
 40
2.000000000
100
AcDbArc
 50
90.000000000
 51
0.000000000
  0
LINE
  5
A82
330
A02
100
AcDbEntity
  8
f
100
AcDbLine
 10
317.155741085
 20
387.496008397
 30
246.720584778
 11
317.155741085
 21
387.496008397
 31
242.720584778
  0
ARC
  5
A83
330
A02
100
AcDbEntity
  8
f
100
AcDbCircle
 10
317.155741085
 20
385.496008397
 30
242.720584778
 40
0.000000000
100
AcDbArc
 50
90.000000000
 51
0.000000000
  0
LINE
  5
A84
330
A02
100
AcDbEntity
  8
f
100
AcDbLine
 10
317.155741085
 20
385.496008397
 30
240.720584778
 11
317.155741085
 21
1.496008397
 31
240.720584778
  0
ARC
  5
A85
330
A02
100
AcDbEntity
  8
f
100
AcDbCircle
 10
317.155741085
 20
1.496008397
 30
242.720584778
 40
0.000000000
100
AcDbArc
 50
-90.000000000
 51
-90.000000000
  0
LINE
  5
A86
330
A02
100
AcDbEntity
  8
f
100
AcDbLine
 10
317.155741085
 20
-0.503991603
 30
242.720584778
 11
317.155741085
 21
-0.503991603
 31
246.720584778
  0
ARC
  5
A87
330
A02
100
AcDbEntity
  8
f
100
AcDbCircle
 10
317.155741085
 20
1.496008397
 30
246.720584778
 40
2.000000000
100
AcDbArc
 50
-90.000000000
 51
-90.000000000
  0
LINE
  5
A88
330
A02
100
AcDbEntity
  8
f
100
AcDbLine
 10
317.155741085
 20
1.496008397
 30
230.720584778
 11
317.155741085
 21
385.496008397
 31
230.720584778
  0
ARC
  5
A89
330
A02
100
AcDbEntity
  8
f
100
AcDbCircle
 10
317.155741085
 20
385.496008397
 30
228.720584778
 40
2.000000000
100
AcDbArc
 50
90.000000000
 51
0.000000000
  0
LINE
  5
A8A
330
A02
100
AcDbEntity
  8
f
100
AcDbLine
 10
317.155741085
 20
387.496008397
 30
228.720584778
 11
317.155741085
 21
387.496008397
 31
224.720584778
  0
ARC
  5
A8B
330
A02
100
AcDbEntity
  8
f
100
AcDbCircle
 10
317.155741085
 20
385.496008397
 30
224.720584778
 40
0.000000000
100
AcDbArc
 50
90.000000000
 51
0.000000000
  0
LINE
  5
A8C
330
A02
100
AcDbEntity
  8
f
100
AcDbLine
 10
317.155741085
 20
385.496008397
 30
222.720584778
 11
317.155741085
 21
1.496008397
 31
222.720584778
  0
ARC
  5
A8D
330
A02
100
AcDbEntity
  8
f
100
AcDbCircle
 10
317.155741085
 20
1.496008397
 30
224.720584778
 40
0.000000000
100
AcDbArc
 50
-90.000000000
 51
-90.000000000
  0
LINE
  5
A8E
330
A02
100
AcDbEntity
  8
f
100
AcDbLine
 10
317.155741085
 20
-0.503991603
 30
224.720584778
 11
317.155741085
 21
-0.503991603
 31
228.720584778
  0
ARC
  5
A8F
330
A02
100
AcDbEntity
  8
f
100
AcDbCircle
 10
317.155741085
 20
1.496008397
 30
228.720584778
 40
2.000000000
100
AcDbArc
 50
-90.000000000
 51
-90.000000000
  0
LINE
  5
A90
330
A02
100
AcDbEntity
  8
f
100
AcDbLine
 10
317.155741085
 20
1.496008397
 30
212.720584778
 11
317.155741085
 21
385.496008397
 31
212.720584778
  0
ARC
  5
A91
330
A02
100
AcDbEntity
  8
f
100
AcDbCircle
 10
317.155741085
 20
385.496008397
 30
210.720584778
 40
2.000000000
100
AcDbArc
 50
90.000000000
 51
0.000000000
  0
LINE
  5
A92
330
A02
100
AcDbEntity
  8
f
100
AcDbLine
 10
317.155741085
 20
387.496008397
 30
210.720584778
 11
317.155741085
 21
387.496008397
 31
206.720584778
  0
ARC
  5
A93
330
A02
100
AcDbEntity
  8
f
100
AcDbCircle
 10
317.155741085
 20
385.496008397
 30
206.720584778
 40
0.000000000
100
AcDbArc
 50
90.000000000
 51
0.000000000
  0
LINE
  5
A94
330
A02
100
AcDbEntity
  8
f
100
AcDbLine
 10
317.155741085
 20
385.496008397
 30
204.720584778
 11
317.155741085
 21
1.496008397
 31
204.720584778
  0
ARC
  5
A95
330
A02
100
AcDbEntity
  8
f
100
AcDbCircle
 10
317.155741085
 20
1.496008397
 30
206.720584778
 40
0.000000000
100
AcDbArc
 50
-90.000000000
 51
-90.000000000
  0
LINE
  5
A96
330
A02
100
AcDbEntity
  8
f
100
AcDbLine
 10
317.155741085
 20
-0.503991603
 30
206.720584778
 11
317.155741085
 21
-0.503991603
 31
210.720584778
  0
ARC
  5
A97
330
A02
100
AcDbEntity
  8
f
100
AcDbCircle
 10
317.155741085
 20
1.496008397
 30
210.720584778
 40
2.000000000
100
AcDbArc
 50
-90.000000000
 51
-90.000000000
  0
LINE
  5
A98
330
A02
100
AcDbEntity
  8
f
100
AcDbLine
 10
317.155741085
 20
1.496008397
 30
194.720584778
 11
317.155741085
 21
385.496008397
 31
194.720584778
  0
ARC
  5
A99
330
A02
100
AcDbEntity
  8
f
100
AcDbCircle
 10
317.155741085
 20
385.496008397
 30
192.720584778
 40
2.000000000
100
AcDbArc
 50
90.000000000
 51
0.000000000
  0
LINE
  5
A9A
330
A02
100
AcDbEntity
  8
f
100
AcDbLine
 10
317.155741085
 20
387.496008397
 30
192.720584778
 11
317.155741085
 21
387.496008397
 31
188.720584778
  0
ARC
  5
A9B
330
A02
100
AcDbEntity
  8
f
100
AcDbCircle
 10
317.155741085
 20
385.496008397
 30
188.720584778
 40
0.000000000
100
AcDbArc
 50
90.000000000
 51
0.000000000
  0
LINE
  5
A9C
330
A02
100
AcDbEntity
  8
f
100
AcDbLine
 10
317.155741085
 20
385.496008397
 30
186.720584778
 11
317.155741085
 21
1.496008397
 31
186.720584778
  0
ARC
  5
A9D
330
A02
100
AcDbEntity
  8
f
100
AcDbCircle
 10
317.155741085
 20
1.496008397
 30
188.720584778
 40
0.000000000
100
AcDbArc
 50
-90.000000000
 51
-90.000000000
  0
LINE
  5
A9E
330
A02
100
AcDbEntity
  8
f
100
AcDbLine
 10
317.155741085
 20
-0.503991603
 30
188.720584778
 11
317.155741085
 21
-0.503991603
 31
192.720584778
  0
ARC
  5
A9F
330
A02
100
AcDbEntity
  8
f
100
AcDbCircle
 10
317.155741085
 20
1.496008397
 30
192.720584778
 40
2.000000000
100
AcDbArc
 50
-90.000000000
 51
-90.000000000
  0
LINE
  5
AA0
330
A02
100
AcDbEntity
  8
f
100
AcDbLine
 10
317.155741085
 20
1.496008397
 30
176.720584778
 11
317.155741085
 21
385.496008397
 31
176.720584778
  0
ARC
  5
AA1
330
A02
100
AcDbEntity
  8
f
100
AcDbCircle
 10
317.155741085
 20
385.496008397
 30
174.720584778
 40
2.000000000
100
AcDbArc
 50
90.000000000
 51
0.000000000
  0
LINE
  5
AA2
330
A02
100
AcDbEntity
  8
f
100
AcDbLine
 10
317.155741085
 20
387.496008397
 30
174.720584778
 11
317.155741085
 21
387.496008397
 31
170.720584778
  0
ARC
  5
AA3
330
A02
100
AcDbEntity
  8
f
100
AcDbCircle
 10
317.155741085
 20
385.496008397
 30
170.720584778
 40
0.000000000
100
AcDbArc
 50
90.000000000
 51
0.000000000
  0
LINE
  5
AA4
330
A02
100
AcDbEntity
  8
f
100
AcDbLine
 10
317.155741085
 20
385.496008397
 30
168.720584778
 11
317.155741085
 21
1.496008397
 31
168.720584778
  0
ARC
  5
AA5
330
A02
100
AcDbEntity
  8
f
100
AcDbCircle
 10
317.155741085
 20
1.496008397
 30
170.720584778
 40
0.000000000
100
AcDbArc
 50
-90.000000000
 51
-90.000000000
  0
LINE
  5
AA6
330
A02
100
AcDbEntity
  8
f
100
AcDbLine
 10
317.155741085
 20
-0.503991603
 30
170.720584778
 11
317.155741085
 21
-0.503991603
 31
174.720584778
  0
ARC
  5
AA7
330
A02
100
AcDbEntity
  8
f
100
AcDbCircle
 10
317.155741085
 20
1.496008397
 30
174.720584778
 40
2.000000000
100
AcDbArc
 50
-90.000000000
 51
-90.000000000
  0
LINE
  5
AA8
330
A02
100
AcDbEntity
  8
f
100
AcDbLine
 10
317.155741085
 20
1.496008397
 30
158.720584778
 11
317.155741085
 21
385.496008397
 31
158.720584778
  0
ARC
  5
AA9
330
A02
100
AcDbEntity
  8
f
100
AcDbCircle
 10
317.155741085
 20
385.496008397
 30
156.720584778
 40
2.000000000
100
AcDbArc
 50
90.000000000
 51
0.000000000
  0
LINE
  5
AAA
330
A02
100
AcDbEntity
  8
f
100
AcDbLine
 10
317.155741085
 20
387.496008397
 30
156.720584778
 11
317.155741085
 21
387.496008397
 31
152.720584778
  0
ARC
  5
AAB
330
A02
100
AcDbEntity
  8
f
100
AcDbCircle
 10
317.155741085
 20
385.496008397
 30
152.720584778
 40
0.000000000
100
AcDbArc
 50
90.000000000
 51
0.000000000
  0
LINE
  5
AAC
330
A02
100
AcDbEntity
  8
f
100
AcDbLine
 10
317.155741085
 20
385.496008397
 30
150.720584778
 11
317.155741085
 21
1.496008397
 31
150.720584778
  0
ARC
  5
AAD
330
A02
100
AcDbEntity
  8
f
100
AcDbCircle
 10
317.155741085
 20
1.496008397
 30
152.720584778
 40
0.000000000
100
AcDbArc
 50
-90.000000000
 51
-90.000000000
  0
LINE
  5
AAE
330
A02
100
AcDbEntity
  8
f
100
AcDbLine
 10
317.155741085
 20
-0.503991603
 30
152.720584778
 11
317.155741085
 21
-0.503991603
 31
156.720584778
  0
ARC
  5
AAF
330
A02
100
AcDbEntity
  8
f
100
AcDbCircle
 10
317.155741085
 20
1.496008397
 30
156.720584778
 40
2.000000000
100
AcDbArc
 50
-90.000000000
 51
-90.000000000
  0
LINE
  5
AB0
330
A02
100
AcDbEntity
  8
f
100
AcDbLine
 10
317.155741085
 20
1.496008397
 30
140.720584778
 11
317.155741085
 21
385.496008397
 31
140.720584778
  0
ARC
  5
AB1
330
A02
100
AcDbEntity
  8
f
100
AcDbCircle
 10
317.155741085
 20
385.496008397
 30
138.720584778
 40
2.000000000
100
AcDbArc
 50
90.000000000
 51
0.000000000
  0
LINE
  5
AB2
330
A02
100
AcDbEntity
  8
f
100
AcDbLine
 10
317.155741085
 20
387.496008397
 30
138.720584778
 11
317.155741085
 21
387.496008397
 31
134.720584778
  0
ARC
  5
AB3
330
A02
100
AcDbEntity
  8
f
100
AcDbCircle
 10
317.155741085
 20
385.496008397
 30
134.720584778
 40
0.000000000
100
AcDbArc
 50
90.000000000
 51
0.000000000
  0
LINE
  5
AB4
330
A02
100
AcDbEntity
  8
f
100
AcDbLine
 10
317.155741085
 20
385.496008397
 30
132.720584778
 11
317.155741085
 21
1.496008397
 31
132.720584778
  0
ARC
  5
AB5
330
A02
100
AcDbEntity
  8
f
100
AcDbCircle
 10
317.155741085
 20
1.496008397
 30
134.720584778
 40
0.000000000
100
AcDbArc
 50
-90.000000000
 51
-90.000000000
  0
LINE
  5
AB6
330
A02
100
AcDbEntity
  8
f
100
AcDbLine
 10
317.155741085
 20
-0.503991603
 30
134.720584778
 11
317.155741085
 21
-0.503991603
 31
138.720584778
  0
ARC
  5
AB7
330
A02
100
AcDbEntity
  8
f
100
AcDbCircle
 10
317.155741085
 20
1.496008397
 30
138.720584778
 40
2.000000000
100
AcDbArc
 50
-90.000000000
 51
-90.000000000
  0
LINE
  5
AB8
330
A02
100
AcDbEntity
  8
f
100
AcDbLine
 10
317.155741085
 20
1.496008397
 30
122.720584778
 11
317.155741085
 21
385.496008397
 31
122.720584778
  0
ARC
  5
AB9
330
A02
100
AcDbEntity
  8
f
100
AcDbCircle
 10
317.155741085
 20
385.496008397
 30
120.720584778
 40
2.000000000
100
AcDbArc
 50
90.000000000
 51
0.000000000
  0
LINE
  5
ABA
330
A02
100
AcDbEntity
  8
f
100
AcDbLine
 10
317.155741085
 20
387.496008397
 30
120.720584778
 11
317.155741085
 21
387.496008397
 31
116.720584778
  0
ARC
  5
ABB
330
A02
100
AcDbEntity
  8
f
100
AcDbCircle
 10
317.155741085
 20
385.496008397
 30
116.720584778
 40
0.000000000
100
AcDbArc
 50
90.000000000
 51
0.000000000
  0
LINE
  5
ABC
330
A02
100
AcDbEntity
  8
f
100
AcDbLine
 10
317.155741085
 20
385.496008397
 30
114.720584778
 11
317.155741085
 21
1.496008397
 31
114.720584778
  0
ARC
  5
ABD
330
A02
100
AcDbEntity
  8
f
100
AcDbCircle
 10
317.155741085
 20
1.496008397
 30
116.720584778
 40
0.000000000
100
AcDbArc
 50
-90.000000000
 51
-90.000000000
  0
LINE
  5
ABE
330
A02
100
AcDbEntity
  8
f
100
AcDbLine
 10
317.155741085
 20
-0.503991603
 30
116.720584778
 11
317.155741085
 21
-0.503991603
 31
120.720584778
  0
ARC
  5
ABF
330
A02
100
AcDbEntity
  8
f
100
AcDbCircle
 10
317.155741085
 20
1.496008397
 30
120.720584778
 40
2.000000000
100
AcDbArc
 50
-90.000000000
 51
-90.000000000
  0
LINE
  5
AC0
330
A02
100
AcDbEntity
  8
f
100
AcDbLine
 10
317.155741085
 20
1.496008397
 30
104.720584778
 11
317.155741085
 21
385.496008397
 31
104.720584778
  0
ARC
  5
AC1
330
A02
100
AcDbEntity
  8
f
100
AcDbCircle
 10
317.155741085
 20
385.496008397
 30
102.720584778
 40
2.000000000
100
AcDbArc
 50
90.000000000
 51
0.000000000
  0
LINE
  5
AC2
330
A02
100
AcDbEntity
  8
f
100
AcDbLine
 10
317.155741085
 20
387.496008397
 30
102.720584778
 11
317.155741085
 21
387.496008397
 31
98.720584778
  0
ARC
  5
AC3
330
A02
100
AcDbEntity
  8
f
100
AcDbCircle
 10
317.155741085
 20
385.496008397
 30
98.720584778
 40
0.000000000
100
AcDbArc
 50
90.000000000
 51
0.000000000
  0
LINE
  5
AC4
330
A02
100
AcDbEntity
  8
f
100
AcDbLine
 10
317.155741085
 20
385.496008397
 30
96.720584778
 11
317.155741085
 21
1.496008397
 31
96.720584778
  0
ARC
  5
AC5
330
A02
100
AcDbEntity
  8
f
100
AcDbCircle
 10
317.155741085
 20
1.496008397
 30
98.720584778
 40
0.000000000
100
AcDbArc
 50
-90.000000000
 51
-90.000000000
  0
LINE
  5
AC6
330
A02
100
AcDbEntity
  8
f
100
AcDbLine
 10
317.155741085
 20
-0.503991603
 30
98.720584778
 11
317.155741085
 21
-0.503991603
 31
102.720584778
  0
ARC
  5
AC7
330
A02
100
AcDbEntity
  8
f
100
AcDbCircle
 10
317.155741085
 20
1.496008397
 30
102.720584778
 40
2.000000000
100
AcDbArc
 50
-90.000000000
 51
-90.000000000
  0
LINE
  5
AC8
330
A02
100
AcDbEntity
  8
f
100
AcDbLine
 10
317.155741085
 20
1.496008397
 30
68.720584778
 11
317.155741085
 21
385.496008397
 31
68.720584778
  0
ARC
  5
AC9
330
A02
100
AcDbEntity
  8
f
100
AcDbCircle
 10
317.155741085
 20
385.496008397
 30
66.720584778
 40
2.000000000
100
AcDbArc
 50
90.000000000
 51
0.000000000
  0
LINE
  5
ACA
330
A02
100
AcDbEntity
  8
f
100
AcDbLine
 10
317.155741085
 20
387.496008397
 30
66.720584778
 11
317.155741085
 21
387.496008397
 31
62.720584778
  0
ARC
  5
ACB
330
A02
100
AcDbEntity
  8
f
100
AcDbCircle
 10
317.155741085
 20
385.496008397
 30
62.720584778
 40
0.000000000
100
AcDbArc
 50
90.000000000
 51
0.000000000
  0
LINE
  5
ACC
330
A02
100
AcDbEntity
  8
f
100
AcDbLine
 10
317.155741085
 20
385.496008397
 30
60.720584778
 11
317.155741085
 21
1.496008397
 31
60.720584778
  0
ARC
  5
ACD
330
A02
100
AcDbEntity
  8
f
100
AcDbCircle
 10
317.155741085
 20
1.496008397
 30
62.720584778
 40
0.000000000
100
AcDbArc
 50
-90.000000000
 51
-90.000000000
  0
LINE
  5
ACE
330
A02
100
AcDbEntity
  8
f
100
AcDbLine
 10
317.155741085
 20
-0.503991603
 30
62.720584778
 11
317.155741085
 21
-0.503991603
 31
66.720584778
  0
ARC
  5
ACF
330
A02
100
AcDbEntity
  8
f
100
AcDbCircle
 10
317.155741085
 20
1.496008397
 30
66.720584778
 40
2.000000000
100
AcDbArc
 50
-90.000000000
 51
-90.000000000
  0
LINE
  5
AD0
330
A02
100
AcDbEntity
  8
f
100
AcDbLine
 10
317.155741085
 20
1.496008397
 30
50.720584778
 11
317.155741085
 21
385.496008397
 31
50.720584778
  0
ARC
  5
AD1
330
A02
100
AcDbEntity
  8
f
100
AcDbCircle
 10
317.155741085
 20
385.496008397
 30
48.720584778
 40
2.000000000
100
AcDbArc
 50
90.000000000
 51
0.000000000
  0
LINE
  5
AD2
330
A02
100
AcDbEntity
  8
f
100
AcDbLine
 10
317.155741085
 20
387.496008397
 30
48.720584778
 11
317.155741085
 21
387.496008397
 31
44.720584778
  0
ARC
  5
AD3
330
A02
100
AcDbEntity
  8
f
100
AcDbCircle
 10
317.155741085
 20
385.496008397
 30
44.720584778
 40
0.000000000
100
AcDbArc
 50
90.000000000
 51
0.000000000
  0
LINE
  5
AD4
330
A02
100
AcDbEntity
  8
f
100
AcDbLine
 10
317.155741085
 20
385.496008397
 30
42.720584778
 11
317.155741085
 21
1.496008397
 31
42.720584778
  0
ARC
  5
AD5
330
A02
100
AcDbEntity
  8
f
100
AcDbCircle
 10
317.155741085
 20
1.496008397
 30
44.720584778
 40
0.000000000
100
AcDbArc
 50
-90.000000000
 51
-90.000000000
  0
LINE
  5
AD6
330
A02
100
AcDbEntity
  8
f
100
AcDbLine
 10
317.155741085
 20
-0.503991603
 30
44.720584778
 11
317.155741085
 21
-0.503991603
 31
48.720584778
  0
ARC
  5
AD7
330
A02
100
AcDbEntity
  8
f
100
AcDbCircle
 10
317.155741085
 20
1.496008397
 30
48.720584778
 40
2.000000000
100
AcDbArc
 50
-90.000000000
 51
-90.000000000
  0
LINE
  5
AD8
330
A02
100
AcDbEntity
  8
f
100
AcDbLine
 10
317.155741085
 20
1.496008397
 30
32.720584778
 11
317.155741085
 21
385.496008397
 31
32.720584778
  0
ARC
  5
AD9
330
A02
100
AcDbEntity
  8
f
100
AcDbCircle
 10
317.155741085
 20
385.496008397
 30
30.720584778
 40
2.000000000
100
AcDbArc
 50
90.000000000
 51
0.000000000
  0
LINE
  5
ADA
330
A02
100
AcDbEntity
  8
f
100
AcDbLine
 10
317.155741085
 20
387.496008397
 30
30.720584778
 11
317.155741085
 21
387.496008397
 31
26.720584778
  0
ARC
  5
ADB
330
A02
100
AcDbEntity
  8
f
100
AcDbCircle
 10
317.155741085
 20
385.496008397
 30
26.720584778
 40
0.000000000
100
AcDbArc
 50
90.000000000
 51
0.000000000
  0
LINE
  5
ADC
330
A02
100
AcDbEntity
  8
f
100
AcDbLine
 10
317.155741085
 20
385.496008397
 30
24.720584778
 11
317.155741085
 21
1.496008397
 31
24.720584778
  0
ARC
  5
ADD
330
A02
100
AcDbEntity
  8
f
100
AcDbCircle
 10
317.155741085
 20
1.496008397
 30
26.720584778
 40
0.000000000
100
AcDbArc
 50
-90.000000000
 51
-90.000000000
  0
LINE
  5
ADE
330
A02
100
AcDbEntity
  8
f
100
AcDbLine
 10
317.155741085
 20
-0.503991603
 30
26.720584778
 11
317.155741085
 21
-0.503991603
 31
30.720584778
  0
ARC
  5
ADF
330
A02
100
AcDbEntity
  8
f
100
AcDbCircle
 10
317.155741085
 20
1.496008397
 30
30.720584778
 40
2.000000000
100
AcDbArc
 50
-90.000000000
 51
-90.000000000
  0
LINE
  5
AE0
330
A02
100
AcDbEntity
  8
f
100
AcDbLine
 10
317.155741085
 20
1.496008397
 30
14.720584778
 11
317.155741085
 21
385.496008397
 31
14.720584778
  0
ARC
  5
AE1
330
A02
100
AcDbEntity
  8
f
100
AcDbCircle
 10
317.155741085
 20
385.496008397
 30
12.720584778
 40
2.000000000
100
AcDbArc
 50
90.000000000
 51
0.000000000
  0
LINE
  5
AE2
330
A02
100
AcDbEntity
  8
f
100
AcDbLine
 10
317.155741085
 20
387.496008397
 30
12.720584778
 11
317.155741085
 21
387.496008397
 31
8.720584778
  0
ARC
  5
AE3
330
A02
100
AcDbEntity
  8
f
100
AcDbCircle
 10
317.155741085
 20
385.496008397
 30
8.720584778
 40
0.000000000
100
AcDbArc
 50
90.000000000
 51
0.000000000
  0
LINE
  5
AE4
330
A02
100
AcDbEntity
  8
f
100
AcDbLine
 10
317.155741085
 20
385.496008397
 30
6.720584778
 11
317.155741085
 21
1.496008397
 31
6.720584778
  0
ARC
  5
AE5
330
A02
100
AcDbEntity
  8
f
100
AcDbCircle
 10
317.155741085
 20
1.496008397
 30
8.720584778
 40
0.000000000
100
AcDbArc
 50
-90.000000000
 51
-90.000000000
  0
LINE
  5
AE6
330
A02
100
AcDbEntity
  8
f
100
AcDbLine
 10
317.155741085
 20
-0.503991603
 30
8.720584778
 11
317.155741085
 21
-0.503991603
 31
12.720584778
  0
ARC
  5
AE7
330
A02
100
AcDbEntity
  8
f
100
AcDbCircle
 10
317.155741085
 20
1.496008397
 30
12.720584778
 40
2.000000000
100
AcDbArc
 50
-90.000000000
 51
-90.000000000
  0
LINE
  5
AE8
330
A02
100
AcDbEntity
  8
f
100
AcDbLine
 10
317.155741085
 20
1.496008397
 30
-3.279415222
 11
317.155741085
 21
385.496008397
 31
-3.279415222
  0
ARC
  5
AE9
330
A02
100
AcDbEntity
  8
f
100
AcDbCircle
 10
317.155741085
 20
385.496008397
 30
-5.279415222
 40
2.000000000
100
AcDbArc
 50
90.000000000
 51
0.000000000
  0
LINE
  5
AEA
330
A02
100
AcDbEntity
  8
f
100
AcDbLine
 10
317.155741085
 20
387.496008397
 30
-5.279415222
 11
317.155741085
 21
387.496008397
 31
-9.279415222
  0
ARC
  5
AEB
330
A02
100
AcDbEntity
  8
f
100
AcDbCircle
 10
317.155741085
 20
385.496008397
 30
-9.279415222
 40
0.000000000
100
AcDbArc
 50
90.000000000
 51
0.000000000
  0
LINE
  5
AEC
330
A02
100
AcDbEntity
  8
f
100
AcDbLine
 10
317.155741085
 20
385.496008397
 30
-11.279415222
 11
317.155741085
 21
1.496008397
 31
-11.279415222
  0
ARC
  5
AED
330
A02
100
AcDbEntity
  8
f
100
AcDbCircle
 10
317.155741085
 20
1.496008397
 30
-9.279415222
 40
0.000000000
100
AcDbArc
 50
-90.000000000
 51
-90.000000000
  0
LINE
  5
AEE
330
A02
100
AcDbEntity
  8
f
100
AcDbLine
 10
317.155741085
 20
-0.503991603
 30
-9.279415222
 11
317.155741085
 21
-0.503991603
 31
-5.279415222
  0
ARC
  5
AEF
330
A02
100
AcDbEntity
  8
f
100
AcDbCircle
 10
317.155741085
 20
1.496008397
 30
-5.279415222
 40
2.000000000
100
AcDbArc
 50
-90.000000000
 51
-90.000000000
  0
LINE
  5
AF0
330
A02
100
AcDbEntity
  8
f
100
AcDbLine
 10
317.155741085
 20
1.496008397
 30
-21.279415222
 11
317.155741085
 21
385.496008397
 31
-21.279415222
  0
ARC
  5
AF1
330
A02
100
AcDbEntity
  8
f
100
AcDbCircle
 10
317.155741085
 20
385.496008397
 30
-23.279415222
 40
2.000000000
100
AcDbArc
 50
90.000000000
 51
0.000000000
  0
LINE
  5
AF2
330
A02
100
AcDbEntity
  8
f
100
AcDbLine
 10
317.155741085
 20
387.496008397
 30
-23.279415222
 11
317.155741085
 21
387.496008397
 31
-27.279415222
  0
ARC
  5
AF3
330
A02
100
AcDbEntity
  8
f
100
AcDbCircle
 10
317.155741085
 20
385.496008397
 30
-27.279415222
 40
0.000000000
100
AcDbArc
 50
90.000000000
 51
0.000000000
  0
LINE
  5
AF4
330
A02
100
AcDbEntity
  8
f
100
AcDbLine
 10
317.155741085
 20
385.496008397
 30
-29.279415222
 11
317.155741085
 21
1.496008397
 31
-29.279415222
  0
ARC
  5
AF5
330
A02
100
AcDbEntity
  8
f
100
AcDbCircle
 10
317.155741085
 20
1.496008397
 30
-27.279415222
 40
0.000000000
100
AcDbArc
 50
-90.000000000
 51
-90.000000000
  0
LINE
  5
AF6
330
A02
100
AcDbEntity
  8
f
100
AcDbLine
 10
317.155741085
 20
-0.503991603
 30
-27.279415222
 11
317.155741085
 21
-0.503991603
 31
-23.279415222
  0
ARC
  5
AF7
330
A02
100
AcDbEntity
  8
f
100
AcDbCircle
 10
317.155741085
 20
1.496008397
 30
-23.279415222
 40
2.000000000
100
AcDbArc
 50
-90.000000000
 51
-90.000000000
  0
LINE
  5
AF8
330
A02
100
AcDbEntity
  8
f
100
AcDbLine
 10
317.155741085
 20
1.496008397
 30
-39.279415222
 11
317.155741085
 21
385.496008397
 31
-39.279415222
  0
ARC
  5
AF9
330
A02
100
AcDbEntity
  8
f
100
AcDbCircle
 10
317.155741085
 20
385.496008397
 30
-41.279415222
 40
2.000000000
100
AcDbArc
 50
90.000000000
 51
0.000000000
  0
LINE
  5
AFA
330
A02
100
AcDbEntity
  8
f
100
AcDbLine
 10
317.155741085
 20
387.496008397
 30
-41.279415222
 11
317.155741085
 21
387.496008397
 31
-45.279415222
  0
ARC
  5
AFB
330
A02
100
AcDbEntity
  8
f
100
AcDbCircle
 10
317.155741085
 20
385.496008397
 30
-45.279415222
 40
0.000000000
100
AcDbArc
 50
90.000000000
 51
0.000000000
  0
LINE
  5
AFC
330
A02
100
AcDbEntity
  8
f
100
AcDbLine
 10
317.155741085
 20
385.496008397
 30
-47.279415222
 11
317.155741085
 21
1.496008397
 31
-47.279415222
  0
ARC
  5
AFD
330
A02
100
AcDbEntity
  8
f
100
AcDbCircle
 10
317.155741085
 20
1.496008397
 30
-45.279415222
 40
0.000000000
100
AcDbArc
 50
-90.000000000
 51
-90.000000000
  0
LINE
  5
AFE
330
A02
100
AcDbEntity
  8
f
100
AcDbLine
 10
317.155741085
 20
-0.503991603
 30
-45.279415222
 11
317.155741085
 21
-0.503991603
 31
-41.279415222
  0
ARC
  5
AFF
330
A02
100
AcDbEntity
  8
f
100
AcDbCircle
 10
317.155741085
 20
1.496008397
 30
-41.279415222
 40
2.000000000
100
AcDbArc
 50
-90.000000000
 51
-90.000000000
  0
CIRCLE
  5
B00
330
A02
100
AcDbEntity
  8
f
100
AcDbCircle
 10
317.155741085
 20
-30.000000564
 30
-5.741231548
 40
1.250000000
  0
CIRCLE
  5
B01
330
A02
100
AcDbEntity
  8
f
100
AcDbCircle
 10
317.155741085
 20
-50.000000564
 30
-5.741231548
 40
1.250000000
  0
CIRCLE
  5
B02
330
A02
100
AcDbEntity
  8
f
100
AcDbCircle
 10
317.155741085
 20
-30.000000564
 30
-25.741231548
 40
1.250000000
  0
CIRCLE
  5
B03
330
A02
100
AcDbEntity
  8
f
100
AcDbCircle
 10
317.155741085
 20
-40.000000564
 30
-15.741231548
 40
8.000000000
  0
CIRCLE
  5
B04
330
A02
100
AcDbEntity
  8
f
100
AcDbCircle
 10
317.155741085
 20
-50.000000564
 30
-25.741231548
 40
1.250000000
  0
LINE
  5
B05
330
A02
100
AcDbEntity
  8
f
100
AcDbLine
 10
317.155741085
 20
-87.129620031
 30
6.758768452
 11
317.155741085
 21
-82.329620031
 31
6.758768452
  0
ARC
  5
B06
330
A02
100
AcDbEntity
  8
f
100
AcDbCircle
 10
317.155741085
 20
-82.329620031
 30
2.758768452
 40
4.000000000
100
AcDbArc
 50
-90.000000000
 51
90.000000000
  0
LINE
  5
B07
330
A02
100
AcDbEntity
  8
f
100
AcDbLine
 10
317.155741085
 20
-78.329620031
 30
2.758768452
 11
317.155741085
 21
-78.329620031
 31
-34.241231548
  0
ARC
  5
B08
330
A02
100
AcDbEntity
  8
f
100
AcDbCircle
 10
317.155741085
 20
-82.329620031
 30
-34.241231548
 40
0.000000000
100
AcDbArc
 50
0.000000000
 51
90.000000000
  0
LINE
  5
B09
330
A02
100
AcDbEntity
  8
f
100
AcDbLine
 10
317.155741085
 20
-82.329620031
 30
-38.241231548
 11
317.155741085
 21
-87.129620031
 31
-38.241231548
  0
ARC
  5
B0A
330
A02
100
AcDbEntity
  8
f
100
AcDbCircle
 10
317.155741085
 20
-87.129620031
 30
-34.241231548
 40
4.000000000
100
AcDbArc
 50
0.000000000
 51
-90.000000000
  0
LINE
  5
B0B
330
A02
100
AcDbEntity
  8
f
100
AcDbLine
 10
317.155741085
 20
-91.129620031
 30
-34.241231548
 11
317.155741085
 21
-91.129620031
 31
2.758768452
  0
ARC
  5
B0C
330
A02
100
AcDbEntity
  8
f
100
AcDbCircle
 10
317.155741085
 20
-87.129620031
 30
2.758768452
 40
0.000000000
100
AcDbArc
 50
0.000000000
 51
-90.000000000
  0
ENDSEC
  0
SECTION
  2
OBJECTS
  0
DICTIONARY
  5
F000
330
0
100
AcDbDictionary
  3
ACAD_GROUP
350
F001
  0
DICTIONARY
  5
F001
330
F000
100
AcDbDictionary
  0
ENDSEC
  0
EOF