999
FreeCAD v1.1 20260928 (Git shallow)
  0
SECTION
  2
HEADER
  9
$ACADVER
  1
AC1014
  9
$ACADMAINTVER
 70
     9
  9
$DWGCODEPAGE
  3
ANSI_1252
  9
$TEXTSTYLE
  7
STANDARD
  9
$DIMSTYLE
  2
STANDARD
  9
$DIMTXSTY
  7
STANDARD
  9
$CMLSTYLE
  2
STANDARD
  9
$LUNITS
 70
2
  9
$INSUNITS
 70
4
  9
$PEXTMAX
 10
50
 20
50
 30
50
  9
$PEXTMIN
 10
0
 20
0
 30
0
  9
$HANDSEED
  5
FFFF
  0
ENDSEC
  0
SECTION
  2
CLASSES
  0
CLASS
  1
ACDBDICTIONARYWDFLT
  2
AcDbDictionaryWithDefault
  3
ObjectDBX Classes
 90
        0
280
     0
281
     0
  0
CLASS
  1
XRECORD
  2
AcDbXrecord
  3
ObjectDBX Classes
 90
        0
280
     0
281
     0
  0
CLASS
  1
LWPOLYLINE
  2
AcDbPolyline
  3
ObjectDBX Classes
 90
        0
280
     0
281
     1
  0
ENDSEC
  0
SECTION
  2
TABLES
  0
TABLE
  2
VPORT
  5
20
330
0
100
AcDbSymbolTable
 70
     1
  0
VPORT
  5
21
330
20
100
AcDbSymbolTableRecord
100
AcDbViewportTableRecord
  2
*ACTIVE
 70
     0
  0
ENDTAB
  0
TABLE
  2
LTYPE
  5
22
330
0
100
AcDbSymbolTable
 70
     1
  0
LTYPE
  5
23
330
21
100
AcDbSymbolTableRecord
100
AcDbLinetypeTableRecord
  2
BYBLOCK
 70
     0
  3

 72
    65
 73
     0
 40
0.0
  0
LTYPE
  5
24
330
21
100
AcDbSymbolTableRecord
100
AcDbLinetypeTableRecord
  2
BYLAYER
 70
     0
  3

 72
    65
 73
     0
 40
0.0
  0
LTYPE
  5
25
330
21
100
AcDbSymbolTableRecord
100
AcDbLinetypeTableRecord
  2
CONTINUOUS
 70
     0
  3
Solid line
 72
    65
 73
     0
 40
0.0
  0
ENDTAB
  0
TABLE
  2
LAYER
  5
A6F
330
0
100
AcDbSymbolTable
 70
3
  0
LAYER
  5
A70
330
A6F
100
AcDbSymbolTableRecord
100
AcDbLayerTableRecord
  2
0
 70
   0
 62
   7
  6
CONTINUOUS
  0
LAYER
  5
A71
330
A6F
100
AcDbSymbolTableRecord
100
AcDbLayerTableRecord
  2
none
 70
    0
 62
    7
  6
CONTINUOUS
  0
LAYER
  5
A72
330
A6F
100
AcDbSymbolTableRecord
100
AcDbLayerTableRecord
  2
f
 70
    0
 62
    7
  6
CONTINUOUS
  0
ENDTAB
  0
TABLE
  2
STYLE
  5
70
330
0
100
AcDbSymbolTable
 70
     2
  0
STYLE
  5
71
330
70
100
AcDbSymbolTableRecord
100
AcDbTextStyleTableRecord
  2
STANDARD
 70
     0
 40
0.0
 41
1.0
 50
0.0
 71
     0
 42
2.5
  3
arial.ttf
  4

  0
STYLE
  5
72
330
70
100
AcDbSymbolTableRecord
100
AcDbTextStyleTableRecord
  2
ANNOTATIVE
 70
     0
 40
0.0
 41
1.0
 50
0.0
 71
     0
 42
2.5
  3
arial.ttf
  4

  0
ENDTAB
  0
TABLE
  2
VIEW
  5
73
330
0
100
AcDbSymbolTable
 70
     0
  0
ENDTAB
  0
TABLE
  2
UCS
  5
74
330
0
100
AcDbSymbolTable
 70
     0
  0
ENDTAB
  0
TABLE
  2
APPID
  5
75
330
0
100
AcDbSymbolTable
 70
     2
  0
APPID
  5
76
330
75
100
AcDbSymbolTableRecord
100
AcDbRegAppTableRecord
  2
ACAD
 70
     0
  0
APPID
  5
77
330
75
100
AcDbSymbolTableRecord
100
AcDbRegAppTableRecord
  2
ACADANNOTATIVE
 70
     0
  0
ENDTAB
  0
TABLE
  2
DIMSTYLE
  5
78
330
0
100
AcDbSymbolTable
 70
     2
  0
DIMSTYLE
105
79
330
78
100
AcDbSymbolTableRecord
100
AcDbDimStyleTableRecord
  2
STANDARD
 70
     0
  3

  4

  5

  6

  7

 40
0.0
 41
2.5
 42
0.625
 43
3.75
 44
1.25
 45
0.0
 46
0.0
 47
0.0
 48
0.0
140
2.5
141
2.5
142
0.0
143
0.03937007874016
144
1.0
145
0.0
146
1.0
147
0.625
 71
     0
 72
     0
 73
     0
 74
     0
 75
     0
 76
     0
 77
     1
 78
     8
170
     0
171
     3
172
     1
173
     0
174
     0
175
     0
176
     0
177
     0
178
     0
270
     2
271
     2
272
     2
273
     2
274
     3
340
71
275
     0
280
     0
281
     0
282
     0
283
     0
284
     8
285
     0
286
     0
287
     3
288
     0
  0
ENDTAB
  0
TABLE
  2
BLOCK_RECORD
  5
A01
330
0
100
AcDbSymbolTable
  70
5
  0
BLOCK_RECORD
  5
A02
330
A01
100
AcDbSymbolTableRecord
100
AcDbBlockTableRecord
  2
*MODEL_SPACE
  0
BLOCK_RECORD
  5
A03
330
A01
100
AcDbSymbolTableRecord
100
AcDbBlockTableRecord
  2
*PAPER_SPACE
  0
ENDTAB
  0
ENDSEC
  0
SECTION
  2
BLOCKS
  0
BLOCK
  5
A04
330
A02
100
AcDbEntity
  8
0
100
AcDbBlockBegin
  2
*MODEL_SPACE
 70
   0
 10
0
 20
0
 30
0
  3
*MODEL_SPACE
  1
 
  0
ENDBLK
  5
A05
330
A02
100
AcDbEntity
  8
0
100
AcDbBlockEnd
  0
BLOCK
  5
A06
330
A03
100
AcDbEntity
 67
1
  8
0
100
AcDbBlockBegin
  2
*PAPER_SPACE
 70
   0
 10
0
 20
0
 30
0
  3
*PAPER_SPACE
  1
 
  0
ENDBLK
  5
A07
330
A03
100
AcDbEntity
 67
    1
  8
0
100
AcDbBlockEnd
  0
ENDSEC
  0
SECTION
  2
ENTITIES
  0
ARC
  5
A08
330
A02
100
AcDbEntity
  8
f
100
AcDbCircle
 10
23.131940568
 20
-37.004007690
 30
25.258983617
 40
5.000000000
100
AcDbArc
 50
90.000000000
 51
180.000000000
  0
LINE
  5
A09
330
A02
100
AcDbEntity
  8
f
100
AcDbLine
 10
18.131940568
 20
-37.004007690
 30
25.258983617
 11
18.131940568
 21
-37.004021677
 31
345.258918785
  0
ARC
  5
A0A
330
A02
100
AcDbEntity
  8
f
100
AcDbCircle
 10
23.131940568
 20
-37.004021677
 30
345.258918785
 40
0.000000219
100
AcDbArc
 50
180.000000000
 51
-90.000000000
  0
LINE
  5
A0B
330
A02
100
AcDbEntity
  8
f
100
AcDbLine
 10
35.394465771
 20
-37.004021896
 30
350.258918785
 11
23.131940568
 21
-37.004021896
 31
350.258918785
  0
ARC
  5
A0C
330
A02
100
AcDbEntity
  8
f
100
AcDbCircle
 10
35.394465771
 20
-37.004022114
 30
355.258918785
 40
5.000000000
100
AcDbArc
 50
0.000000000
 51
89.999998137
  0
LINE
  5
A0D
330
A02
100
AcDbEntity
  8
f
100
AcDbLine
 10
40.394465771
 20
-37.004022114
 30
355.258918785
 11
40.394465771
 21
-37.004022967
 31
374.758763250
  0
ARC
  5
A0E
330
A02
100
AcDbEntity
  8
f
100
AcDbCircle
 10
41.394465771
 20
-37.004022967
 30
374.758763250
 40
0.000000044
100
AcDbArc
 50
180.000000000
 51
-90.000000000
  0
LINE
  5
A0F
330
A02
100
AcDbEntity
  8
f
100
AcDbLine
 10
41.394465771
 20
-37.004023010
 30
375.758763250
 11
46.194437922
 21
-37.004023010
 31
375.758763250
  0
ARC
  5
A10
330
A02
100
AcDbEntity
  8
f
100
AcDbCircle
 10
46.194437922
 20
-37.004022967
 30
374.758763250
 40
1.000000000
100
AcDbArc
 50
-90.000000000
 51
0.000000000
  0
LINE
  5
A11
330
A02
100
AcDbEntity
  8
f
100
AcDbLine
 10
47.194437922
 20
-37.004022967
 30
374.758763250
 11
47.194437922
 21
-37.004022814
 31
371.258763250
  0
ARC
  5
A12
330
A02
100
AcDbEntity
  8
f
100
AcDbCircle
 10
52.194437922
 20
-37.004022814
 30
371.258763250
 40
0.000000219
100
AcDbArc
 50
90.000000000
 51
180.000000000
  0
LINE
  5
A13
330
A02
100
AcDbEntity
  8
f
100
AcDbLine
 10
52.194437922
 20
-37.004022595
 30
366.258763250
 11
278.194437922
 21
-37.004022595
 31
366.258763250
  0
ARC
  5
A14
330
A02
100
AcDbEntity
  8
f
100
AcDbCircle
 10
278.194437922
 20
-37.004022814
 30
371.258763250
 40
5.000000000
100
AcDbArc
 50
0.000000000
 51
90.000000000
  0
LINE
  5
A15
330
A02
100
AcDbEntity
  8
f
100
AcDbLine
 10
283.194437922
 20
-37.004022814
 30
371.258763250
 11
283.194437922
 21
-37.004022967
 31
374.758763250
  0
ARC
  5
A16
330
A02
100
AcDbEntity
  8
f
100
AcDbCircle
 10
284.194437922
 20
-37.004022967
 30
374.758763250
 40
0.000000044
100
AcDbArc
 50
180.000000000
 51
-90.000000000
  0
LINE
  5
A17
330
A02
100
AcDbEntity
  8
f
100
AcDbLine
 10
284.194437922
 20
-37.004023010
 30
375.758763250
 11
288.994465875
 21
-37.004023010
 31
375.758763250
  0
ARC
  5
A18
330
A02
100
AcDbEntity
  8
f
100
AcDbCircle
 10
288.994465875
 20
-37.004022967
 30
374.758763250
 40
1.000000000
100
AcDbArc
 50
-90.000000000
 51
0.000000000
  0
LINE
  5
A19
330
A02
100
AcDbEntity
  8
f
100
AcDbLine
 10
289.994465875
 20
-37.004022967
 30
374.758763250
 11
289.994465875
 21
-37.004021983
 31
352.258763250
  0
ARC
  5
A1A
330
A02
100
AcDbEntity
  8
f
100
AcDbCircle
 10
284.994465875
 20
-37.004021983
 30
352.258763250
 40
0.000000219
100
AcDbArc
 50
0.000000000
 51
90.000000000
  0
LINE
  5
A1B
330
A02
100
AcDbEntity
  8
f
100
AcDbLine
 10
284.994465875
 20
-37.004021765
 30
347.258763250
 11
283.994466162
 21
-37.004021765
 31
347.258763250
  0
ARC
  5
A1C
330
A02
100
AcDbEntity
  8
f
100
AcDbCircle
 10
283.994466162
 20
-37.004021546
 30
342.258763250
 40
5.000000000
100
AcDbArc
 50
180.000000000
 51
-90.000000000
  0
LINE
  5
A1D
330
A02
100
AcDbEntity
  8
f
100
AcDbLine
 10
278.994466162
 20
-37.004005810
 30
-17.741081215
 11
278.994466162
 21
-37.004021546
 31
342.258763250
  0
ARC
  5
A1E
330
A02
100
AcDbEntity
  8
f
100
AcDbCircle
 10
276.994466162
 20
-37.004005810
 30
-17.741081215
 40
0.000000087
100
AcDbArc
 50
0.000000000
 51
90.000000000
  0
LINE
  5
A1F
330
A02
100
AcDbEntity
  8
f
100
AcDbLine
 10
276.994466162
 20
-37.004005723
 30
-19.741081215
 11
53.394466162
 21
-37.004005723
 31
-19.741081215
  0
ARC
  5
A20
330
A02
100
AcDbEntity
  8
f
100
AcDbCircle
 10
53.394466162
 20
-37.004005810
 30
-17.741081215
 40
2.000000000
100
AcDbArc
 50
90.000000000
 51
180.000000000
  0
LINE
  5
A21
330
A02
100
AcDbEntity
  8
f
100
AcDbLine
 10
51.394466162
 20
-37.004005810
 30
-17.741081215
 11
51.394466162
 21
-37.004006160
 31
-9.741016383
  0
LINE
  5
A22
330
A02
100
AcDbEntity
  8
f
100
AcDbLine
 10
51.394466162
 20
-37.004006160
 30
-9.741016383
 11
51.394466162
 21
-37.004007253
 31
15.258983617
  0
ARC
  5
A23
330
A02
100
AcDbEntity
  8
f
100
AcDbCircle
 10
46.394466162
 20
-37.004007253
 30
15.258983617
 40
0.000000219
100
AcDbArc
 50
-90.000000000
 51
0.000000000
  0
LINE
  5
A24
330
A02
100
AcDbEntity
  8
f
100
AcDbLine
 10
46.394466162
 20
-37.004007471
 30
20.258983617
 11
23.131940568
 21
-37.004007471
 31
20.258983617
  0
CIRCLE
  5
A25
330
A02
100
AcDbEntity
  8
f
100
AcDbCircle
 10
236.994466162
 20
-37.004020453
 30
317.258763250
 40
1.750000000
  0
CIRCLE
  5
A26
330
A02
100
AcDbEntity
  8
f
100
AcDbCircle
 10
121.994466162
 20
-37.004021109
 30
332.258763250
 40
1.750000000
  0
CIRCLE
  5
A27
330
A02
100
AcDbEntity
  8
f
100
AcDbCircle
 10
236.994466162
 20
-37.004021109
 30
332.258763250
 40
1.750000000
  0
CIRCLE
  5
A28
330
A02
100
AcDbEntity
  8
f
100
AcDbCircle
 10
121.994466162
 20
-37.004020453
 30
317.258763250
 40
1.750000000
  0
ARC
  5
A29
330
A02
100
AcDbEntity
  8
f
100
AcDbCircle
 10
126.409501465
 20
-37.004013962
 30
168.759418356
 40
5.000000000
100
AcDbArc
 50
90.000000000
 51
180.000000000
  0
LINE
  5
A2A
330
A02
100
AcDbEntity
  8
f
100
AcDbLine
 10
121.409501465
 20
-37.004013962
 30
168.759418356
 11
121.409501465
 21
-37.004014259
 31
175.541516077
  0
ARC
  5
A2B
330
A02
100
AcDbEntity
  8
f
100
AcDbCircle
 10
116.409501465
 20
-37.004014259
 30
175.541516077
 40
0.000000219
100
AcDbArc
 50
-90.000000000
 51
0.000000000
  0
LINE
  5
A2C
330
A02
100
AcDbEntity
  8
f
100
AcDbLine
 10
116.409501465
 20
-37.004014477
 30
180.541516077
 11
57.694465771
 21
-37.004014477
 31
180.541516077
  0
ARC
  5
A2D
330
A02
100
AcDbEntity
  8
f
100
AcDbCircle
 10
57.694465771
 20
-37.004014259
 30
175.541516077
 40
5.000000000
100
AcDbArc
 50
180.000000000
 51
-90.000001863
  0
LINE
  5
A2E
330
A02
100
AcDbEntity
  8
f
100
AcDbLine
 10
52.694465771
 20
-37.004014259
 30
175.541516077
 11
52.694465771
 21
-37.004009154
 31
58.758918785
  0
ARC
  5
A2F
330
A02
100
AcDbEntity
  8
f
100
AcDbCircle
 10
57.694465771
 20
-37.004009154
 30
58.758918785
 40
0.000000219
100
AcDbArc
 50
90.000000000
 51
180.000000000
  0
LINE
  5
A30
330
A02
100
AcDbEntity
  8
f
100
AcDbLine
 10
57.694465771
 20
-37.004008935
 30
53.758918785
 11
143.231465771
 21
-37.004008935
 31
53.758918785
  0
ARC
  5
A31
330
A02
100
AcDbEntity
  8
f
100
AcDbCircle
 10
143.231465771
 20
-37.004009154
 30
58.758918785
 40
5.000000000
100
AcDbArc
 50
0.000000000
 51
90.000000000
  0
LINE
  5
A32
330
A02
100
AcDbEntity
  8
f
100
AcDbLine
 10
148.231465771
 20
-37.004009154
 30
58.758918785
 11
148.231465771
 21
-37.004013525
 31
158.759418356
  0
ARC
  5
A33
330
A02
100
AcDbEntity
  8
f
100
AcDbCircle
 10
143.231465771
 20
-37.004013525
 30
158.759418356
 40
0.000000219
100
AcDbArc
 50
-90.000000000
 51
0.000000000
  0
LINE
  5
A34
330
A02
100
AcDbEntity
  8
f
100
AcDbLine
 10
143.231465771
 20
-37.004013744
 30
163.759418356
 11
126.409501465
 21
-37.004013744
 31
163.759418356
  0
ARC
  5
A35
330
A02
100
AcDbEntity
  8
f
100
AcDbCircle
 10
241.409501465
 20
-37.004013962
 30
168.759001922
 40
5.000000000
100
AcDbArc
 50
90.000000000
 51
180.000000000
  0
LINE
  5
A36
330
A02
100
AcDbEntity
  8
f
100
AcDbLine
 10
236.409501465
 20
-37.004013962
 30
168.759001922
 11
236.409501465
 21
-37.004014259
 31
175.541516077
  0
ARC
  5
A37
330
A02
100
AcDbEntity
  8
f
100
AcDbCircle
 10
231.409501465
 20
-37.004014259
 30
175.541516077
 40
0.000000219
100
AcDbArc
 50
-90.000000000
 51
0.000000000
  0
LINE
  5
A38
330
A02
100
AcDbEntity
  8
f
100
AcDbLine
 10
231.409501465
 20
-37.004014477
 30
180.541516077
 11
203.231465793
 21
-37.004014477
 31
180.541516077
  0
ARC
  5
A39
330
A02
100
AcDbEntity
  8
f
100
AcDbCircle
 10
203.231465793
 20
-37.004014259
 30
175.541516077
 40
5.000000000
100
AcDbArc
 50
180.000000000
 51
-90.000000000
  0
LINE
  5
A3A
330
A02
100
AcDbEntity
  8
f
100
AcDbLine
 10
198.231465793
 20
-37.004014259
 30
175.541516077
 11
198.231465793
 21
-37.004009154
 31
58.758918785
  0
ARC
  5
A3B
330
A02
100
AcDbEntity
  8
f
100
AcDbCircle
 10
203.231465793
 20
-37.004009154
 30
58.758918785
 40
0.000000219
100
AcDbArc
 50
90.000000000
 51
180.000000000
  0
LINE
  5
A3C
330
A02
100
AcDbEntity
  8
f
100
AcDbLine
 10
203.231465793
 20
-37.004009198
 30
53.758918785
 11
243.894465793
 21
-37.004009198
 31
53.758918785
  0
ARC
  5
A3D
330
A02
100
AcDbEntity
  8
f
100
AcDbCircle
 10
243.894465793
 20
-37.004009154
 30
58.758918785
 40
5.000000000
100
AcDbArc
 50
0.000000000
 51
90.000000000
  0
LINE
  5
A3E
330
A02
100
AcDbEntity
  8
f
100
AcDbLine
 10
248.894465793
 20
-37.004009154
 30
58.758918785
 11
248.894465793
 21
-37.004013525
 31
158.759001922
  0
ARC
  5
A3F
330
A02
100
AcDbEntity
  8
f
100
AcDbCircle
 10
243.894465793
 20
-37.004013525
 30
158.759001922
 40
0.000000219
100
AcDbArc
 50
-90.000000000
 51
0.000000000
  0
LINE
  5
A40
330
A02
100
AcDbEntity
  8
f
100
AcDbLine
 10
243.894465793
 20
-37.004013317
 30
163.759001922
 11
241.409501465
 21
-37.004013317
 31
163.759001922
  0
LINE
  5
A41
330
A02
100
AcDbEntity
  8
f
100
AcDbLine
 10
52.694465771
 20
-37.004019229
 30
289.258763250
 11
52.694465771
 21
-37.004015601
 31
206.258918785
  0
ARC
  5
A42
330
A02
100
AcDbEntity
  8
f
100
AcDbCircle
 10
57.694465771
 20
-37.004015601
 30
206.258918785
 40
0.000000219
100
AcDbArc
 50
90.000000000
 51
180.000000000
  0
LINE
  5
A43
330
A02
100
AcDbEntity
  8
f
100
AcDbLine
 10
243.894465793
 20
-37.004015383
 30
201.258918785
 11
57.694465771
 21
-37.004015383
 31
201.258918785
  0
ARC
  5
A44
330
A02
100
AcDbEntity
  8
f
100
AcDbCircle
 10
243.894465793
 20
-37.004015601
 30
206.258918785
 40
5.000000000
100
AcDbArc
 50
0.000000000
 51
90.000000000
  0
LINE
  5
A45
330
A02
100
AcDbEntity
  8
f
100
AcDbLine
 10
248.894465793
 20
-37.004015601
 30
206.258918785
 11
248.894465793
 21
-37.004019229
 31
289.258763250
  0
ARC
  5
A46
330
A02
100
AcDbEntity
  8
f
100
AcDbCircle
 10
243.894465793
 20
-37.004019229
 30
289.258763250
 40
0.000000219
100
AcDbArc
 50
-90.000000000
 51
0.000000000
  0
LINE
  5
A47
330
A02
100
AcDbEntity
  8
f
100
AcDbLine
 10
223.894000000
 20
-37.004019448
 30
294.258763250
 11
243.894465793
 21
-37.004019448
 31
294.258763250
  0
LINE
  5
A48
330
A02
100
AcDbEntity
  8
f
100
AcDbLine
 10
223.894000000
 20
-37.004019448
 30
294.258763250
 11
108.894000000
 21
-37.004019448
 31
294.258763250
  0
LINE
  5
A49
330
A02
100
AcDbEntity
  8
f
100
AcDbLine
 10
83.894000000
 20
-37.004019448
 30
294.258763250
 11
108.894000000
 21
-37.004019448
 31
294.258763250
  0
LINE
  5
A4A
330
A02
100
AcDbEntity
  8
f
100
AcDbLine
 10
83.894000000
 20
-37.004019448
 30
294.258763250
 11
57.694465771
 21
-37.004019448
 31
294.258763250
  0
ARC
  5
A4B
330
A02
100
AcDbEntity
  8
f
100
AcDbCircle
 10
57.694465771
 20
-37.004019229
 30
289.258763250
 40
5.000000000
100
AcDbArc
 50
180.000000000
 51
-90.000000000
  0
LINE
  5
A4C
330
A02
100
AcDbEntity
  8
f
100
AcDbLine
 10
181.994078286
 20
-37.004007296
 30
16.258763804
 11
181.994078286
 21
-37.004006684
 31
2.258763804
  0
ARC
  5
A4D
330
A02
100
AcDbEntity
  8
f
100
AcDbCircle
 10
184.994078286
 20
-37.004006684
 30
2.258763804
 40
0.000000131
100
AcDbArc
 50
90.000000000
 51
180.000000000
  0
LINE
  5
A4E
330
A02
100
AcDbEntity
  8
f
100
AcDbLine
 10
184.994078286
 20
-37.004006553
 30
-0.741236196
 11
248.994078286
 21
-37.004006553
 31
-0.741236196
  0
ARC
  5
A4F
330
A02
100
AcDbEntity
  8
f
100
AcDbCircle
 10
248.994078286
 20
-37.004006684
 30
2.258763804
 40
3.000000000
100
AcDbArc
 50
0.000000000
 51
90.000000000
  0
LINE
  5
A50
330
A02
100
AcDbEntity
  8
f
100
AcDbLine
 10
251.994078286
 20
-37.004006684
 30
2.258763804
 11
251.994078286
 21
-37.004007296
 31
16.258763804
  0
ARC
  5
A51
330
A02
100
AcDbEntity
  8
f
100
AcDbCircle
 10
248.994078286
 20
-37.004007296
 30
16.258763804
 40
0.000000131
100
AcDbArc
 50
-90.000000000
 51
0.000000000
  0
LINE
  5
A52
330
A02
100
AcDbEntity
  8
f
100
AcDbLine
 10
248.994078286
 20
-37.004007427
 30
19.258763804
 11
184.994078286
 21
-37.004007427
 31
19.258763804
  0
ARC
  5
A53
330
A02
100
AcDbEntity
  8
f
100
AcDbCircle
 10
184.994078286
 20
-37.004007296
 30
16.258763804
 40
3.000000000
100
AcDbArc
 50
180.000000000
 51
-90.000000000
  0
CIRCLE
  5
A54
330
A02
100
AcDbEntity
  8
f
100
AcDbCircle
 10
105.194000000
 20
-37.004022071
 30
354.259128000
 40
1.750000000
  0
CIRCLE
  5
A55
330
A02
100
AcDbEntity
  8
f
100
AcDbCircle
 10
255.194000000
 20
-37.004022071
 30
354.259128000
 40
1.750000000
  0
CIRCLE
  5
A56
330
A02
100
AcDbEntity
  8
f
100
AcDbCircle
 10
75.166106170
 20
-37.004022071
 30
354.259128000
 40
1.750000000
  0
CIRCLE
  5
A57
330
A02
100
AcDbEntity
  8
f
100
AcDbCircle
 10
225.166106170
 20
-37.004022071
 30
354.259128000
 40
1.750000000
  0
CIRCLE
  5
A58
330
A02
100
AcDbEntity
  8
f
100
AcDbCircle
 10
58.444466162
 20
-37.004006728
 30
3.258768561
 40
1.750000000
  0
CIRCLE
  5
A59
330
A02
100
AcDbEntity
  8
f
100
AcDbCircle
 10
271.944466162
 20
-37.004006728
 30
3.258768561
 40
1.750000000
  0
CIRCLE
  5
A5A
330
A02
100
AcDbEntity
  8
f
100
AcDbCircle
 10
256.184940568
 20
-37.004021212
 30
334.613919678
 40
1.250000000
  0
CIRCLE
  5
A5B
330
A02
100
AcDbEntity
  8
f
100
AcDbCircle
 10
183.794940568
 20
-37.004014328
 30
177.133919678
 40
1.250000000
  0
CIRCLE
  5
A5C
330
A02
100
AcDbEntity
  8
f
100
AcDbCircle
 10
28.854940568
 20
-37.004008888
 30
52.673919678
 40
1.250000000
  0
CIRCLE
  5
A5D
330
A02
100
AcDbEntity
  8
f
100
AcDbCircle
 10
256.184940568
 20
-37.004014328
 30
177.133919678
 40
1.250000000
  0
CIRCLE
  5
A5E
330
A02
100
AcDbEntity
  8
f
100
AcDbCircle
 10
183.794940568
 20
-37.004021212
 30
334.613919678
 40
1.250000000
  0
CIRCLE
  5
A5F
330
A02
100
AcDbEntity
  8
f
100
AcDbCircle
 10
28.854940568
 20
-37.004014328
 30
177.133919678
 40
1.250000000
  0
CIRCLE
  5
A60
330
A02
100
AcDbEntity
  8
f
100
AcDbCircle
 10
183.794940568
 20
-37.004008888
 30
52.673919678
 40
1.250000000
  0
CIRCLE
  5
A61
330
A02
100
AcDbEntity
  8
f
100
AcDbCircle
 10
256.184940568
 20
-37.004008888
 30
52.673919678
 40
1.250000000
  0
CIRCLE
  5
A62
330
A02
100
AcDbEntity
  8
f
100
AcDbCircle
 10
51.714940568
 20
-37.004021212
 30
334.613919678
 40
1.250000000
  0
ARC
  5
A63
330
A02
100
AcDbEntity
  8
f
100
AcDbCircle
 10
134.394078286
 20
-37.004007296
 30
16.258763804
 40
0.000000131
100
AcDbArc
 50
-90.000000000
 51
0.000000000
  0
LINE
  5
A64
330
A02
100
AcDbEntity
  8
f
100
AcDbLine
 10
134.394078286
 20
-37.004007427
 30
19.258763804
 11
70.394078286
 21
-37.004007427
 31
19.258763804
  0
ARC
  5
A65
330
A02
100
AcDbEntity
  8
f
100
AcDbCircle
 10
70.394078286
 20
-37.004007296
 30
16.258763804
 40
3.000000000
100
AcDbArc
 50
180.000000000
 51
-90.000000000
  0
LINE
  5
A66
330
A02
100
AcDbEntity
  8
f
100
AcDbLine
 10
67.394078286
 20
-37.004007296
 30
16.258763804
 11
67.394078286
 21
-37.004006684
 31
2.258763804
  0
ARC
  5
A67
330
A02
100
AcDbEntity
  8
f
100
AcDbCircle
 10
70.394078286
 20
-37.004006684
 30
2.258763804
 40
0.000000131
100
AcDbArc
 50
90.000000000
 51
180.000000000
  0
LINE
  5
A68
330
A02
100
AcDbEntity
  8
f
100
AcDbLine
 10
70.394078286
 20
-37.004006553
 30
-0.741236196
 11
134.394078286
 21
-37.004006553
 31
-0.741236196
  0
ARC
  5
A69
330
A02
100
AcDbEntity
  8
f
100
AcDbCircle
 10
134.394078286
 20
-37.004006684
 30
2.258763804
 40
3.000000000
100
AcDbArc
 50
0.000000000
 51
90.000000000
  0
LINE
  5
A6A
330
A02
100
AcDbEntity
  8
f
100
AcDbLine
 10
137.394078286
 20
-37.004007296
 30
16.258763804
 11
137.394078286
 21
-37.004006684
 31
2.258763804
  0
CIRCLE
  5
A6B
330
A02
100
AcDbEntity
  8
f
100
AcDbCircle
 10
126.409501465
 20
-37.004008738
 30
49.241516077
 40
1.750000000
  0
CIRCLE
  5
A6C
330
A02
100
AcDbEntity
  8
f
100
AcDbCircle
 10
126.409501465
 20
-37.004014040
 30
170.541516077
 40
1.750000000
  0
CIRCLE
  5
A6D
330
A02
100
AcDbEntity
  8
f
100
AcDbCircle
 10
241.409501465
 20
-37.004008738
 30
49.241516077
 40
1.750000000
  0
CIRCLE
  5
A6E
330
A02
100
AcDbEntity
  8
f
100
AcDbCircle
 10
241.409501465
 20
-37.004014040
 30
170.541516077
 40
1.750000000
  0
ENDSEC
  0
SECTION
  2
OBJECTS
  0
DICTIONARY
  5
F000
330
0
100
AcDbDictionary
  3
ACAD_GROUP
350
F001
  0
DICTIONARY
  5
F001
330
F000
100
AcDbDictionary
  0
ENDSEC
  0
EOF