999
FreeCAD v1.1 20260928 (Git shallow)
  0
SECTION
  2
HEADER
  9
$ACADVER
  1
AC1014
  9
$ACADMAINTVER
 70
     9
  9
$DWGCODEPAGE
  3
ANSI_1252
  9
$TEXTSTYLE
  7
STANDARD
  9
$DIMSTYLE
  2
STANDARD
  9
$DIMTXSTY
  7
STANDARD
  9
$CMLSTYLE
  2
STANDARD
  9
$LUNITS
 70
2
  9
$INSUNITS
 70
4
  9
$PEXTMAX
 10
50
 20
50
 30
50
  9
$PEXTMIN
 10
0
 20
0
 30
0
  9
$HANDSEED
  5
FFFF
  0
ENDSEC
  0
SECTION
  2
CLASSES
  0
CLASS
  1
ACDBDICTIONARYWDFLT
  2
AcDbDictionaryWithDefault
  3
ObjectDBX Classes
 90
        0
280
     0
281
     0
  0
CLASS
  1
XRECORD
  2
AcDbXrecord
  3
ObjectDBX Classes
 90
        0
280
     0
281
     0
  0
CLASS
  1
LWPOLYLINE
  2
AcDbPolyline
  3
ObjectDBX Classes
 90
        0
280
     0
281
     1
  0
ENDSEC
  0
SECTION
  2
TABLES
  0
TABLE
  2
VPORT
  5
20
330
0
100
AcDbSymbolTable
 70
     1
  0
VPORT
  5
21
330
20
100
AcDbSymbolTableRecord
100
AcDbViewportTableRecord
  2
*ACTIVE
 70
     0
  0
ENDTAB
  0
TABLE
  2
LTYPE
  5
22
330
0
100
AcDbSymbolTable
 70
     1
  0
LTYPE
  5
23
330
21
100
AcDbSymbolTableRecord
100
AcDbLinetypeTableRecord
  2
BYBLOCK
 70
     0
  3

 72
    65
 73
     0
 40
0.0
  0
LTYPE
  5
24
330
21
100
AcDbSymbolTableRecord
100
AcDbLinetypeTableRecord
  2
BYLAYER
 70
     0
  3

 72
    65
 73
     0
 40
0.0
  0
LTYPE
  5
25
330
21
100
AcDbSymbolTableRecord
100
AcDbLinetypeTableRecord
  2
CONTINUOUS
 70
     0
  3
Solid line
 72
    65
 73
     0
 40
0.0
  0
ENDTAB
  0
TABLE
  2
LAYER
  5
AA3
330
0
100
AcDbSymbolTable
 70
3
  0
LAYER
  5
AA4
330
AA3
100
AcDbSymbolTableRecord
100
AcDbLayerTableRecord
  2
0
 70
   0
 62
   7
  6
CONTINUOUS
  0
LAYER
  5
AA5
330
AA3
100
AcDbSymbolTableRecord
100
AcDbLayerTableRecord
  2
none
 70
    0
 62
    7
  6
CONTINUOUS
  0
LAYER
  5
AA6
330
AA3
100
AcDbSymbolTableRecord
100
AcDbLayerTableRecord
  2
f
 70
    0
 62
    7
  6
CONTINUOUS
  0
ENDTAB
  0
TABLE
  2
STYLE
  5
70
330
0
100
AcDbSymbolTable
 70
     2
  0
STYLE
  5
71
330
70
100
AcDbSymbolTableRecord
100
AcDbTextStyleTableRecord
  2
STANDARD
 70
     0
 40
0.0
 41
1.0
 50
0.0
 71
     0
 42
2.5
  3
arial.ttf
  4

  0
STYLE
  5
72
330
70
100
AcDbSymbolTableRecord
100
AcDbTextStyleTableRecord
  2
ANNOTATIVE
 70
     0
 40
0.0
 41
1.0
 50
0.0
 71
     0
 42
2.5
  3
arial.ttf
  4

  0
ENDTAB
  0
TABLE
  2
VIEW
  5
73
330
0
100
AcDbSymbolTable
 70
     0
  0
ENDTAB
  0
TABLE
  2
UCS
  5
74
330
0
100
AcDbSymbolTable
 70
     0
  0
ENDTAB
  0
TABLE
  2
APPID
  5
75
330
0
100
AcDbSymbolTable
 70
     2
  0
APPID
  5
76
330
75
100
AcDbSymbolTableRecord
100
AcDbRegAppTableRecord
  2
ACAD
 70
     0
  0
APPID
  5
77
330
75
100
AcDbSymbolTableRecord
100
AcDbRegAppTableRecord
  2
ACADANNOTATIVE
 70
     0
  0
ENDTAB
  0
TABLE
  2
DIMSTYLE
  5
78
330
0
100
AcDbSymbolTable
 70
     2
  0
DIMSTYLE
105
79
330
78
100
AcDbSymbolTableRecord
100
AcDbDimStyleTableRecord
  2
STANDARD
 70
     0
  3

  4

  5

  6

  7

 40
0.0
 41
2.5
 42
0.625
 43
3.75
 44
1.25
 45
0.0
 46
0.0
 47
0.0
 48
0.0
140
2.5
141
2.5
142
0.0
143
0.03937007874016
144
1.0
145
0.0
146
1.0
147
0.625
 71
     0
 72
     0
 73
     0
 74
     0
 75
     0
 76
     0
 77
     1
 78
     8
170
     0
171
     3
172
     1
173
     0
174
     0
175
     0
176
     0
177
     0
178
     0
270
     2
271
     2
272
     2
273
     2
274
     3
340
71
275
     0
280
     0
281
     0
282
     0
283
     0
284
     8
285
     0
286
     0
287
     3
288
     0
  0
ENDTAB
  0
TABLE
  2
BLOCK_RECORD
  5
A01
330
0
100
AcDbSymbolTable
  70
5
  0
BLOCK_RECORD
  5
A02
330
A01
100
AcDbSymbolTableRecord
100
AcDbBlockTableRecord
  2
*MODEL_SPACE
  0
BLOCK_RECORD
  5
A03
330
A01
100
AcDbSymbolTableRecord
100
AcDbBlockTableRecord
  2
*PAPER_SPACE
  0
ENDTAB
  0
ENDSEC
  0
SECTION
  2
BLOCKS
  0
BLOCK
  5
A04
330
A02
100
AcDbEntity
  8
0
100
AcDbBlockBegin
  2
*MODEL_SPACE
 70
   0
 10
0
 20
0
 30
0
  3
*MODEL_SPACE
  1
 
  0
ENDBLK
  5
A05
330
A02
100
AcDbEntity
  8
0
100
AcDbBlockEnd
  0
BLOCK
  5
A06
330
A03
100
AcDbEntity
 67
1
  8
0
100
AcDbBlockBegin
  2
*PAPER_SPACE
 70
   0
 10
0
 20
0
 30
0
  3
*PAPER_SPACE
  1
 
  0
ENDBLK
  5
A07
330
A03
100
AcDbEntity
 67
    1
  8
0
100
AcDbBlockEnd
  0
ENDSEC
  0
SECTION
  2
ENTITIES
  0
ARC
  5
A08
330
A02
100
AcDbEntity
  8
f
100
AcDbCircle
 10
312.194465793
 20
-149.004173246
 30
346.258767518
 40
5.000000000
100
AcDbArc
 50
0.000000000
 51
-90.000000000
  0
LINE
  5
A09
330
A02
100
AcDbEntity
  8
f
100
AcDbLine
 10
312.194465793
 20
78.995826756
 30
351.258767518
 11
312.194465793
 21
-149.004173246
 31
351.258767518
  0
ARC
  5
A0A
330
A02
100
AcDbEntity
  8
f
100
AcDbCircle
 10
312.194465793
 20
78.995826756
 30
346.258767518
 40
0.000000000
100
AcDbArc
 50
90.000000000
 51
0.000000000
  0
LINE
  5
A0B
330
A02
100
AcDbEntity
  8
f
100
AcDbLine
 10
312.194465793
 20
83.995826756
 30
17.258767637
 11
312.194465793
 21
83.995826756
 31
346.258767518
  0
ARC
  5
A0C
330
A02
100
AcDbEntity
  8
f
100
AcDbCircle
 10
312.194465793
 20
78.995826756
 30
17.258767637
 40
5.000000000
100
AcDbArc
 50
0.000000000
 51
90.000000000
  0
LINE
  5
A0D
330
A02
100
AcDbEntity
  8
f
100
AcDbLine
 10
312.194465793
 20
-149.004173246
 30
12.258767637
 11
312.194465793
 21
78.995826756
 31
12.258767637
  0
ARC
  5
A0E
330
A02
100
AcDbEntity
  8
f
100
AcDbCircle
 10
312.194465793
 20
-149.004173246
 30
17.258767637
 40
0.000000000
100
AcDbArc
 50
-90.000000000
 51
0.000000000
  0
LINE
  5
A0F
330
A02
100
AcDbEntity
  8
f
100
AcDbLine
 10
312.194465793
 20
-154.004173246
 30
346.258767518
 11
312.194465793
 21
-154.004173246
 31
17.258767637
  0
CIRCLE
  5
A10
330
A02
100
AcDbEntity
  8
f
100
AcDbCircle
 10
312.194465793
 20
-35.004193762
 30
27.758768277
 40
2.750000001
  0
LINE
  5
A11
330
A02
100
AcDbEntity
  8
f
100
AcDbLine
 10
312.194465793
 20
-33.004173245
 30
24.008768277
 11
312.194465793
 21
-33.004173245
 31
16.258767577
  0
ARC
  5
A12
330
A02
100
AcDbEntity
  8
f
100
AcDbCircle
 10
312.194465793
 20
-31.004173245
 30
16.258767577
 40
2.000000000
100
AcDbArc
 50
-90.000000000
 51
90.000000000
  0
LINE
  5
A13
330
A02
100
AcDbEntity
  8
f
100
AcDbLine
 10
312.194465793
 20
-29.004173245
 30
16.258767577
 11
312.194465793
 21
-29.004173245
 31
24.008768277
  0
ARC
  5
A14
330
A02
100
AcDbEntity
  8
f
100
AcDbCircle
 10
312.194465793
 20
-31.004173245
 30
24.008768277
 40
2.000000000
100
AcDbArc
 50
90.000000000
 51
-90.000000000
  0
ARC
  5
A15
330
A02
100
AcDbEntity
  8
f
100
AcDbCircle
 10
312.194465793
 20
-39.004173245
 30
24.008768277
 40
2.000000000
100
AcDbArc
 50
90.000000000
 51
-90.000000000
  0
LINE
  5
A16
330
A02
100
AcDbEntity
  8
f
100
AcDbLine
 10
312.194465793
 20
-41.004173245
 30
24.008768277
 11
312.194465793
 21
-41.004173245
 31
16.258767577
  0
ARC
  5
A17
330
A02
100
AcDbEntity
  8
f
100
AcDbCircle
 10
312.194465793
 20
-39.004173245
 30
16.258767577
 40
2.000000000
100
AcDbArc
 50
-90.000000000
 51
90.000000000
  0
LINE
  5
A18
330
A02
100
AcDbEntity
  8
f
100
AcDbLine
 10
312.194465793
 20
-37.004173245
 30
16.258767577
 11
312.194465793
 21
-37.004173245
 31
24.008768277
  0
LINE
  5
A19
330
A02
100
AcDbEntity
  8
f
100
AcDbLine
 10
312.194465793
 20
-37.004173245
 30
31.508768277
 11
312.194465793
 21
-37.004173245
 31
178.008768364
  0
ARC
  5
A1A
330
A02
100
AcDbEntity
  8
f
100
AcDbCircle
 10
312.194465793
 20
-39.004173245
 30
178.008768364
 40
2.000000000
100
AcDbArc
 50
90.000000000
 51
-90.000000000
  0
LINE
  5
A1B
330
A02
100
AcDbEntity
  8
f
100
AcDbLine
 10
312.194465793
 20
-41.004173245
 30
178.008768364
 11
312.194465793
 21
-41.004173245
 31
31.508768277
  0
ARC
  5
A1C
330
A02
100
AcDbEntity
  8
f
100
AcDbCircle
 10
312.194465793
 20
-39.004173245
 30
31.508768277
 40
2.000000000
100
AcDbArc
 50
-90.000000000
 51
90.000000000
  0
CIRCLE
  5
A1D
330
A02
100
AcDbEntity
  8
f
100
AcDbCircle
 10
312.194465793
 20
-35.004312777
 30
181.758768364
 40
2.750000001
  0
LINE
  5
A1E
330
A02
100
AcDbEntity
  8
f
100
AcDbLine
 10
312.194465793
 20
-29.004173245
 30
185.508768364
 11
312.194465793
 21
-29.004173245
 31
332.008768364
  0
ARC
  5
A1F
330
A02
100
AcDbEntity
  8
f
100
AcDbCircle
 10
312.194465793
 20
-31.004173245
 30
332.008768364
 40
2.000000000
100
AcDbArc
 50
90.000000000
 51
-90.000000000
  0
LINE
  5
A20
330
A02
100
AcDbEntity
  8
f
100
AcDbLine
 10
312.194465793
 20
-33.004173245
 30
332.008768364
 11
312.194465793
 21
-33.004173245
 31
185.508768364
  0
ARC
  5
A21
330
A02
100
AcDbEntity
  8
f
100
AcDbCircle
 10
312.194465793
 20
-31.004173245
 30
185.508768364
 40
2.000000000
100
AcDbArc
 50
-90.000000000
 51
90.000000000
  0
ARC
  5
A22
330
A02
100
AcDbEntity
  8
f
100
AcDbCircle
 10
312.194465793
 20
-39.004173245
 30
185.508768364
 40
2.000000000
100
AcDbArc
 50
-90.000000000
 51
90.000000000
  0
LINE
  5
A23
330
A02
100
AcDbEntity
  8
f
100
AcDbLine
 10
312.194465793
 20
-37.004173245
 30
185.508768364
 11
312.194465793
 21
-37.004173245
 31
332.008768364
  0
ARC
  5
A24
330
A02
100
AcDbEntity
  8
f
100
AcDbCircle
 10
312.194465793
 20
-39.004173245
 30
332.008768364
 40
2.000000000
100
AcDbArc
 50
90.000000000
 51
-90.000000000
  0
LINE
  5
A25
330
A02
100
AcDbEntity
  8
f
100
AcDbLine
 10
312.194465793
 20
-41.004173245
 30
332.008768364
 11
312.194465793
 21
-41.004173245
 31
185.508768364
  0
ARC
  5
A26
330
A02
100
AcDbEntity
  8
f
100
AcDbCircle
 10
312.194465793
 20
-39.004173245
 30
339.508768364
 40
2.000000000
100
AcDbArc
 50
-90.000000000
 51
90.000000000
  0
LINE
  5
A27
330
A02
100
AcDbEntity
  8
f
100
AcDbLine
 10
312.194465793
 20
-37.004173245
 30
339.508768364
 11
312.194465793
 21
-37.004173245
 31
347.258767577
  0
ARC
  5
A28
330
A02
100
AcDbEntity
  8
f
100
AcDbCircle
 10
312.194465793
 20
-39.004173245
 30
347.258767577
 40
2.000000000
100
AcDbArc
 50
90.000000000
 51
-90.000000000
  0
LINE
  5
A29
330
A02
100
AcDbEntity
  8
f
100
AcDbLine
 10
312.194465793
 20
-41.004173245
 30
347.258767577
 11
312.194465793
 21
-41.004173245
 31
339.508768364
  0
ARC
  5
A2A
330
A02
100
AcDbEntity
  8
f
100
AcDbCircle
 10
312.194465793
 20
-151.004173245
 30
347.258767577
 40
2.000000000
100
AcDbArc
 50
90.000000000
 51
-90.000000000
  0
LINE
  5
A2B
330
A02
100
AcDbEntity
  8
f
100
AcDbLine
 10
312.194465793
 20
-153.004173245
 30
347.258767577
 11
312.194465793
 21
-153.004173245
 31
16.258767577
  0
ARC
  5
A2C
330
A02
100
AcDbEntity
  8
f
100
AcDbCircle
 10
312.194465793
 20
-151.004173245
 30
16.258767577
 40
2.000000000
100
AcDbArc
 50
-90.000000000
 51
90.000000000
  0
LINE
  5
A2D
330
A02
100
AcDbEntity
  8
f
100
AcDbLine
 10
312.194465793
 20
-149.004173245
 30
16.258767577
 11
312.194465793
 21
-149.004173245
 31
347.258767577
  0
ARC
  5
A2E
330
A02
100
AcDbEntity
  8
f
100
AcDbCircle
 10
312.194465793
 20
-143.004173245
 30
347.258767577
 40
2.000000000
100
AcDbArc
 50
90.000000000
 51
-90.000000000
  0
LINE
  5
A2F
330
A02
100
AcDbEntity
  8
f
100
AcDbLine
 10
312.194465793
 20
-145.004173245
 30
347.258767577
 11
312.194465793
 21
-145.004173245
 31
16.258767577
  0
ARC
  5
A30
330
A02
100
AcDbEntity
  8
f
100
AcDbCircle
 10
312.194465793
 20
-143.004173245
 30
16.258767577
 40
2.000000000
100
AcDbArc
 50
-90.000000000
 51
90.000000000
  0
LINE
  5
A31
330
A02
100
AcDbEntity
  8
f
100
AcDbLine
 10
312.194465793
 20
-141.004173245
 30
16.258767577
 11
312.194465793
 21
-141.004173245
 31
347.258767577
  0
ARC
  5
A32
330
A02
100
AcDbEntity
  8
f
100
AcDbCircle
 10
312.194465793
 20
-135.004173245
 30
347.258767577
 40
2.000000000
100
AcDbArc
 50
90.000000000
 51
-90.000000000
  0
LINE
  5
A33
330
A02
100
AcDbEntity
  8
f
100
AcDbLine
 10
312.194465793
 20
-137.004173245
 30
347.258767577
 11
312.194465793
 21
-137.004173245
 31
16.258767577
  0
ARC
  5
A34
330
A02
100
AcDbEntity
  8
f
100
AcDbCircle
 10
312.194465793
 20
-135.004173245
 30
16.258767577
 40
2.000000000
100
AcDbArc
 50
-90.000000000
 51
90.000000000
  0
LINE
  5
A35
330
A02
100
AcDbEntity
  8
f
100
AcDbLine
 10
312.194465793
 20
-133.004173245
 30
16.258767577
 11
312.194465793
 21
-133.004173245
 31
347.258767577
  0
ARC
  5
A36
330
A02
100
AcDbEntity
  8
f
100
AcDbCircle
 10
312.194465793
 20
-127.004173245
 30
347.258767577
 40
2.000000000
100
AcDbArc
 50
90.000000000
 51
-90.000000000
  0
LINE
  5
A37
330
A02
100
AcDbEntity
  8
f
100
AcDbLine
 10
312.194465793
 20
-129.004173245
 30
347.258767577
 11
312.194465793
 21
-129.004173245
 31
16.258767577
  0
ARC
  5
A38
330
A02
100
AcDbEntity
  8
f
100
AcDbCircle
 10
312.194465793
 20
-127.004173245
 30
16.258767577
 40
2.000000000
100
AcDbArc
 50
-90.000000000
 51
90.000000000
  0
LINE
  5
A39
330
A02
100
AcDbEntity
  8
f
100
AcDbLine
 10
312.194465793
 20
-125.004173245
 30
16.258767577
 11
312.194465793
 21
-125.004173245
 31
347.258767577
  0
ARC
  5
A3A
330
A02
100
AcDbEntity
  8
f
100
AcDbCircle
 10
312.194465793
 20
-119.004173245
 30
347.258767577
 40
2.000000000
100
AcDbArc
 50
90.000000000
 51
-90.000000000
  0
LINE
  5
A3B
330
A02
100
AcDbEntity
  8
f
100
AcDbLine
 10
312.194465793
 20
-121.004173245
 30
347.258767577
 11
312.194465793
 21
-121.004173245
 31
16.258767577
  0
ARC
  5
A3C
330
A02
100
AcDbEntity
  8
f
100
AcDbCircle
 10
312.194465793
 20
-119.004173245
 30
16.258767577
 40
2.000000000
100
AcDbArc
 50
-90.000000000
 51
90.000000000
  0
LINE
  5
A3D
330
A02
100
AcDbEntity
  8
f
100
AcDbLine
 10
312.194465793
 20
-117.004173245
 30
16.258767577
 11
312.194465793
 21
-117.004173245
 31
347.258767577
  0
ARC
  5
A3E
330
A02
100
AcDbEntity
  8
f
100
AcDbCircle
 10
312.194465793
 20
-111.004173245
 30
347.258767577
 40
2.000000000
100
AcDbArc
 50
90.000000000
 51
-90.000000000
  0
LINE
  5
A3F
330
A02
100
AcDbEntity
  8
f
100
AcDbLine
 10
312.194465793
 20
-113.004173245
 30
347.258767577
 11
312.194465793
 21
-113.004173245
 31
16.258767577
  0
ARC
  5
A40
330
A02
100
AcDbEntity
  8
f
100
AcDbCircle
 10
312.194465793
 20
-111.004173245
 30
16.258767577
 40
2.000000000
100
AcDbArc
 50
-90.000000000
 51
90.000000000
  0
LINE
  5
A41
330
A02
100
AcDbEntity
  8
f
100
AcDbLine
 10
312.194465793
 20
-109.004173245
 30
16.258767577
 11
312.194465793
 21
-109.004173245
 31
347.258767577
  0
ARC
  5
A42
330
A02
100
AcDbEntity
  8
f
100
AcDbCircle
 10
312.194465793
 20
-103.004173245
 30
347.258767577
 40
2.000000000
100
AcDbArc
 50
90.000000000
 51
-90.000000000
  0
LINE
  5
A43
330
A02
100
AcDbEntity
  8
f
100
AcDbLine
 10
312.194465793
 20
-105.004173245
 30
347.258767577
 11
312.194465793
 21
-105.004173245
 31
16.258767577
  0
ARC
  5
A44
330
A02
100
AcDbEntity
  8
f
100
AcDbCircle
 10
312.194465793
 20
-103.004173245
 30
16.258767577
 40
2.000000000
100
AcDbArc
 50
-90.000000000
 51
90.000000000
  0
LINE
  5
A45
330
A02
100
AcDbEntity
  8
f
100
AcDbLine
 10
312.194465793
 20
-101.004173245
 30
16.258767577
 11
312.194465793
 21
-101.004173245
 31
347.258767577
  0
ARC
  5
A46
330
A02
100
AcDbEntity
  8
f
100
AcDbCircle
 10
312.194465793
 20
-95.004173245
 30
347.258767577
 40
2.000000000
100
AcDbArc
 50
90.000000000
 51
-90.000000000
  0
LINE
  5
A47
330
A02
100
AcDbEntity
  8
f
100
AcDbLine
 10
312.194465793
 20
-97.004173245
 30
347.258767577
 11
312.194465793
 21
-97.004173245
 31
16.258767577
  0
ARC
  5
A48
330
A02
100
AcDbEntity
  8
f
100
AcDbCircle
 10
312.194465793
 20
-95.004173245
 30
16.258767577
 40
2.000000000
100
AcDbArc
 50
-90.000000000
 51
90.000000000
  0
LINE
  5
A49
330
A02
100
AcDbEntity
  8
f
100
AcDbLine
 10
312.194465793
 20
-93.004173245
 30
16.258767577
 11
312.194465793
 21
-93.004173245
 31
347.258767577
  0
ARC
  5
A4A
330
A02
100
AcDbEntity
  8
f
100
AcDbCircle
 10
312.194465793
 20
-87.004173245
 30
347.258767577
 40
2.000000000
100
AcDbArc
 50
90.000000000
 51
-90.000000000
  0
LINE
  5
A4B
330
A02
100
AcDbEntity
  8
f
100
AcDbLine
 10
312.194465793
 20
-89.004173245
 30
347.258767577
 11
312.194465793
 21
-89.004173245
 31
16.258767577
  0
ARC
  5
A4C
330
A02
100
AcDbEntity
  8
f
100
AcDbCircle
 10
312.194465793
 20
-87.004173245
 30
16.258767577
 40
2.000000000
100
AcDbArc
 50
-90.000000000
 51
90.000000000
  0
LINE
  5
A4D
330
A02
100
AcDbEntity
  8
f
100
AcDbLine
 10
312.194465793
 20
-85.004173245
 30
16.258767577
 11
312.194465793
 21
-85.004173245
 31
347.258767577
  0
ARC
  5
A4E
330
A02
100
AcDbEntity
  8
f
100
AcDbCircle
 10
312.194465793
 20
-79.004173245
 30
347.258767577
 40
2.000000000
100
AcDbArc
 50
90.000000000
 51
-90.000000000
  0
LINE
  5
A4F
330
A02
100
AcDbEntity
  8
f
100
AcDbLine
 10
312.194465793
 20
-81.004173245
 30
347.258767577
 11
312.194465793
 21
-81.004173245
 31
16.258767577
  0
ARC
  5
A50
330
A02
100
AcDbEntity
  8
f
100
AcDbCircle
 10
312.194465793
 20
-79.004173245
 30
16.258767577
 40
2.000000000
100
AcDbArc
 50
-90.000000000
 51
90.000000000
  0
LINE
  5
A51
330
A02
100
AcDbEntity
  8
f
100
AcDbLine
 10
312.194465793
 20
-77.004173245
 30
16.258767577
 11
312.194465793
 21
-77.004173245
 31
347.258767577
  0
ARC
  5
A52
330
A02
100
AcDbEntity
  8
f
100
AcDbCircle
 10
312.194465793
 20
-71.004173245
 30
347.258767577
 40
2.000000000
100
AcDbArc
 50
90.000000000
 51
-90.000000000
  0
LINE
  5
A53
330
A02
100
AcDbEntity
  8
f
100
AcDbLine
 10
312.194465793
 20
-73.004173245
 30
347.258767577
 11
312.194465793
 21
-73.004173245
 31
16.258767577
  0
ARC
  5
A54
330
A02
100
AcDbEntity
  8
f
100
AcDbCircle
 10
312.194465793
 20
-71.004173245
 30
16.258767577
 40
2.000000000
100
AcDbArc
 50
-90.000000000
 51
90.000000000
  0
LINE
  5
A55
330
A02
100
AcDbEntity
  8
f
100
AcDbLine
 10
312.194465793
 20
-69.004173245
 30
16.258767577
 11
312.194465793
 21
-69.004173245
 31
347.258767577
  0
ARC
  5
A56
330
A02
100
AcDbEntity
  8
f
100
AcDbCircle
 10
312.194465793
 20
-63.004173245
 30
347.258767577
 40
2.000000000
100
AcDbArc
 50
90.000000000
 51
-90.000000000
  0
LINE
  5
A57
330
A02
100
AcDbEntity
  8
f
100
AcDbLine
 10
312.194465793
 20
-65.004173245
 30
347.258767577
 11
312.194465793
 21
-65.004173245
 31
16.258767577
  0
ARC
  5
A58
330
A02
100
AcDbEntity
  8
f
100
AcDbCircle
 10
312.194465793
 20
-63.004173245
 30
16.258767577
 40
2.000000000
100
AcDbArc
 50
-90.000000000
 51
90.000000000
  0
LINE
  5
A59
330
A02
100
AcDbEntity
  8
f
100
AcDbLine
 10
312.194465793
 20
-61.004173245
 30
16.258767577
 11
312.194465793
 21
-61.004173245
 31
347.258767577
  0
ARC
  5
A5A
330
A02
100
AcDbEntity
  8
f
100
AcDbCircle
 10
312.194465793
 20
-55.004173245
 30
347.258767577
 40
2.000000000
100
AcDbArc
 50
90.000000000
 51
-90.000000000
  0
LINE
  5
A5B
330
A02
100
AcDbEntity
  8
f
100
AcDbLine
 10
312.194465793
 20
-57.004173245
 30
347.258767577
 11
312.194465793
 21
-57.004173245
 31
16.258767577
  0
ARC
  5
A5C
330
A02
100
AcDbEntity
  8
f
100
AcDbCircle
 10
312.194465793
 20
-55.004173245
 30
16.258767577
 40
2.000000000
100
AcDbArc
 50
-90.000000000
 51
90.000000000
  0
LINE
  5
A5D
330
A02
100
AcDbEntity
  8
f
100
AcDbLine
 10
312.194465793
 20
-53.004173245
 30
16.258767577
 11
312.194465793
 21
-53.004173245
 31
347.258767577
  0
ARC
  5
A5E
330
A02
100
AcDbEntity
  8
f
100
AcDbCircle
 10
312.194465793
 20
-47.004173245
 30
347.258767577
 40
2.000000000
100
AcDbArc
 50
90.000000000
 51
-90.000000000
  0
LINE
  5
A5F
330
A02
100
AcDbEntity
  8
f
100
AcDbLine
 10
312.194465793
 20
-49.004173245
 30
347.258767577
 11
312.194465793
 21
-49.004173245
 31
16.258767577
  0
ARC
  5
A60
330
A02
100
AcDbEntity
  8
f
100
AcDbCircle
 10
312.194465793
 20
-47.004173245
 30
16.258767577
 40
2.000000000
100
AcDbArc
 50
-90.000000000
 51
90.000000000
  0
LINE
  5
A61
330
A02
100
AcDbEntity
  8
f
100
AcDbLine
 10
312.194465793
 20
-45.004173245
 30
16.258767577
 11
312.194465793
 21
-45.004173245
 31
347.258767577
  0
ARC
  5
A62
330
A02
100
AcDbEntity
  8
f
100
AcDbCircle
 10
312.194465793
 20
-23.004173245
 30
347.258767577
 40
2.000000000
100
AcDbArc
 50
90.000000000
 51
-90.000000000
  0
LINE
  5
A63
330
A02
100
AcDbEntity
  8
f
100
AcDbLine
 10
312.194465793
 20
-25.004173245
 30
347.258767577
 11
312.194465793
 21
-25.004173245
 31
16.258767577
  0
ARC
  5
A64
330
A02
100
AcDbEntity
  8
f
100
AcDbCircle
 10
312.194465793
 20
-23.004173245
 30
16.258767577
 40
2.000000000
100
AcDbArc
 50
-90.000000000
 51
90.000000000
  0
LINE
  5
A65
330
A02
100
AcDbEntity
  8
f
100
AcDbLine
 10
312.194465793
 20
-21.004173245
 30
16.258767577
 11
312.194465793
 21
-21.004173245
 31
347.258767577
  0
ARC
  5
A66
330
A02
100
AcDbEntity
  8
f
100
AcDbCircle
 10
312.194465793
 20
-15.004173245
 30
347.258767577
 40
2.000000000
100
AcDbArc
 50
90.000000000
 51
-90.000000000
  0
LINE
  5
A67
330
A02
100
AcDbEntity
  8
f
100
AcDbLine
 10
312.194465793
 20
-17.004173245
 30
347.258767577
 11
312.194465793
 21
-17.004173245
 31
16.258767577
  0
ARC
  5
A68
330
A02
100
AcDbEntity
  8
f
100
AcDbCircle
 10
312.194465793
 20
-15.004173245
 30
16.258767577
 40
2.000000000
100
AcDbArc
 50
-90.000000000
 51
90.000000000
  0
LINE
  5
A69
330
A02
100
AcDbEntity
  8
f
100
AcDbLine
 10
312.194465793
 20
-13.004173245
 30
16.258767577
 11
312.194465793
 21
-13.004173245
 31
347.258767577
  0
ARC
  5
A6A
330
A02
100
AcDbEntity
  8
f
100
AcDbCircle
 10
312.194465793
 20
-7.004173245
 30
347.258767577
 40
2.000000000
100
AcDbArc
 50
90.000000000
 51
-90.000000000
  0
LINE
  5
A6B
330
A02
100
AcDbEntity
  8
f
100
AcDbLine
 10
312.194465793
 20
-9.004173245
 30
347.258767577
 11
312.194465793
 21
-9.004173245
 31
16.258767577
  0
ARC
  5
A6C
330
A02
100
AcDbEntity
  8
f
100
AcDbCircle
 10
312.194465793
 20
-7.004173245
 30
16.258767577
 40
2.000000000
100
AcDbArc
 50
-90.000000000
 51
90.000000000
  0
LINE
  5
A6D
330
A02
100
AcDbEntity
  8
f
100
AcDbLine
 10
312.194465793
 20
-5.004173245
 30
16.258767577
 11
312.194465793
 21
-5.004173245
 31
347.258767577
  0
ARC
  5
A6E
330
A02
100
AcDbEntity
  8
f
100
AcDbCircle
 10
312.194465793
 20
0.995826755
 30
347.258767577
 40
2.000000000
100
AcDbArc
 50
90.000000000
 51
-90.000000000
  0
LINE
  5
A6F
330
A02
100
AcDbEntity
  8
f
100
AcDbLine
 10
312.194465793
 20
-1.004173245
 30
347.258767577
 11
312.194465793
 21
-1.004173245
 31
16.258767577
  0
ARC
  5
A70
330
A02
100
AcDbEntity
  8
f
100
AcDbCircle
 10
312.194465793
 20
0.995826755
 30
16.258767577
 40
2.000000000
100
AcDbArc
 50
-90.000000000
 51
90.000000000
  0
LINE
  5
A71
330
A02
100
AcDbEntity
  8
f
100
AcDbLine
 10
312.194465793
 20
2.995826755
 30
16.258767577
 11
312.194465793
 21
2.995826755
 31
347.258767577
  0
ARC
  5
A72
330
A02
100
AcDbEntity
  8
f
100
AcDbCircle
 10
312.194465793
 20
8.995826755
 30
347.258767577
 40
2.000000000
100
AcDbArc
 50
90.000000000
 51
-90.000000000
  0
LINE
  5
A73
330
A02
100
AcDbEntity
  8
f
100
AcDbLine
 10
312.194465793
 20
6.995826755
 30
347.258767577
 11
312.194465793
 21
6.995826755
 31
16.258767577
  0
ARC
  5
A74
330
A02
100
AcDbEntity
  8
f
100
AcDbCircle
 10
312.194465793
 20
8.995826755
 30
16.258767577
 40
2.000000000
100
AcDbArc
 50
-90.000000000
 51
90.000000000
  0
LINE
  5
A75
330
A02
100
AcDbEntity
  8
f
100
AcDbLine
 10
312.194465793
 20
10.995826755
 30
16.258767577
 11
312.194465793
 21
10.995826755
 31
347.258767577
  0
ARC
  5
A76
330
A02
100
AcDbEntity
  8
f
100
AcDbCircle
 10
312.194465793
 20
16.995826755
 30
347.258767577
 40
2.000000000
100
AcDbArc
 50
90.000000000
 51
-90.000000000
  0
LINE
  5
A77
330
A02
100
AcDbEntity
  8
f
100
AcDbLine
 10
312.194465793
 20
14.995826755
 30
347.258767577
 11
312.194465793
 21
14.995826755
 31
16.258767577
  0
ARC
  5
A78
330
A02
100
AcDbEntity
  8
f
100
AcDbCircle
 10
312.194465793
 20
16.995826755
 30
16.258767577
 40
2.000000000
100
AcDbArc
 50
-90.000000000
 51
90.000000000
  0
LINE
  5
A79
330
A02
100
AcDbEntity
  8
f
100
AcDbLine
 10
312.194465793
 20
18.995826755
 30
16.258767577
 11
312.194465793
 21
18.995826755
 31
347.258767577
  0
ARC
  5
A7A
330
A02
100
AcDbEntity
  8
f
100
AcDbCircle
 10
312.194465793
 20
24.995826755
 30
347.258767577
 40
2.000000000
100
AcDbArc
 50
90.000000000
 51
-90.000000000
  0
LINE
  5
A7B
330
A02
100
AcDbEntity
  8
f
100
AcDbLine
 10
312.194465793
 20
22.995826755
 30
347.258767577
 11
312.194465793
 21
22.995826755
 31
16.258767577
  0
ARC
  5
A7C
330
A02
100
AcDbEntity
  8
f
100
AcDbCircle
 10
312.194465793
 20
24.995826755
 30
16.258767577
 40
2.000000000
100
AcDbArc
 50
-90.000000000
 51
90.000000000
  0
LINE
  5
A7D
330
A02
100
AcDbEntity
  8
f
100
AcDbLine
 10
312.194465793
 20
26.995826755
 30
16.258767577
 11
312.194465793
 21
26.995826755
 31
347.258767577
  0
ARC
  5
A7E
330
A02
100
AcDbEntity
  8
f
100
AcDbCircle
 10
312.194465793
 20
32.995826755
 30
347.258767577
 40
2.000000000
100
AcDbArc
 50
90.000000000
 51
-90.000000000
  0
LINE
  5
A7F
330
A02
100
AcDbEntity
  8
f
100
AcDbLine
 10
312.194465793
 20
30.995826755
 30
347.258767577
 11
312.194465793
 21
30.995826755
 31
16.258767577
  0
ARC
  5
A80
330
A02
100
AcDbEntity
  8
f
100
AcDbCircle
 10
312.194465793
 20
32.995826755
 30
16.258767577
 40
2.000000000
100
AcDbArc
 50
-90.000000000
 51
90.000000000
  0
LINE
  5
A81
330
A02
100
AcDbEntity
  8
f
100
AcDbLine
 10
312.194465793
 20
34.995826755
 30
16.258767577
 11
312.194465793
 21
34.995826755
 31
347.258767577
  0
ARC
  5
A82
330
A02
100
AcDbEntity
  8
f
100
AcDbCircle
 10
312.194465793
 20
40.995826755
 30
347.258767577
 40
2.000000000
100
AcDbArc
 50
90.000000000
 51
-90.000000000
  0
LINE
  5
A83
330
A02
100
AcDbEntity
  8
f
100
AcDbLine
 10
312.194465793
 20
38.995826755
 30
347.258767577
 11
312.194465793
 21
38.995826755
 31
16.258767577
  0
ARC
  5
A84
330
A02
100
AcDbEntity
  8
f
100
AcDbCircle
 10
312.194465793
 20
40.995826755
 30
16.258767577
 40
2.000000000
100
AcDbArc
 50
-90.000000000
 51
90.000000000
  0
LINE
  5
A85
330
A02
100
AcDbEntity
  8
f
100
AcDbLine
 10
312.194465793
 20
42.995826755
 30
16.258767577
 11
312.194465793
 21
42.995826755
 31
347.258767577
  0
ARC
  5
A86
330
A02
100
AcDbEntity
  8
f
100
AcDbCircle
 10
312.194465793
 20
48.995826755
 30
347.258767577
 40
2.000000000
100
AcDbArc
 50
90.000000000
 51
-90.000000000
  0
LINE
  5
A87
330
A02
100
AcDbEntity
  8
f
100
AcDbLine
 10
312.194465793
 20
46.995826755
 30
347.258767577
 11
312.194465793
 21
46.995826755
 31
16.258767577
  0
ARC
  5
A88
330
A02
100
AcDbEntity
  8
f
100
AcDbCircle
 10
312.194465793
 20
48.995826755
 30
16.258767577
 40
2.000000000
100
AcDbArc
 50
-90.000000000
 51
90.000000000
  0
LINE
  5
A89
330
A02
100
AcDbEntity
  8
f
100
AcDbLine
 10
312.194465793
 20
50.995826755
 30
16.258767577
 11
312.194465793
 21
50.995826755
 31
347.258767577
  0
ARC
  5
A8A
330
A02
100
AcDbEntity
  8
f
100
AcDbCircle
 10
312.194465793
 20
56.995826755
 30
347.258767577
 40
2.000000000
100
AcDbArc
 50
90.000000000
 51
-90.000000000
  0
LINE
  5
A8B
330
A02
100
AcDbEntity
  8
f
100
AcDbLine
 10
312.194465793
 20
54.995826755
 30
347.258767577
 11
312.194465793
 21
54.995826755
 31
16.258767577
  0
ARC
  5
A8C
330
A02
100
AcDbEntity
  8
f
100
AcDbCircle
 10
312.194465793
 20
56.995826755
 30
16.258767577
 40
2.000000000
100
AcDbArc
 50
-90.000000000
 51
90.000000000
  0
LINE
  5
A8D
330
A02
100
AcDbEntity
  8
f
100
AcDbLine
 10
312.194465793
 20
58.995826755
 30
16.258767577
 11
312.194465793
 21
58.995826755
 31
347.258767577
  0
ARC
  5
A8E
330
A02
100
AcDbEntity
  8
f
100
AcDbCircle
 10
312.194465793
 20
64.995826755
 30
347.258767577
 40
2.000000000
100
AcDbArc
 50
90.000000000
 51
-90.000000000
  0
LINE
  5
A8F
330
A02
100
AcDbEntity
  8
f
100
AcDbLine
 10
312.194465793
 20
62.995826755
 30
347.258767577
 11
312.194465793
 21
62.995826755
 31
16.258767577
  0
ARC
  5
A90
330
A02
100
AcDbEntity
  8
f
100
AcDbCircle
 10
312.194465793
 20
64.995826755
 30
16.258767577
 40
2.000000000
100
AcDbArc
 50
-90.000000000
 51
90.000000000
  0
LINE
  5
A91
330
A02
100
AcDbEntity
  8
f
100
AcDbLine
 10
312.194465793
 20
66.995826755
 30
16.258767577
 11
312.194465793
 21
66.995826755
 31
347.258767577
  0
ARC
  5
A92
330
A02
100
AcDbEntity
  8
f
100
AcDbCircle
 10
312.194465793
 20
72.995826755
 30
347.258767577
 40
2.000000000
100
AcDbArc
 50
90.000000000
 51
-90.000000000
  0
LINE
  5
A93
330
A02
100
AcDbEntity
  8
f
100
AcDbLine
 10
312.194465793
 20
70.995826755
 30
347.258767577
 11
312.194465793
 21
70.995826755
 31
16.258767577
  0
ARC
  5
A94
330
A02
100
AcDbEntity
  8
f
100
AcDbCircle
 10
312.194465793
 20
72.995826755
 30
16.258767577
 40
2.000000000
100
AcDbArc
 50
-90.000000000
 51
90.000000000
  0
LINE
  5
A95
330
A02
100
AcDbEntity
  8
f
100
AcDbLine
 10
312.194465793
 20
74.995826755
 30
16.258767577
 11
312.194465793
 21
74.995826755
 31
347.258767577
  0
ARC
  5
A96
330
A02
100
AcDbEntity
  8
f
100
AcDbCircle
 10
312.194465793
 20
80.995826755
 30
347.258767577
 40
2.000000000
100
AcDbArc
 50
90.000000000
 51
-90.000000000
  0
LINE
  5
A97
330
A02
100
AcDbEntity
  8
f
100
AcDbLine
 10
312.194465793
 20
78.995826755
 30
347.258767577
 11
312.194465793
 21
78.995826755
 31
16.258767577
  0
ARC
  5
A98
330
A02
100
AcDbEntity
  8
f
100
AcDbCircle
 10
312.194465793
 20
80.995826755
 30
16.258767577
 40
2.000000000
100
AcDbArc
 50
-90.000000000
 51
90.000000000
  0
LINE
  5
A99
330
A02
100
AcDbEntity
  8
f
100
AcDbLine
 10
312.194465793
 20
82.995826755
 30
16.258767577
 11
312.194465793
 21
82.995826755
 31
347.258767577
  0
ARC
  5
A9A
330
A02
100
AcDbEntity
  8
f
100
AcDbCircle
 10
312.194465793
 20
-31.004173245
 30
339.508768364
 40
2.000000000
100
AcDbArc
 50
-90.000000000
 51
90.000000000
  0
LINE
  5
A9B
330
A02
100
AcDbEntity
  8
f
100
AcDbLine
 10
312.194465793
 20
-29.004173245
 30
339.508768364
 11
312.194465793
 21
-29.004173245
 31
347.258767577
  0
ARC
  5
A9C
330
A02
100
AcDbEntity
  8
f
100
AcDbCircle
 10
312.194465793
 20
-31.004173245
 30
347.258767577
 40
2.000000000
100
AcDbArc
 50
90.000000000
 51
-90.000000000
  0
LINE
  5
A9D
330
A02
100
AcDbEntity
  8
f
100
AcDbLine
 10
312.194465793
 20
-33.004173245
 30
347.258767577
 11
312.194465793
 21
-33.004173245
 31
339.508768364
  0
CIRCLE
  5
A9E
330
A02
100
AcDbEntity
  8
f
100
AcDbCircle
 10
312.194465793
 20
-35.004194826
 30
335.758768364
 40
2.750000001
  0
ARC
  5
A9F
330
A02
100
AcDbEntity
  8
f
100
AcDbCircle
 10
312.194465793
 20
-31.004173245
 30
31.508768277
 40
2.000000000
100
AcDbArc
 50
-90.000000000
 51
90.000000000
  0
LINE
  5
AA0
330
A02
100
AcDbEntity
  8
f
100
AcDbLine
 10
312.194465793
 20
-29.004173245
 30
31.508768277
 11
312.194465793
 21
-29.004173245
 31
178.008768364
  0
ARC
  5
AA1
330
A02
100
AcDbEntity
  8
f
100
AcDbCircle
 10
312.194465793
 20
-31.004173245
 30
178.008768364
 40
2.000000000
100
AcDbArc
 50
90.000000000
 51
-90.000000000
  0
LINE
  5
AA2
330
A02
100
AcDbEntity
  8
f
100
AcDbLine
 10
312.194465793
 20
-33.004173245
 30
178.008768364
 11
312.194465793
 21
-33.004173245
 31
31.508768277
  0
ENDSEC
  0
SECTION
  2
OBJECTS
  0
DICTIONARY
  5
F000
330
0
100
AcDbDictionary
  3
ACAD_GROUP
350
F001
  0
DICTIONARY
  5
F001
330
F000
100
AcDbDictionary
  0
ENDSEC
  0
EOF